SplineFontDB: 3.2
FontName: SixCaps
FullName: Six Caps
FamilyName: Six Caps
Weight: Book
Copyright: Copyright (c) 2010 by vernon adams. All rights reserved.
Version: 001.000
ItalicAngle: 0
UnderlinePosition: -272
UnderlineWidth: 41
Ascent: 1638
Descent: 410
InvalidEm: 0
sfntRevision: 0x00000000
LayerCount: 2
Layer: 0 1 "Back" 1
Layer: 1 1 "Fore" 0
XUID: [1021 939 -236394033 18132]
StyleMap: 0x0040
FSType: 0
OS2Version: 1
OS2_WeightWidthSlopeOnly: 0
OS2_UseTypoMetrics: 0
CreationTime: 1300750043
ModificationTime: 1743175111
PfmFamily: 17
TTFWeight: 400
TTFWidth: 5
LineGap: 0
VLineGap: 0
Panose: 2 0 5 8 2 0 0 2 0 4
OS2TypoAscent: 2263
OS2TypoAOffset: 0
OS2TypoDescent: -432
OS2TypoDOffset: 0
OS2TypoLinegap: 0
OS2WinAscent: 2263
OS2WinAOffset: 0
OS2WinDescent: 432
OS2WinDOffset: 0
HheadAscent: 2263
HheadAOffset: 0
HheadDescent: -432
HheadDOffset: 0
OS2SubXSize: 1434
OS2SubYSize: 1331
OS2SubXOff: 0
OS2SubYOff: 287
OS2SupXSize: 1434
OS2SupYSize: 1331
OS2SupXOff: 0
OS2SupYOff: 977
OS2StrikeYSize: 102
OS2StrikeYPos: 512
OS2Vendor: 'newt'
OS2CodePages: 20000001.00000000
OS2UnicodeRanges: a00002af.40002048.00000000.00000000
Lookup: 258 0 0 "'kern' Horizontal Kerning in Latin lookup 0" { "'kern' Horizontal Kerning in Latin lookup 0 subtable"  } ['kern' ('latn' <'dflt' > ) ]
DEI: 91125
TtTable: prep
PUSHW_1
 511
SCANCTRL
PUSHB_1
 1
SCANTYPE
SVTCA[y-axis]
MPPEM
PUSHB_1
 8
LT
IF
PUSHB_2
 1
 1
INSTCTRL
EIF
PUSHB_2
 70
 6
CALL
IF
POP
PUSHB_1
 16
EIF
MPPEM
PUSHB_1
 20
GT
IF
POP
PUSHB_1
 128
EIF
SCVTCI
PUSHB_1
 6
CALL
NOT
IF
SVTCA[y-axis]
PUSHB_1
 5
DUP
RCVT
PUSHB_1
 3
CALL
WCVTP
PUSHB_1
 6
DUP
RCVT
PUSHB_3
 5
 43
 2
CALL
PUSHB_1
 3
CALL
WCVTP
PUSHB_1
 7
DUP
RCVT
PUSHB_3
 6
 39
 2
CALL
PUSHB_1
 3
CALL
WCVTP
PUSHB_1
 8
DUP
RCVT
PUSHB_3
 7
 36
 2
CALL
PUSHB_1
 3
CALL
WCVTP
SVTCA[x-axis]
PUSHB_1
 9
DUP
RCVT
PUSHB_1
 3
CALL
WCVTP
PUSHB_1
 10
DUP
RCVT
PUSHW_3
 9
 32767
 2
CALL
PUSHB_2
 3
 70
SROUND
CALL
WCVTP
EIF
PUSHB_1
 20
CALL
EndTTInstrs
TtTable: fpgm
PUSHB_1
 0
FDEF
PUSHB_1
 0
SZP0

StartChar: exclam
Encoding: 33 33 59
Width: 259
GlyphClass: 2
Flags: W
LayerCount: 2
Fore
SplineSet
224 1728 m 1,0,-1
 160 256 l 1,1,-1
 96 256 l 1,2,-1
 32 1728 l 1,3,-1
 224 1728 l 1,0,-1
192 160 m 1,4,-1
 192 0 l 1,5,-1
 64 0 l 1,6,-1
 64 160 l 1,7,-1
 192 160 l 1,4,-1
EndSplineSet
EndChar

StartChar: quotedbl
Encoding: 34 34 60
Width: 448
GlyphClass: 2
Flags: W
LayerCount: 2
Fore
SplineSet
384 1728 m 1,0,-1
 352 1376 l 1,1,-1
 288 1376 l 1,2,-1
 256 1728 l 1,3,-1
 384 1728 l 1,0,-1
192 1728 m 1,4,-1
 160 1376 l 1,5,-1
 96 1376 l 1,6,-1
 64 1728 l 1,7,-1
 192 1728 l 1,4,-1
EndSplineSet
EndChar

StartChar: numbersign
Encoding: 35 35 61
Width: 512
GlyphClass: 2
Flags: W
LayerCount: 2
Fore
SplineSet
480 608 m 1,0,-1
 418 608 l 1,1,-1
 384 0 l 1,2,-1
 256 0 l 1,3,-1
 290 608 l 1,4,-1
 194 608 l 1,5,-1
 160 0 l 1,6,-1
 32 0 l 1,7,-1
 66 608 l 1,8,-1
 0 608 l 1,9,-1
 0 704 l 1,10,-1
 71 704 l 1,11,-1
 87 992 l 1,12,-1
 32 992 l 1,13,-1
 32 1088 l 1,14,-1
 93 1088 l 1,15,-1
 128 1728 l 1,16,-1
 256 1728 l 1,17,-1
 221 1088 l 1,18,-1
 317 1088 l 1,19,-1
 352 1728 l 1,20,-1
 480 1728 l 1,21,-1
 445 1088 l 1,22,-1
 512 1088 l 1,23,-1
 512 992 l 1,24,-1
 439 992 l 1,25,-1
 423 704 l 1,26,-1
 480 704 l 1,27,-1
 480 608 l 1,0,-1
199 704 m 1,28,-1
 295 704 l 1,29,-1
 311 992 l 1,30,-1
 215 992 l 1,31,-1
 199 704 l 1,28,-1
EndSplineSet
EndChar

StartChar: dollar
Encoding: 36 36 62
Width: 461
GlyphClass: 2
Flags: W
LayerCount: 2
Fore
SplineSet
183 -13 m 1,0,1
 156 -6 156 -6 131.5 7.5 c 128,-1,2
 107 21 107 21 89 40 c 0,3,4
 72 60 72 60 62 87.5 c 128,-1,5
 52 115 52 115 52 150 c 2,6,-1
 52 737 l 1,7,-1
 187 737 l 1,8,-1
 187 150 l 2,9,10
 187 130 187 130 199.5 118.5 c 128,-1,11
 212 107 212 107 232 107 c 0,12,13
 249 107 249 107 260.5 118.5 c 128,-1,14
 272 130 272 130 272 150 c 2,15,-1
 272 421 l 2,16,17
 272 527 272 527 262.5 603 c 128,-1,18
 253 679 253 679 237.5 736 c 128,-1,19
 222 793 222 793 202.5 835 c 128,-1,20
 183 877 183 877 162 914 c 128,-1,21
 141 951 141 951 121.5 988.5 c 128,-1,22
 102 1026 102 1026 86.5 1073 c 128,-1,23
 71 1120 71 1120 61.5 1182 c 128,-1,24
 52 1244 52 1244 52 1330 c 2,25,-1
 52 1625 l 2,26,27
 52 1686 52 1686 89 1722.5 c 128,-1,28
 126 1759 126 1759 183 1775 c 1,29,-1
 183 2001 l 1,30,-1
 288 2001 l 1,31,-1
 288 1772 l 1,32,33
 342 1756 342 1756 376 1719 c 0,34,35
 391 1701 391 1701 399.5 1678 c 128,-1,36
 408 1655 408 1655 408 1628 c 2,37,-1
 408 1108 l 1,38,-1
 272 1108 l 1,39,-1
 272 1626 l 2,40,41
 272 1643 272 1643 260.5 1654 c 128,-1,42
 249 1665 249 1665 232 1665 c 0,43,44
 213 1665 213 1665 200 1653 c 128,-1,45
 187 1641 187 1641 187 1625 c 2,46,-1
 187 1376 l 2,47,48
 187 1291 187 1291 196.5 1227.5 c 128,-1,49
 206 1164 206 1164 221.5 1114.5 c 128,-1,50
 237 1065 237 1065 257 1026 c 128,-1,51
 277 987 277 987 297.5 950.5 c 128,-1,52
 318 914 318 914 338 876.5 c 128,-1,53
 358 839 358 839 373.5 792.5 c 128,-1,54
 389 746 389 746 398.5 687.5 c 128,-1,55
 408 629 408 629 408 550 c 2,56,-1
 408 154 l 2,57,58
 408 82 408 82 378 42.5 c 128,-1,59
 348 3 348 3 288 -13 c 1,60,-1
 288 -240 l 1,61,-1
 183 -240 l 1,62,-1
 183 -13 l 1,0,1
EndSplineSet
EndChar

StartChar: percent
Encoding: 37 37 63
Width: 1084
GlyphClass: 2
Flags: W
LayerCount: 2
Fore
SplineSet
1036 362 m 2,0,1
 1036 331 1036 331 1022 304 c 128,-1,2
 1008 277 1008 277 984 256.5 c 128,-1,3
 960 236 960 236 928 224 c 128,-1,4
 896 212 896 212 861 212 c 0,5,6
 824 212 824 212 791.5 224 c 128,-1,7
 759 236 759 236 735 257 c 128,-1,8
 711 278 711 278 697 306.5 c 128,-1,9
 683 335 683 335 683 367 c 2,10,-1
 683 909 l 2,11,12
 683 941 683 941 697 969 c 128,-1,13
 711 997 711 997 735 1018 c 128,-1,14
 759 1039 759 1039 791.5 1051 c 128,-1,15
 824 1063 824 1063 861 1063 c 0,16,17
 896 1063 896 1063 928 1051.5 c 128,-1,18
 960 1040 960 1040 984 1020 c 128,-1,19
 1008 1000 1008 1000 1022 972.5 c 128,-1,20
 1036 945 1036 945 1036 912 c 2,21,-1
 1036 362 l 2,0,1
898 933 m 2,22,23
 898 949 898 949 887 958.5 c 128,-1,24
 876 968 876 968 861 968 c 0,25,26
 845 968 845 968 832.5 958.5 c 128,-1,27
 820 949 820 949 820 933 c 2,28,-1
 820 342 l 2,29,30
 820 334 820 334 830 322 c 128,-1,31
 840 310 840 310 861 310 c 0,32,33
 876 310 876 310 887 319.5 c 128,-1,34
 898 329 898 329 898 342 c 2,35,-1
 898 933 l 2,22,23
402 844 m 2,36,37
 402 813 402 813 387.5 785.5 c 128,-1,38
 373 758 373 758 349 737.5 c 128,-1,39
 325 717 325 717 293 705 c 128,-1,40
 261 693 261 693 226 693 c 0,41,42
 190 693 190 693 157.5 705 c 128,-1,43
 125 717 125 717 101 738 c 128,-1,44
 77 759 77 759 62.5 787.5 c 128,-1,45
 48 816 48 816 48 849 c 2,46,-1
 48 1391 l 2,47,48
 48 1422 48 1422 62.5 1450 c 128,-1,49
 77 1478 77 1478 101 1499 c 128,-1,50
 125 1520 125 1520 157.5 1532.5 c 128,-1,51
 190 1545 190 1545 226 1545 c 0,52,53
 261 1545 261 1545 293 1533.5 c 128,-1,54
 325 1522 325 1522 349 1502 c 128,-1,55
 373 1482 373 1482 387.5 1454 c 128,-1,56
 402 1426 402 1426 402 1393 c 2,57,-1
 402 844 l 2,36,37
264 1415 m 2,58,59
 264 1430 264 1430 253 1440 c 128,-1,60
 242 1450 242 1450 226 1450 c 0,61,62
 211 1450 211 1450 198.5 1440 c 128,-1,63
 186 1430 186 1430 186 1415 c 2,64,-1
 186 824 l 2,65,66
 186 815 186 815 196 803.5 c 128,-1,67
 206 792 206 792 226 792 c 0,68,69
 242 792 242 792 253 801 c 128,-1,70
 264 810 264 810 264 824 c 2,71,-1
 264 1415 l 2,58,59
701 1761 m 1,72,-1
 512 0 l 1,73,-1
 378 0 l 1,74,-1
 567 1761 l 1,75,-1
 701 1761 l 1,72,-1
EndSplineSet
EndChar

StartChar: ampersand
Encoding: 38 38 64
Width: 491
GlyphClass: 2
Flags: W
LayerCount: 2
Fore
SplineSet
415 1077 m 1,0,-1
 280 1077 l 1,1,-1
 280 1638 l 2,2,3
 280 1652 280 1652 267 1663 c 128,-1,4
 254 1674 254 1674 231 1674 c 0,5,6
 213 1674 213 1674 199.5 1663 c 128,-1,7
 186 1652 186 1652 186 1638 c 2,8,-1
 186 1062 l 2,9,10
 186 1029 186 1029 192.5 1011 c 128,-1,11
 199 993 199 993 211 985 c 128,-1,12
 223 977 223 977 241 975.5 c 128,-1,13
 259 974 259 974 282 974 c 1,14,-1
 282 857 l 1,15,16
 259 857 259 857 241 856.5 c 128,-1,17
 223 856 223 856 211 850.5 c 128,-1,18
 199 845 199 845 192.5 832.5 c 128,-1,19
 186 820 186 820 186 797 c 2,20,-1
 186 127 l 2,21,22
 186 112 186 112 199.5 100 c 128,-1,23
 213 88 213 88 231 88 c 0,24,25
 254 88 254 88 267 100 c 128,-1,26
 280 112 280 112 280 127 c 2,27,-1
 280 749 l 1,28,-1
 503 749 l 1,29,-1
 502 638 l 1,30,-1
 415 636 l 1,31,-1
 415 124 l 2,32,33
 415 95 415 95 400.5 68.5 c 128,-1,34
 386 42 386 42 361 22 c 128,-1,35
 336 2 336 2 302.5 -9.5 c 128,-1,36
 269 -21 269 -21 231 -21 c 0,37,38
 195 -21 195 -21 162.5 -9.5 c 128,-1,39
 130 2 130 2 105.5 22.5 c 128,-1,40
 81 43 81 43 66.5 70 c 128,-1,41
 52 97 52 97 52 127 c 2,42,-1
 52 801 l 2,43,44
 52 840 52 840 67.5 865 c 128,-1,45
 83 890 83 890 103 903 c 0,46,47
 127 919 127 919 156 926 c 1,48,49
 125 932 125 932 103 950 c 0,50,51
 83 964 83 964 67.5 990.5 c 128,-1,52
 52 1017 52 1017 52 1062 c 2,53,-1
 52 1638 l 2,54,55
 52 1668 52 1668 66.5 1695 c 128,-1,56
 81 1722 81 1722 105.5 1741.5 c 128,-1,57
 130 1761 130 1761 162.5 1772.5 c 128,-1,58
 195 1784 195 1784 231 1784 c 0,59,60
 269 1784 269 1784 302.5 1773 c 128,-1,61
 336 1762 336 1762 361 1742.5 c 128,-1,62
 386 1723 386 1723 400.5 1696 c 128,-1,63
 415 1669 415 1669 415 1638 c 2,64,-1
 415 1077 l 1,0,-1
EndSplineSet
EndChar

StartChar: quotesingle
Encoding: 39 39 65
Width: 273
GlyphClass: 2
Flags: W
LayerCount: 2
Fore
SplineSet
216 1761 m 1,0,-1
 174 1402 l 1,1,-1
 88 1402 l 1,2,-1
 57 1761 l 1,3,-1
 216 1761 l 1,0,-1
EndSplineSet
EndChar

StartChar: parenleft
Encoding: 40 40 66
Width: 352
GlyphClass: 2
Flags: W
LayerCount: 2
Fore
SplineSet
32 896 m 256,0,1
 32 984 32 984 33.5 1080 c 128,-1,2
 35 1176 35 1176 43 1268.5 c 128,-1,3
 51 1361 51 1361 68 1444 c 128,-1,4
 85 1527 85 1527 117 1590.5 c 128,-1,5
 149 1654 149 1654 198.5 1691 c 128,-1,6
 248 1728 248 1728 320 1728 c 1,7,-1
 320 1632 l 1,8,9
 280 1632 280 1632 252.5 1602 c 128,-1,10
 225 1572 225 1572 207.5 1519.5 c 128,-1,11
 190 1467 190 1467 180 1396 c 128,-1,12
 170 1325 170 1325 165.5 1243 c 128,-1,13
 161 1161 161 1161 160.5 1072.5 c 128,-1,14
 160 984 160 984 160 896 c 256,15,16
 160 808 160 808 160.5 714.5 c 128,-1,17
 161 621 161 621 165.5 532 c 128,-1,18
 170 443 170 443 180 364 c 128,-1,19
 190 285 190 285 207.5 225.5 c 128,-1,20
 225 166 225 166 252.5 131 c 128,-1,21
 280 96 280 96 320 96 c 1,22,-1
 320 0 l 1,23,24
 248 0 248 0 198.5 42 c 128,-1,25
 149 84 149 84 117 154 c 128,-1,26
 85 224 85 224 68 316 c 128,-1,27
 51 408 51 408 43 507.5 c 128,-1,28
 35 607 35 607 33.5 707.5 c 128,-1,29
 32 808 32 808 32 896 c 256,0,1
EndSplineSet
EndChar

StartChar: asterisk
Encoding: 42 42 68
Width: 608
GlyphClass: 2
Flags: W
LayerCount: 2
Fore
SplineSet
408 1161 m 1,0,-1
 305 1326 l 1,1,-1
 207 1161 l 1,2,-1
 122 1210 l 1,3,-1
 224 1376 l 1,4,-1
 32 1376 l 1,5,-1
 32 1472 l 1,6,-1
 225 1472 l 1,7,-1
 122 1639 l 1,8,-1
 206 1688 l 1,9,-1
 305 1521 l 1,10,-1
 408 1688 l 1,11,-1
 492 1639 l 1,12,-1
 383 1472 l 1,13,-1
 576 1472 l 1,14,-1
 576 1376 l 1,15,-1
 384 1376 l 1,16,-1
 492 1210 l 1,17,-1
 408 1161 l 1,0,-1
EndSplineSet
EndChar

StartChar: plus
Encoding: 43 43 69
Width: 640
GlyphClass: 2
Flags: W
LayerCount: 2
Fore
SplineSet
32 896 m 1,0,-1
 256 896 l 1,1,-1
 256 1152 l 1,2,-1
 384 1152 l 1,3,-1
 384 896 l 1,4,-1
 608 896 l 1,5,-1
 608 768 l 1,6,-1
 384 768 l 1,7,-1
 384 512 l 1,8,-1
 256 512 l 1,9,-1
 256 768 l 1,10,-1
 32 768 l 1,11,-1
 32 896 l 1,0,-1
EndSplineSet
EndChar

StartChar: comma
Encoding: 44 44 70
Width: 192
GlyphClass: 2
Flags: W
LayerCount: 2
Fore
SplineSet
160 192 m 1,0,-1
 128 -160 l 1,1,-1
 32 -160 l 1,2,-1
 32 192 l 1,3,-1
 160 192 l 1,0,-1
EndSplineSet
EndChar

StartChar: hyphen
Encoding: 45 45 71
Width: 544
GlyphClass: 2
Flags: W
LayerCount: 2
Fore
SplineSet
512 704 m 1,0,-1
 32 704 l 1,1,-1
 32 832 l 1,2,-1
 512 832 l 1,3,-1
 512 704 l 1,0,-1
EndSplineSet
EndChar

StartChar: period
Encoding: 46 46 72
Width: 224
GlyphClass: 2
Flags: W
LayerCount: 2
Fore
SplineSet
192 160 m 1,0,-1
 192 0 l 1,1,-1
 32 0 l 1,2,-1
 32 160 l 1,3,-1
 192 160 l 1,0,-1
EndSplineSet
EndChar

StartChar: slash
Encoding: 47 47 73
Width: 352
GlyphClass: 2
Flags: W
LayerCount: 2
Fore
SplineSet
320 1728 m 1,0,-1
 160 0 l 1,1,-1
 32 0 l 1,2,-1
 192 1728 l 1,3,-1
 320 1728 l 1,0,-1
EndSplineSet
EndChar

StartChar: zero
Encoding: 48 48 74
Width: 416
GlyphClass: 2
Flags: W
LayerCount: 2
Fore
SplineSet
384 160 m 2,0,1
 384 112 384 112 369 76 c 128,-1,2
 354 40 354 40 329 16 c 128,-1,3
 304 -8 304 -8 272.5 -20 c 128,-1,4
 241 -32 241 -32 208 -32 c 256,5,6
 175 -32 175 -32 143.5 -20 c 128,-1,7
 112 -8 112 -8 87 16 c 128,-1,8
 62 40 62 40 47 76 c 128,-1,9
 32 112 32 112 32 160 c 2,10,-1
 32 1568 l 2,11,12
 32 1616 32 1616 47 1652 c 128,-1,13
 62 1688 62 1688 87 1712 c 128,-1,14
 112 1736 112 1736 143.5 1748 c 128,-1,15
 175 1760 175 1760 208 1760 c 256,16,17
 241 1760 241 1760 272.5 1748 c 128,-1,18
 304 1736 304 1736 329 1712 c 128,-1,19
 354 1688 354 1688 369 1652 c 128,-1,20
 384 1616 384 1616 384 1568 c 2,21,-1
 384 160 l 2,0,1
256 1568 m 2,22,23
 256 1604 256 1604 241 1622 c 128,-1,24
 226 1640 226 1640 208 1640 c 256,25,26
 190 1640 190 1640 175 1622 c 128,-1,27
 160 1604 160 1604 160 1568 c 2,28,-1
 160 160 l 2,29,30
 160 124 160 124 175 106 c 128,-1,31
 190 88 190 88 208 88 c 256,32,33
 226 88 226 88 241 106 c 128,-1,34
 256 124 256 124 256 160 c 2,35,-1
 256 1568 l 2,22,23
EndSplineSet
EndChar

StartChar: one
Encoding: 49 49 75
Width: 384
GlyphClass: 2
Flags: W
LayerCount: 2
Fore
SplineSet
32 96 m 1,0,-1
 128 96 l 1,1,-1
 128 1632 l 1,2,-1
 32 1632 l 1,3,-1
 32 1728 l 1,4,-1
 256 1728 l 1,5,-1
 256 96 l 1,6,-1
 352 96 l 1,7,-1
 352 0 l 1,8,-1
 32 0 l 1,9,-1
 32 96 l 1,0,-1
EndSplineSet
EndChar

StartChar: two
Encoding: 50 50 76
Width: 416
GlyphClass: 2
Flags: W
LayerCount: 2
Fore
SplineSet
32 1568 m 2,0,1
 32 1632 32 1632 58 1674.5 c 128,-1,2
 84 1717 84 1717 123 1738.5 c 128,-1,3
 162 1760 162 1760 208 1760 c 128,-1,4
 254 1760 254 1760 293 1738.5 c 128,-1,5
 332 1717 332 1717 358 1674.5 c 128,-1,6
 384 1632 384 1632 384 1568 c 0,7,8
 384 1538 384 1538 383.5 1521 c 128,-1,9
 383 1504 383 1504 380 1484 c 128,-1,10
 377 1464 377 1464 371 1432 c 128,-1,11
 365 1400 365 1400 354 1340.5 c 128,-1,12
 343 1281 343 1281 326.5 1186 c 128,-1,13
 310 1091 310 1091 287 943.5 c 128,-1,14
 264 796 264 796 232.5 588 c 128,-1,15
 201 380 201 380 160 96 c 1,16,-1
 384 96 l 1,17,-1
 384 0 l 1,18,-1
 32 0 l 1,19,20
 75 301 75 301 108 524 c 128,-1,21
 141 747 141 747 165 908 c 128,-1,22
 189 1069 189 1069 205 1175.5 c 128,-1,23
 221 1282 221 1282 231 1349 c 128,-1,24
 241 1416 241 1416 246 1452 c 128,-1,25
 251 1488 251 1488 253.5 1508 c 128,-1,26
 256 1528 256 1528 256 1539 c 2,27,-1
 256 1568 l 2,28,29
 256 1616 256 1616 241 1640 c 128,-1,30
 226 1664 226 1664 208 1664 c 128,-1,31
 190 1664 190 1664 175 1640 c 128,-1,32
 160 1616 160 1616 160 1568 c 2,33,-1
 160 1280 l 1,34,-1
 32 1280 l 1,35,-1
 32 1568 l 2,0,1
EndSplineSet
EndChar

StartChar: three
Encoding: 51 51 77
Width: 448
GlyphClass: 2
Flags: W
LayerCount: 2
Fore
SplineSet
32 1568 m 2,0,1
 32 1616 32 1616 47 1652 c 128,-1,2
 62 1688 62 1688 87 1712 c 128,-1,3
 112 1736 112 1736 143.5 1748 c 128,-1,4
 175 1760 175 1760 208 1760 c 256,5,6
 241 1760 241 1760 272.5 1748 c 128,-1,7
 304 1736 304 1736 329 1712 c 128,-1,8
 354 1688 354 1688 369 1652 c 128,-1,9
 384 1616 384 1616 384 1568 c 2,10,-1
 384 1024 l 2,11,12
 384 1012 384 1012 382.5 995 c 128,-1,13
 381 978 381 978 372 960 c 128,-1,14
 363 942 363 942 343.5 925 c 128,-1,15
 324 908 324 908 288 896 c 1,16,17
 324 884 324 884 343.5 867 c 128,-1,18
 363 850 363 850 372 832 c 128,-1,19
 381 814 381 814 382.5 797 c 128,-1,20
 384 780 384 780 384 768 c 2,21,-1
 384 160 l 2,22,23
 384 112 384 112 369 76 c 128,-1,24
 354 40 354 40 329 16 c 128,-1,25
 304 -8 304 -8 272.5 -20 c 128,-1,26
 241 -32 241 -32 208 -32 c 256,27,28
 175 -32 175 -32 143.5 -20 c 128,-1,29
 112 -8 112 -8 87 16 c 128,-1,30
 62 40 62 40 47 76 c 128,-1,31
 32 112 32 112 32 160 c 2,32,-1
 32 608 l 1,33,-1
 160 608 l 1,34,-1
 160 160 l 2,35,36
 160 112 160 112 175 88 c 128,-1,37
 190 64 190 64 208 64 c 256,38,39
 226 64 226 64 241 88 c 128,-1,40
 256 112 256 112 256 160 c 2,41,-1
 256 768 l 2,42,43
 256 792 256 792 250.5 805 c 128,-1,44
 245 818 245 818 236 824 c 128,-1,45
 227 830 227 830 215.5 831 c 128,-1,46
 204 832 204 832 192 832 c 2,47,-1
 128 832 l 1,48,-1
 128 960 l 1,49,-1
 192 960 l 2,50,51
 204 960 204 960 215.5 961 c 128,-1,52
 227 962 227 962 236 968 c 128,-1,53
 245 974 245 974 250.5 987.5 c 128,-1,54
 256 1001 256 1001 256 1025 c 2,55,-1
 256 1568 l 2,56,57
 256 1616 256 1616 241 1640 c 128,-1,58
 226 1664 226 1664 208 1664 c 256,59,60
 190 1664 190 1664 175 1640 c 128,-1,61
 160 1616 160 1616 160 1568 c 2,62,-1
 160 1152 l 1,63,-1
 32 1152 l 1,64,-1
 32 1568 l 2,0,1
EndSplineSet
EndChar

StartChar: four
Encoding: 52 52 78
Width: 448
GlyphClass: 2
Flags: W
LayerCount: 2
Fore
SplineSet
384 1120 m 1,0,-1
 384 0 l 1,1,-1
 256 0 l 1,2,-1
 256 352 l 1,3,-1
 32 352 l 1,4,-1
 96 1728 l 1,5,-1
 224 1728 l 1,6,-1
 160 470 l 1,7,-1
 256 470 l 1,8,-1
 256 1120 l 1,9,-1
 384 1120 l 1,0,-1
EndSplineSet
EndChar

StartChar: five
Encoding: 53 53 79
Width: 451
GlyphClass: 2
Flags: W
LayerCount: 2
Fore
SplineSet
288 864 m 2,0,1
 288 900 288 900 273 918 c 128,-1,2
 258 936 258 936 240 936 c 256,3,4
 222 936 222 936 207 918 c 128,-1,5
 192 900 192 900 192 864 c 1,6,-1
 64 864 l 1,7,-1
 64 1728 l 1,8,-1
 416 1728 l 1,9,-1
 416 1632 l 1,10,-1
 192 1632 l 1,11,-1
 192 992 l 1,12,13
 211 1021 211 1021 239.5 1037 c 128,-1,14
 268 1053 268 1053 297 1053 c 0,15,16
 319 1053 319 1053 340.5 1042.5 c 128,-1,17
 362 1032 362 1032 379 1009 c 128,-1,18
 396 986 396 986 406 950.5 c 128,-1,19
 416 915 416 915 416 864 c 2,20,-1
 416 160 l 2,21,22
 416 112 416 112 401 76 c 128,-1,23
 386 40 386 40 361 16 c 128,-1,24
 336 -8 336 -8 304.5 -20 c 128,-1,25
 273 -32 273 -32 240 -32 c 256,26,27
 207 -32 207 -32 175.5 -20 c 128,-1,28
 144 -8 144 -8 119 16 c 128,-1,29
 94 40 94 40 79 76 c 128,-1,30
 64 112 64 112 64 160 c 2,31,-1
 64 736 l 1,32,-1
 192 736 l 1,33,-1
 192 160 l 2,34,35
 192 112 192 112 207 88 c 128,-1,36
 222 64 222 64 240 64 c 256,37,38
 258 64 258 64 273 88 c 128,-1,39
 288 112 288 112 288 160 c 2,40,-1
 288 864 l 2,0,1
EndSplineSet
EndChar

StartChar: six
Encoding: 54 54 80
Width: 480
GlyphClass: 2
Flags: W
LayerCount: 2
Fore
SplineSet
192 992 m 1,0,1
 221 1006 221 1006 248 1014 c 128,-1,2
 275 1022 275 1022 298 1022 c 0,3,4
 352 1022 352 1022 384 977.5 c 128,-1,5
 416 933 416 933 416 832 c 2,6,-1
 416 160 l 2,7,8
 416 112 416 112 401 76 c 128,-1,9
 386 40 386 40 361 16 c 128,-1,10
 336 -8 336 -8 304.5 -20 c 128,-1,11
 273 -32 273 -32 240 -32 c 256,12,13
 207 -32 207 -32 175.5 -20 c 128,-1,14
 144 -8 144 -8 119 16 c 128,-1,15
 94 40 94 40 79 76 c 128,-1,16
 64 112 64 112 64 160 c 2,17,-1
 64 1568 l 2,18,19
 64 1616 64 1616 79 1652 c 128,-1,20
 94 1688 94 1688 119 1712 c 128,-1,21
 144 1736 144 1736 175.5 1748 c 128,-1,22
 207 1760 207 1760 240 1760 c 256,23,24
 273 1760 273 1760 304.5 1748 c 128,-1,25
 336 1736 336 1736 361 1712 c 128,-1,26
 386 1688 386 1688 401 1652 c 128,-1,27
 416 1616 416 1616 416 1568 c 2,28,-1
 416 1216 l 1,29,-1
 288 1216 l 1,30,-1
 288 1568 l 2,31,32
 288 1616 288 1616 273 1640 c 128,-1,33
 258 1664 258 1664 240 1664 c 256,34,35
 222 1664 222 1664 207 1640 c 128,-1,36
 192 1616 192 1616 192 1568 c 2,37,-1
 192 992 l 1,0,1
288 832 m 2,38,39
 288 868 288 868 277.5 882 c 128,-1,40
 267 896 267 896 252 896 c 256,41,42
 237 896 237 896 220.5 886 c 128,-1,43
 204 876 204 876 192 864 c 1,44,-1
 192 160 l 2,45,46
 192 124 192 124 207 106 c 128,-1,47
 222 88 222 88 240 88 c 256,48,49
 258 88 258 88 273 106 c 128,-1,50
 288 124 288 124 288 160 c 2,51,-1
 288 832 l 2,38,39
EndSplineSet
EndChar

StartChar: seven
Encoding: 55 55 81
Width: 352
GlyphClass: 2
Flags: W
LayerCount: 2
Fore
SplineSet
64 0 m 1,0,-1
 192 1632 l 1,1,-1
 32 1632 l 1,2,-1
 32 1728 l 1,3,-1
 320 1728 l 1,4,-1
 192 0 l 1,5,-1
 64 0 l 1,0,-1
EndSplineSet
EndChar

StartChar: eight
Encoding: 56 56 82
Width: 437
GlyphClass: 2
Flags: W
LayerCount: 2
Fore
SplineSet
208 -32 m 256,0,1
 175 -32 175 -32 143.5 -20 c 128,-1,2
 112 -8 112 -8 87 16 c 128,-1,3
 62 40 62 40 47 76 c 128,-1,4
 32 112 32 112 32 160 c 2,5,-1
 32 416 l 2,6,7
 32 549 32 549 47 645 c 128,-1,8
 62 741 62 741 80 804 c 0,9,10
 101 878 101 878 128 928 c 1,11,12
 101 977 101 977 80 1040 c 0,13,14
 62 1094 62 1094 47 1170.5 c 128,-1,15
 32 1247 32 1247 32 1344 c 2,16,-1
 32 1568 l 2,17,18
 32 1616 32 1616 47 1652 c 128,-1,19
 62 1688 62 1688 87 1712 c 128,-1,20
 112 1736 112 1736 143.5 1748 c 128,-1,21
 175 1760 175 1760 208 1760 c 256,22,23
 241 1760 241 1760 272.5 1748 c 128,-1,24
 304 1736 304 1736 329 1712 c 128,-1,25
 354 1688 354 1688 369 1652 c 128,-1,26
 384 1616 384 1616 384 1568 c 2,27,-1
 384 1344 l 2,28,29
 384 1247 384 1247 369 1170.5 c 128,-1,30
 354 1094 354 1094 336 1040 c 0,31,32
 315 977 315 977 288 928 c 1,33,34
 315 878 315 878 336 804 c 0,35,36
 354 741 354 741 369 645 c 128,-1,37
 384 549 384 549 384 416 c 2,38,-1
 384 160 l 2,39,40
 384 112 384 112 369 76 c 128,-1,41
 354 40 354 40 329 16 c 128,-1,42
 304 -8 304 -8 272.5 -20 c 128,-1,43
 241 -32 241 -32 208 -32 c 256,0,1
208 1640 m 256,44,45
 190 1640 190 1640 175 1622 c 128,-1,46
 160 1604 160 1604 160 1568 c 2,47,-1
 160 1312 l 2,48,49
 160 1264 160 1264 167.5 1212.5 c 128,-1,50
 175 1161 175 1161 184 1119 c 0,51,52
 195 1070 195 1070 209 1023 c 1,53,54
 221 1070 221 1070 232 1119 c 0,55,56
 241 1161 241 1161 248.5 1212.5 c 128,-1,57
 256 1264 256 1264 256 1312 c 2,58,-1
 256 1568 l 2,59,60
 256 1604 256 1604 241 1622 c 128,-1,61
 226 1640 226 1640 208 1640 c 256,44,45
209 832 m 1,62,63
 195 768 195 768 184 702 c 0,64,65
 175 645 175 645 167.5 577.5 c 128,-1,66
 160 510 160 510 160 448 c 2,67,-1
 160 160 l 2,68,69
 160 124 160 124 175 106 c 128,-1,70
 190 88 190 88 208 88 c 256,71,72
 226 88 226 88 241 106 c 128,-1,73
 256 124 256 124 256 160 c 2,74,-1
 256 448 l 2,75,76
 256 510 256 510 248.5 577.5 c 128,-1,77
 241 645 241 645 232 702 c 0,78,79
 221 768 221 768 209 832 c 1,62,63
EndSplineSet
EndChar

StartChar: nine
Encoding: 57 57 83
Width: 480
GlyphClass: 2
Flags: W
LayerCount: 2
Fore
SplineSet
288 736 m 1,0,1
 259 722 259 722 232 714 c 128,-1,2
 205 706 205 706 182 706 c 0,3,4
 128 706 128 706 96 750.5 c 128,-1,5
 64 795 64 795 64 896 c 2,6,-1
 64 1568 l 2,7,8
 64 1616 64 1616 79 1652 c 128,-1,9
 94 1688 94 1688 119 1712 c 128,-1,10
 144 1736 144 1736 175.5 1748 c 128,-1,11
 207 1760 207 1760 240 1760 c 256,12,13
 273 1760 273 1760 304.5 1748 c 128,-1,14
 336 1736 336 1736 361 1712 c 128,-1,15
 386 1688 386 1688 401 1652 c 128,-1,16
 416 1616 416 1616 416 1568 c 2,17,-1
 416 160 l 2,18,19
 416 112 416 112 401 76 c 128,-1,20
 386 40 386 40 361 16 c 128,-1,21
 336 -8 336 -8 304.5 -20 c 128,-1,22
 273 -32 273 -32 240 -32 c 256,23,24
 207 -32 207 -32 175.5 -20 c 128,-1,25
 144 -8 144 -8 119 16 c 128,-1,26
 94 40 94 40 79 76 c 128,-1,27
 64 112 64 112 64 160 c 2,28,-1
 64 512 l 1,29,-1
 192 512 l 1,30,-1
 192 160 l 2,31,32
 192 112 192 112 207 88 c 128,-1,33
 222 64 222 64 240 64 c 256,34,35
 258 64 258 64 273 88 c 128,-1,36
 288 112 288 112 288 160 c 2,37,-1
 288 736 l 1,0,1
192 896 m 2,38,39
 192 860 192 860 202.5 846 c 128,-1,40
 213 832 213 832 228 832 c 256,41,42
 243 832 243 832 259.5 842 c 128,-1,43
 276 852 276 852 288 864 c 1,44,-1
 288 1568 l 2,45,46
 288 1604 288 1604 273 1622 c 128,-1,47
 258 1640 258 1640 240 1640 c 256,48,49
 222 1640 222 1640 207 1622 c 128,-1,50
 192 1604 192 1604 192 1568 c 2,51,-1
 192 896 l 2,38,39
EndSplineSet
EndChar

StartChar: colon
Encoding: 58 58 84
Width: 224
GlyphClass: 2
Flags: W
LayerCount: 2
Fore
SplineSet
192 1120 m 1,0,-1
 192 960 l 1,1,-1
 32 960 l 1,2,-1
 32 1120 l 1,3,-1
 192 1120 l 1,0,-1
192 448 m 1,4,-1
 192 288 l 1,5,-1
 32 288 l 1,6,-1
 32 448 l 1,7,-1
 192 448 l 1,4,-1
EndSplineSet
EndChar

StartChar: semicolon
Encoding: 59 59 85
Width: 224
GlyphClass: 2
Flags: W
LayerCount: 2
Fore
SplineSet
192 1120 m 1,0,-1
 192 960 l 1,1,-1
 32 960 l 1,2,-1
 32 1120 l 1,3,-1
 192 1120 l 1,0,-1
192 480 m 1,4,-1
 128 128 l 1,5,-1
 32 128 l 1,6,-1
 32 480 l 1,7,-1
 192 480 l 1,4,-1
EndSplineSet
EndChar

StartChar: equal
Encoding: 61 61 87
Width: 576
GlyphClass: 2
Flags: W
LayerCount: 2
Fore
SplineSet
544 512 m 1,0,-1
 32 512 l 1,1,-1
 32 640 l 1,2,-1
 544 640 l 1,3,-1
 544 512 l 1,0,-1
544 736 m 1,4,-1
 32 736 l 1,5,-1
 32 864 l 1,6,-1
 544 864 l 1,7,-1
 544 736 l 1,4,-1
EndSplineSet
EndChar

StartChar: greater
Encoding: 62 62 88
Width: 371
GlyphClass: 2
Flags: W
LayerCount: 2
Fore
SplineSet
314 876 m 1,0,-1
 31 0 l 1,1,-1
 31 391 l 1,2,-1
 178 876 l 1,3,-1
 31 1393 l 1,4,-1
 31 1761 l 1,5,-1
 314 876 l 1,0,-1
EndSplineSet
EndChar

StartChar: question
Encoding: 63 63 89
Width: 433
GlyphClass: 2
Flags: W
LayerCount: 2
Fore
SplineSet
256 256 m 1,0,-1
 128 256 l 1,1,-1
 128 544 l 2,2,3
 128 651 128 651 137.5 723 c 128,-1,4
 147 795 147 795 161 849 c 128,-1,5
 175 903 175 903 192 948.5 c 128,-1,6
 209 994 209 994 223 1047 c 128,-1,7
 237 1100 237 1100 246.5 1170 c 128,-1,8
 256 1240 256 1240 256 1344 c 2,9,-1
 256 1568 l 2,10,11
 256 1612 256 1612 241 1633.5 c 128,-1,12
 226 1655 226 1655 207 1655 c 0,13,14
 190 1655 190 1655 175 1633.5 c 128,-1,15
 160 1612 160 1612 160 1568 c 2,16,-1
 160 1120 l 1,17,-1
 32 1120 l 1,18,-1
 32 1568 l 2,19,20
 32 1616 32 1616 47 1652 c 128,-1,21
 62 1688 62 1688 87 1712 c 128,-1,22
 112 1736 112 1736 143.5 1748 c 128,-1,23
 175 1760 175 1760 208 1760 c 256,24,25
 241 1760 241 1760 272.5 1748 c 128,-1,26
 304 1736 304 1736 329 1712 c 128,-1,27
 354 1688 354 1688 369 1652 c 128,-1,28
 384 1616 384 1616 384 1568 c 2,29,-1
 384 1344 l 2,30,31
 384 1260 384 1260 378.5 1200 c 128,-1,32
 373 1140 373 1140 364 1094.5 c 128,-1,33
 355 1049 355 1049 343.5 1012.5 c 128,-1,34
 332 976 332 976 320 939.5 c 128,-1,35
 308 903 308 903 296.5 861.5 c 128,-1,36
 285 820 285 820 276 763 c 128,-1,37
 267 706 267 706 261.5 630 c 128,-1,38
 256 554 256 554 256 448 c 2,39,-1
 256 256 l 1,0,-1
256 128 m 1,40,-1
 256 0 l 1,41,-1
 128 0 l 1,42,-1
 128 128 l 1,43,-1
 256 128 l 1,40,-1
EndSplineSet
EndChar

StartChar: at
Encoding: 64 64 90
Width: 928
GlyphClass: 2
Flags: W
LayerCount: 2
Fore
SplineSet
640 288 m 2,0,1
 640 240 640 240 655 216 c 128,-1,2
 670 192 670 192 688 192 c 128,-1,3
 706 192 706 192 721 216 c 128,-1,4
 736 240 736 240 736 288 c 2,5,-1
 736 1376 l 2,6,7
 736 1442 736 1442 712.5 1491.5 c 128,-1,8
 689 1541 689 1541 651 1574 c 128,-1,9
 613 1607 613 1607 564 1623.5 c 128,-1,10
 515 1640 515 1640 464 1640 c 128,-1,11
 413 1640 413 1640 364 1623.5 c 128,-1,12
 315 1607 315 1607 277 1574 c 128,-1,13
 239 1541 239 1541 215.5 1491.5 c 128,-1,14
 192 1442 192 1442 192 1376 c 2,15,-1
 192 288 l 2,16,17
 192 198 192 198 216.5 136.5 c 128,-1,18
 241 75 241 75 283 36 c 128,-1,19
 325 -3 325 -3 380 -23.5 c 128,-1,20
 435 -44 435 -44 495.5 -53 c 128,-1,21
 556 -62 556 -62 618 -63 c 128,-1,22
 680 -64 680 -64 736 -64 c 1,23,-1
 704 -160 l 1,24,25
 632 -160 632 -160 556.5 -158 c 128,-1,26
 481 -156 481 -156 410 -143.5 c 128,-1,27
 339 -131 339 -131 276 -104 c 128,-1,28
 213 -77 213 -77 166 -27.5 c 128,-1,29
 119 22 119 22 91.5 99 c 128,-1,30
 64 176 64 176 64 288 c 2,31,-1
 64 1376 l 2,32,33
 64 1472 64 1472 98.5 1544 c 128,-1,34
 133 1616 133 1616 189 1664 c 128,-1,35
 245 1712 245 1712 317 1736 c 128,-1,36
 389 1760 389 1760 464 1760 c 128,-1,37
 539 1760 539 1760 611 1736 c 128,-1,38
 683 1712 683 1712 739 1664 c 128,-1,39
 795 1616 795 1616 829.5 1544 c 128,-1,40
 864 1472 864 1472 864 1376 c 2,41,-1
 864 288 l 2,42,43
 864 224 864 224 845 181 c 128,-1,44
 826 138 826 138 796.5 114 c 128,-1,45
 767 90 767 90 732 84 c 128,-1,46
 697 78 697 78 665 89 c 128,-1,47
 633 100 633 100 608.5 126 c 128,-1,48
 584 152 584 152 576 192 c 1,49,50
 568 152 568 152 543.5 126 c 128,-1,51
 519 100 519 100 487 89 c 128,-1,52
 455 78 455 78 420 84 c 128,-1,53
 385 90 385 90 355.5 114 c 128,-1,54
 326 138 326 138 307 181 c 128,-1,55
 288 224 288 224 288 288 c 2,56,-1
 288 1376 l 2,57,58
 288 1432 288 1432 314 1470.5 c 128,-1,59
 340 1509 340 1509 379 1529 c 128,-1,60
 418 1549 418 1549 464 1550.5 c 128,-1,61
 510 1552 510 1552 549 1533.5 c 128,-1,62
 588 1515 588 1515 614 1475.5 c 128,-1,63
 640 1436 640 1436 640 1376 c 2,64,-1
 640 288 l 2,0,1
512 1376 m 2,65,66
 512 1412 512 1412 497 1430 c 128,-1,67
 482 1448 482 1448 464 1448 c 128,-1,68
 446 1448 446 1448 431 1430 c 128,-1,69
 416 1412 416 1412 416 1376 c 2,70,-1
 416 288 l 2,71,72
 416 240 416 240 431 216 c 128,-1,73
 446 192 446 192 464 192 c 128,-1,74
 482 192 482 192 497 216 c 128,-1,75
 512 240 512 240 512 288 c 2,76,-1
 512 1376 l 2,65,66
EndSplineSet
EndChar

StartChar: A
Encoding: 65 65 91
Width: 448
GlyphClass: 2
Flags: W
LayerCount: 2
Fore
SplineSet
416 0 m 1,0,-1
 288 0 l 1,1,-1
 272 416 l 1,2,-1
 177 416 l 1,3,-1
 160 0 l 1,4,-1
 32 0 l 1,5,-1
 128 1728 l 1,6,-1
 320 1728 l 1,7,-1
 416 0 l 1,0,-1
256 896 m 1,8,-1
 224 1664 l 1,9,-1
 192 896 l 1,10,-1
 177 512 l 1,11,-1
 272 512 l 1,12,-1
 256 896 l 1,8,-1
EndSplineSet
EndChar

StartChar: B
Encoding: 66 66 92
Width: 512
GlyphClass: 2
Flags: W
LayerCount: 2
Fore
SplineSet
448 160 m 2,0,1
 448 100 448 100 426 67.5 c 128,-1,2
 404 35 404 35 368 20 c 128,-1,3
 332 5 332 5 286 2.5 c 128,-1,4
 240 0 240 0 192 0 c 2,5,-1
 64 0 l 1,6,-1
 64 1728 l 1,7,-1
 192 1728 l 2,8,9
 252 1728 252 1728 299.5 1725.5 c 128,-1,10
 347 1723 347 1723 380 1708 c 128,-1,11
 413 1693 413 1693 430.5 1660.5 c 128,-1,12
 448 1628 448 1628 448 1568 c 2,13,-1
 448 1024 l 2,14,15
 448 976 448 976 424 950 c 128,-1,16
 400 924 400 924 352 911 c 1,17,18
 400 900 400 900 424 874 c 128,-1,19
 448 848 448 848 448 800 c 2,20,-1
 448 160 l 2,0,1
192 960 m 1,21,-1
 288 960 l 2,22,23
 300 960 300 960 306.5 965.5 c 128,-1,24
 313 971 313 971 316 980 c 128,-1,25
 319 989 319 989 319.5 1000.5 c 128,-1,26
 320 1012 320 1012 320 1024 c 2,27,-1
 320 1568 l 2,28,29
 320 1592 320 1592 313.5 1605 c 128,-1,30
 307 1618 307 1618 292 1624 c 128,-1,31
 277 1630 277 1630 252.5 1631 c 128,-1,32
 228 1632 228 1632 192 1632 c 1,33,-1
 192 960 l 1,21,-1
320 800 m 2,34,35
 320 812 320 812 319.5 823.5 c 128,-1,36
 319 835 319 835 316 844 c 128,-1,37
 313 853 313 853 306.5 858.5 c 128,-1,38
 300 864 300 864 288 864 c 2,39,-1
 192 864 l 1,40,-1
 192 96 l 1,41,42
 228 96 228 96 252.5 97 c 128,-1,43
 277 98 277 98 292 104 c 128,-1,44
 307 110 307 110 313.5 123 c 128,-1,45
 320 136 320 136 320 160 c 2,46,-1
 320 800 l 2,34,35
EndSplineSet
EndChar

StartChar: C
Encoding: 67 67 93
Width: 512
GlyphClass: 2
Flags: W
LayerCount: 2
Fore
SplineSet
448 1024 m 1,0,-1
 320 1024 l 1,1,-1
 320 1568 l 2,2,3
 320 1592 320 1592 314.5 1607.5 c 128,-1,4
 309 1623 309 1623 300 1631.5 c 128,-1,5
 291 1640 291 1640 279.5 1643.5 c 128,-1,6
 268 1647 268 1647 256 1647 c 256,7,8
 244 1647 244 1647 232.5 1643.5 c 128,-1,9
 221 1640 221 1640 212 1631.5 c 128,-1,10
 203 1623 203 1623 197.5 1607.5 c 128,-1,11
 192 1592 192 1592 192 1568 c 2,12,-1
 192 160 l 2,13,14
 192 148 192 148 193 131.5 c 128,-1,15
 194 115 194 115 200 100 c 128,-1,16
 206 85 206 85 219 74.5 c 128,-1,17
 232 64 232 64 256 64 c 256,18,19
 280 64 280 64 293 74.5 c 128,-1,20
 306 85 306 85 312 100 c 128,-1,21
 318 115 318 115 319 131.5 c 128,-1,22
 320 148 320 148 320 160 c 2,23,-1
 320 832 l 1,24,-1
 448 832 l 1,25,-1
 448 160 l 2,26,27
 448 148 448 148 445 116.5 c 128,-1,28
 442 85 442 85 424 52 c 128,-1,29
 406 19 406 19 367 -6.5 c 128,-1,30
 328 -32 328 -32 256 -32 c 256,31,32
 184 -32 184 -32 145 -6.5 c 128,-1,33
 106 19 106 19 88 52 c 128,-1,34
 70 85 70 85 67 116.5 c 128,-1,35
 64 148 64 148 64 160 c 2,36,-1
 64 1568 l 2,37,38
 64 1614 64 1614 81 1647.5 c 128,-1,39
 98 1681 98 1681 125.5 1702 c 128,-1,40
 153 1723 153 1723 187 1733 c 128,-1,41
 221 1743 221 1743 256 1743 c 0,42,43
 293 1743 293 1743 327.5 1732 c 128,-1,44
 362 1721 362 1721 389 1699 c 128,-1,45
 416 1677 416 1677 432 1644 c 128,-1,46
 448 1611 448 1611 448 1568 c 2,47,-1
 448 1024 l 1,0,-1
EndSplineSet
EndChar

StartChar: D
Encoding: 68 68 94
Width: 512
GlyphClass: 2
Flags: W
LayerCount: 2
Fore
SplineSet
320 1568 m 2,0,1
 320 1592 320 1592 313.5 1605 c 128,-1,2
 307 1618 307 1618 292 1624 c 128,-1,3
 277 1630 277 1630 252.5 1631 c 128,-1,4
 228 1632 228 1632 192 1632 c 1,5,-1
 192 96 l 1,6,7
 228 96 228 96 252.5 97 c 128,-1,8
 277 98 277 98 292 104 c 128,-1,9
 307 110 307 110 313.5 123 c 128,-1,10
 320 136 320 136 320 160 c 2,11,-1
 320 1568 l 2,0,1
448 160 m 2,12,13
 448 100 448 100 426 67.5 c 128,-1,14
 404 35 404 35 368 20 c 128,-1,15
 332 5 332 5 286 2.5 c 128,-1,16
 240 0 240 0 192 0 c 2,17,-1
 64 0 l 1,18,-1
 64 1728 l 1,19,-1
 192 1728 l 2,20,21
 240 1728 240 1728 286 1725.5 c 128,-1,22
 332 1723 332 1723 368 1708 c 128,-1,23
 404 1693 404 1693 426 1660.5 c 128,-1,24
 448 1628 448 1628 448 1568 c 2,25,-1
 448 160 l 2,12,13
EndSplineSet
EndChar

StartChar: E
Encoding: 69 69 95
Width: 384
GlyphClass: 2
Flags: W
LayerCount: 2
Fore
SplineSet
352 1632 m 1,0,-1
 192 1632 l 1,1,-1
 192 960 l 1,2,-1
 320 960 l 1,3,-1
 320 864 l 1,4,-1
 192 864 l 1,5,-1
 192 96 l 1,6,-1
 352 96 l 1,7,-1
 352 0 l 1,8,-1
 64 0 l 1,9,-1
 64 1728 l 1,10,-1
 352 1728 l 1,11,-1
 352 1632 l 1,0,-1
EndSplineSet
EndChar

StartChar: F
Encoding: 70 70 96
Width: 384
GlyphClass: 2
Flags: W
LayerCount: 2
Fore
SplineSet
352 1632 m 1,0,-1
 192 1632 l 1,1,-1
 192 992 l 1,2,-1
 320 992 l 1,3,-1
 320 896 l 1,4,-1
 192 896 l 1,5,-1
 192 0 l 1,6,-1
 64 0 l 1,7,-1
 64 1728 l 1,8,-1
 352 1728 l 1,9,-1
 352 1632 l 1,0,-1
EndSplineSet
EndChar

StartChar: G
Encoding: 71 71 97
Width: 512
GlyphClass: 2
Flags: W
LayerCount: 2
Fore
SplineSet
448 1024 m 1,0,-1
 320 1024 l 1,1,-1
 320 1568 l 2,2,3
 320 1580 320 1580 319 1594 c 128,-1,4
 318 1608 318 1608 312 1619.5 c 128,-1,5
 306 1631 306 1631 293 1639 c 128,-1,6
 280 1647 280 1647 256 1647 c 256,7,8
 232 1647 232 1647 219 1639 c 128,-1,9
 206 1631 206 1631 200 1619.5 c 128,-1,10
 194 1608 194 1608 193 1594 c 128,-1,11
 192 1580 192 1580 192 1568 c 2,12,-1
 192 160 l 2,13,14
 192 148 192 148 193 131.5 c 128,-1,15
 194 115 194 115 200 100 c 128,-1,16
 206 85 206 85 219 74.5 c 128,-1,17
 232 64 232 64 256 64 c 256,18,19
 280 64 280 64 293 74.5 c 128,-1,20
 306 85 306 85 312 100 c 128,-1,21
 318 115 318 115 319 131.5 c 128,-1,22
 320 148 320 148 320 160 c 2,23,-1
 320 800 l 1,24,-1
 288 800 l 1,25,-1
 288 896 l 1,26,-1
 448 896 l 1,27,-1
 448 160 l 2,28,29
 448 148 448 148 445 116.5 c 128,-1,30
 442 85 442 85 424 52 c 128,-1,31
 406 19 406 19 367 -6.5 c 128,-1,32
 328 -32 328 -32 256 -32 c 256,33,34
 184 -32 184 -32 145 -6.5 c 128,-1,35
 106 19 106 19 88 52 c 128,-1,36
 70 85 70 85 67 116.5 c 128,-1,37
 64 148 64 148 64 160 c 2,38,-1
 64 1568 l 2,39,40
 64 1576 64 1576 65 1592 c 128,-1,41
 66 1608 66 1608 71 1627.5 c 128,-1,42
 76 1647 76 1647 88 1667.5 c 128,-1,43
 100 1688 100 1688 121 1705 c 128,-1,44
 142 1722 142 1722 175 1732.5 c 128,-1,45
 208 1743 208 1743 256 1743 c 256,46,47
 304 1743 304 1743 337 1732.5 c 128,-1,48
 370 1722 370 1722 391 1705 c 128,-1,49
 412 1688 412 1688 424 1667.5 c 128,-1,50
 436 1647 436 1647 441 1627.5 c 128,-1,51
 446 1608 446 1608 447 1592 c 128,-1,52
 448 1576 448 1576 448 1568 c 2,53,-1
 448 1024 l 1,0,-1
EndSplineSet
EndChar

StartChar: H
Encoding: 72 72 98
Width: 512
GlyphClass: 2
Flags: W
LayerCount: 2
Fore
SplineSet
192 928 m 1,0,-1
 320 928 l 1,1,-1
 320 1728 l 1,2,-1
 448 1728 l 1,3,-1
 448 0 l 1,4,-1
 320 0 l 1,5,-1
 320 832 l 1,6,-1
 192 832 l 1,7,-1
 192 0 l 1,8,-1
 64 0 l 1,9,-1
 64 1728 l 1,10,-1
 192 1728 l 1,11,-1
 192 928 l 1,0,-1
EndSplineSet
EndChar

StartChar: I
Encoding: 73 73 99
Width: 288
GlyphClass: 2
Flags: W
LayerCount: 2
Fore
SplineSet
208 1728 m 1,0,-1
 208 0 l 1,1,-1
 80 0 l 1,2,-1
 80 1728 l 1,3,-1
 208 1728 l 1,0,-1
EndSplineSet
EndChar

StartChar: J
Encoding: 74 74 100
Width: 512
GlyphClass: 2
Flags: W
LayerCount: 2
Fore
SplineSet
448 160 m 2,0,1
 445 106 445 106 424 64 c 0,2,3
 415 46 415 46 401 28.5 c 128,-1,4
 387 11 387 11 367 -2.5 c 128,-1,5
 347 -16 347 -16 319.5 -24 c 128,-1,6
 292 -32 292 -32 256 -32 c 256,7,8
 220 -32 220 -32 192.5 -24 c 128,-1,9
 165 -16 165 -16 145 -2.5 c 128,-1,10
 125 11 125 11 111 28.5 c 128,-1,11
 97 46 97 46 88 64 c 0,12,13
 67 106 67 106 64 160 c 2,14,-1
 64 832 l 1,15,-1
 192 832 l 1,16,-1
 192 160 l 2,17,18
 192 148 192 148 193 131.5 c 128,-1,19
 194 115 194 115 200 100 c 128,-1,20
 206 85 206 85 219 74.5 c 128,-1,21
 232 64 232 64 256 64 c 256,22,23
 280 64 280 64 293 74.5 c 128,-1,24
 306 85 306 85 312 100 c 128,-1,25
 318 115 318 115 319 131.5 c 128,-1,26
 320 148 320 148 320 160 c 2,27,-1
 320 1728 l 1,28,-1
 448 1728 l 1,29,-1
 448 160 l 2,0,1
EndSplineSet
EndChar

StartChar: K
Encoding: 75 75 101
Width: 480
GlyphClass: 2
Flags: W
LayerCount: 2
Fore
SplineSet
448 0 m 1,0,-1
 320 0 l 1,1,-1
 192 864 l 1,2,-1
 192 0 l 1,3,-1
 64 0 l 1,4,-1
 64 1728 l 1,5,-1
 192 1728 l 1,6,-1
 192 928 l 1,7,-1
 320 1728 l 1,8,-1
 448 1728 l 1,9,-1
 320 992 l 1,10,-1
 306 896 l 1,11,-1
 320 800 l 1,12,-1
 448 0 l 1,0,-1
EndSplineSet
EndChar

StartChar: L
Encoding: 76 76 102
Width: 384
GlyphClass: 2
Flags: W
LayerCount: 2
Fore
SplineSet
192 1728 m 1,0,-1
 192 96 l 1,1,-1
 320 96 l 1,2,-1
 320 0 l 1,3,-1
 64 0 l 1,4,-1
 64 1728 l 1,5,-1
 192 1728 l 1,0,-1
EndSplineSet
EndChar

StartChar: M
Encoding: 77 77 103
Width: 640
GlyphClass: 2
Flags: W
LayerCount: 2
Fore
SplineSet
416 1728 m 1,0,-1
 544 1728 l 1,1,-1
 576 0 l 1,2,-1
 448 0 l 1,3,-1
 448 1184 l 1,4,-1
 352 96 l 1,5,-1
 288 96 l 1,6,-1
 192 1184 l 1,7,-1
 192 0 l 1,8,-1
 64 0 l 1,9,-1
 96 1728 l 1,10,-1
 224 1728 l 1,11,-1
 320 544 l 1,12,-1
 416 1728 l 1,0,-1
EndSplineSet
EndChar

StartChar: N
Encoding: 78 78 104
Width: 512
GlyphClass: 2
Flags: W
LayerCount: 2
Fore
SplineSet
448 0 m 1,0,-1
 320 0 l 1,1,-1
 160 1280 l 1,2,-1
 160 0 l 1,3,-1
 64 0 l 1,4,-1
 64 1728 l 1,5,-1
 192 1728 l 1,6,-1
 352 448 l 1,7,-1
 352 1728 l 1,8,-1
 448 1728 l 1,9,-1
 448 0 l 1,0,-1
EndSplineSet
EndChar

StartChar: O
Encoding: 79 79 105
Width: 512
GlyphClass: 2
Flags: W
LayerCount: 2
Fore
SplineSet
448 160 m 2,0,1
 448 148 448 148 445 116.5 c 128,-1,2
 442 85 442 85 424 52 c 128,-1,3
 406 19 406 19 367 -6.5 c 128,-1,4
 328 -32 328 -32 256 -32 c 256,5,6
 184 -32 184 -32 145 -6.5 c 128,-1,7
 106 19 106 19 88 52 c 128,-1,8
 70 85 70 85 67 116.5 c 128,-1,9
 64 148 64 148 64 160 c 2,10,-1
 64 1568 l 2,11,12
 64 1576 64 1576 65 1592 c 128,-1,13
 66 1608 66 1608 71 1627.5 c 128,-1,14
 76 1647 76 1647 88 1667.5 c 128,-1,15
 100 1688 100 1688 121 1705 c 128,-1,16
 142 1722 142 1722 175 1732.5 c 128,-1,17
 208 1743 208 1743 256 1743 c 256,18,19
 304 1743 304 1743 337 1732.5 c 128,-1,20
 370 1722 370 1722 391 1705 c 128,-1,21
 412 1688 412 1688 424 1667.5 c 128,-1,22
 436 1647 436 1647 441 1627.5 c 128,-1,23
 446 1608 446 1608 447 1592 c 128,-1,24
 448 1576 448 1576 448 1568 c 2,25,-1
 448 160 l 2,0,1
192 160 m 2,26,27
 192 148 192 148 193 131.5 c 128,-1,28
 194 115 194 115 200 100 c 128,-1,29
 206 85 206 85 219 74.5 c 128,-1,30
 232 64 232 64 256 64 c 256,31,32
 280 64 280 64 293 74.5 c 128,-1,33
 306 85 306 85 312 100 c 128,-1,34
 318 115 318 115 319 131.5 c 128,-1,35
 320 148 320 148 320 160 c 2,36,-1
 320 1568 l 2,37,38
 320 1580 320 1580 319 1594 c 128,-1,39
 318 1608 318 1608 312 1619.5 c 128,-1,40
 306 1631 306 1631 293 1639 c 128,-1,41
 280 1647 280 1647 256 1647 c 256,42,43
 232 1647 232 1647 219 1639 c 128,-1,44
 206 1631 206 1631 200 1619.5 c 128,-1,45
 194 1608 194 1608 193 1594 c 128,-1,46
 192 1580 192 1580 192 1568 c 2,47,-1
 192 160 l 2,26,27
EndSplineSet
EndChar

StartChar: P
Encoding: 80 80 106
Width: 480
GlyphClass: 2
Flags: W
LayerCount: 2
Fore
SplineSet
448 992 m 2,0,1
 448 932 448 932 426 899.5 c 128,-1,2
 404 867 404 867 368 852 c 128,-1,3
 332 837 332 837 286 834.5 c 128,-1,4
 240 832 240 832 192 832 c 1,5,-1
 192 0 l 1,6,-1
 64 0 l 1,7,-1
 64 1728 l 1,8,-1
 192 1728 l 2,9,10
 288 1728 288 1728 340 1712 c 128,-1,11
 392 1696 392 1696 416 1672 c 128,-1,12
 440 1648 440 1648 444 1620 c 128,-1,13
 448 1592 448 1592 448 1568 c 2,14,-1
 448 992 l 2,0,1
320 1568 m 2,15,16
 320 1592 320 1592 313.5 1605 c 128,-1,17
 307 1618 307 1618 292 1624 c 128,-1,18
 277 1630 277 1630 252.5 1631 c 128,-1,19
 228 1632 228 1632 192 1632 c 1,20,-1
 192 928 l 1,21,22
 216 928 216 928 239 929 c 128,-1,23
 262 930 262 930 280 936 c 128,-1,24
 298 942 298 942 309 955 c 128,-1,25
 320 968 320 968 320 992 c 2,26,-1
 320 1568 l 2,15,16
EndSplineSet
EndChar

StartChar: Q
Encoding: 81 81 107
Width: 512
GlyphClass: 2
Flags: W
LayerCount: 2
Fore
SplineSet
192 1568 m 2,0,1
 192 1580 192 1580 193 1594 c 128,-1,2
 194 1608 194 1608 200 1619.5 c 128,-1,3
 206 1631 206 1631 219 1639 c 128,-1,4
 232 1647 232 1647 256 1647 c 128,-1,5
 280 1647 280 1647 293 1639 c 128,-1,6
 306 1631 306 1631 312 1619.5 c 128,-1,7
 318 1608 318 1608 319 1594 c 128,-1,8
 320 1580 320 1580 320 1568 c 2,9,-1
 320 160 l 2,10,11
 320 148 320 148 319 131.5 c 128,-1,12
 318 115 318 115 312 100 c 128,-1,13
 306 85 306 85 293 74.5 c 128,-1,14
 280 64 280 64 256 64 c 128,-1,15
 232 64 232 64 219 74.5 c 128,-1,16
 206 85 206 85 200 100 c 128,-1,17
 194 115 194 115 193 131.5 c 128,-1,18
 192 148 192 148 192 160 c 2,19,-1
 192 1568 l 2,0,1
448 1568 m 2,20,21
 448 1576 448 1576 447 1592 c 128,-1,22
 446 1608 446 1608 441 1627.5 c 128,-1,23
 436 1647 436 1647 424 1667.5 c 128,-1,24
 412 1688 412 1688 391 1705 c 128,-1,25
 370 1722 370 1722 337 1732.5 c 128,-1,26
 304 1743 304 1743 256 1743 c 128,-1,27
 208 1743 208 1743 175 1732.5 c 128,-1,28
 142 1722 142 1722 121 1705 c 128,-1,29
 100 1688 100 1688 88 1667.5 c 128,-1,30
 76 1647 76 1647 71 1627.5 c 128,-1,31
 66 1608 66 1608 65 1592 c 128,-1,32
 64 1576 64 1576 64 1568 c 2,33,-1
 64 160 l 2,34,35
 64 148 64 148 67 116.5 c 128,-1,36
 70 85 70 85 88 52 c 128,-1,37
 106 19 106 19 145 -6 c 0,38,39
 166 -20 166 -20 195 -26 c 1,40,-1
 224 -256 l 1,41,-1
 352 -256 l 1,42,-1
 323 -25 l 1,43,44
 349 -18 349 -18 367 -6 c 0,45,46
 406 19 406 19 424 52 c 128,-1,47
 442 85 442 85 445 116.5 c 128,-1,48
 448 148 448 148 448 160 c 2,49,-1
 448 1568 l 2,20,21
EndSplineSet
EndChar

StartChar: R
Encoding: 82 82 108
Width: 512
GlyphClass: 2
Flags: W
LayerCount: 2
Fore
SplineSet
448 1024 m 2,0,1
 448 952 448 952 424 924 c 128,-1,2
 400 896 400 896 352 896 c 1,3,4
 376 896 376 896 394 885 c 128,-1,5
 412 874 412 874 424 856 c 128,-1,6
 436 838 436 838 442 815 c 128,-1,7
 448 792 448 792 448 768 c 2,8,-1
 448 0 l 1,9,-1
 320 0 l 1,10,-1
 320 800 l 2,11,12
 320 824 320 824 309 837 c 128,-1,13
 298 850 298 850 280 856 c 128,-1,14
 262 862 262 862 239 863 c 128,-1,15
 216 864 216 864 192 864 c 1,16,-1
 192 0 l 1,17,-1
 64 0 l 1,18,-1
 64 1728 l 1,19,-1
 192 1728 l 2,20,21
 240 1728 240 1728 286 1725.5 c 128,-1,22
 332 1723 332 1723 368 1708 c 128,-1,23
 404 1693 404 1693 426 1660.5 c 128,-1,24
 448 1628 448 1628 448 1568 c 2,25,-1
 448 1024 l 2,0,1
320 1568 m 2,26,27
 320 1592 320 1592 313.5 1605 c 128,-1,28
 307 1618 307 1618 292 1624 c 128,-1,29
 277 1630 277 1630 252.5 1631 c 128,-1,30
 228 1632 228 1632 192 1632 c 1,31,-1
 192 928 l 1,32,33
 216 928 216 928 239 929 c 128,-1,34
 262 930 262 930 280 936 c 128,-1,35
 298 942 298 942 309 955 c 128,-1,36
 320 968 320 968 320 992 c 2,37,-1
 320 1568 l 2,26,27
EndSplineSet
EndChar

StartChar: S
Encoding: 83 83 109
Width: 448
GlyphClass: 2
Flags: W
LayerCount: 2
Fore
SplineSet
288 421 m 2,0,1
 288 527 288 527 277 603 c 128,-1,2
 266 679 266 679 248 735.5 c 128,-1,3
 230 792 230 792 207 834 c 128,-1,4
 184 876 184 876 160 913 c 128,-1,5
 136 950 136 950 113 987 c 128,-1,6
 90 1024 90 1024 72 1071 c 128,-1,7
 54 1118 54 1118 43 1179.5 c 128,-1,8
 32 1241 32 1241 32 1327 c 2,9,-1
 32 1568 l 2,10,11
 32 1592 32 1592 39.5 1622.5 c 128,-1,12
 47 1653 47 1653 68 1679.5 c 128,-1,13
 89 1706 89 1706 126.5 1724.5 c 128,-1,14
 164 1743 164 1743 224 1743 c 256,15,16
 284 1743 284 1743 321.5 1724.5 c 128,-1,17
 359 1706 359 1706 380 1679.5 c 128,-1,18
 401 1653 401 1653 408.5 1622.5 c 128,-1,19
 416 1592 416 1592 416 1568 c 2,20,-1
 416 1120 l 1,21,-1
 288 1120 l 1,22,-1
 288 1568 l 2,23,24
 288 1592 288 1592 282.5 1607.5 c 128,-1,25
 277 1623 277 1623 268 1631.5 c 128,-1,26
 259 1640 259 1640 247.5 1643.5 c 128,-1,27
 236 1647 236 1647 224 1647 c 256,28,29
 212 1647 212 1647 200.5 1643.5 c 128,-1,30
 189 1640 189 1640 180 1631.5 c 128,-1,31
 171 1623 171 1623 165.5 1607.5 c 128,-1,32
 160 1592 160 1592 160 1568 c 2,33,-1
 160 1373 l 2,34,35
 160 1260 160 1260 179 1184 c 128,-1,36
 198 1108 198 1108 226.5 1051.5 c 128,-1,37
 255 995 255 995 288 949 c 128,-1,38
 321 903 321 903 349.5 849.5 c 128,-1,39
 378 796 378 796 397 725.5 c 128,-1,40
 416 655 416 655 416 550 c 2,41,-1
 416 160 l 2,42,43
 416 148 416 148 413 116.5 c 128,-1,44
 410 85 410 85 392 52 c 128,-1,45
 374 19 374 19 335 -6.5 c 128,-1,46
 296 -32 296 -32 224 -32 c 256,47,48
 152 -32 152 -32 113 -6.5 c 128,-1,49
 74 19 74 19 56 52 c 128,-1,50
 38 85 38 85 35 116.5 c 128,-1,51
 32 148 32 148 32 160 c 2,52,-1
 32 736 l 1,53,-1
 160 736 l 1,54,-1
 160 160 l 2,55,56
 160 148 160 148 161 131.5 c 128,-1,57
 162 115 162 115 168 100 c 128,-1,58
 174 85 174 85 187 74.5 c 128,-1,59
 200 64 200 64 224 64 c 256,60,61
 248 64 248 64 261 74.5 c 128,-1,62
 274 85 274 85 280 100 c 128,-1,63
 286 115 286 115 287 131.5 c 128,-1,64
 288 148 288 148 288 160 c 2,65,-1
 288 421 l 2,0,1
EndSplineSet
EndChar

StartChar: T
Encoding: 84 84 110
Width: 448
GlyphClass: 2
Flags: W
LayerCount: 2
Fore
SplineSet
416 1728 m 1,0,-1
 416 1632 l 1,1,-1
 288 1632 l 1,2,-1
 288 0 l 1,3,-1
 160 0 l 1,4,-1
 160 1632 l 1,5,-1
 32 1632 l 1,6,-1
 32 1728 l 1,7,-1
 416 1728 l 1,0,-1
EndSplineSet
EndChar

StartChar: U
Encoding: 85 85 111
Width: 512
GlyphClass: 2
Flags: W
LayerCount: 2
Fore
SplineSet
192 160 m 2,0,1
 192 148 192 148 193 131.5 c 128,-1,2
 194 115 194 115 200 100 c 128,-1,3
 206 85 206 85 219 74.5 c 128,-1,4
 232 64 232 64 256 64 c 256,5,6
 280 64 280 64 293 74.5 c 128,-1,7
 306 85 306 85 312 100 c 128,-1,8
 318 115 318 115 319 131.5 c 128,-1,9
 320 148 320 148 320 160 c 2,10,-1
 320 1728 l 1,11,-1
 448 1728 l 1,12,-1
 448 160 l 2,13,14
 448 148 448 148 445 116.5 c 128,-1,15
 442 85 442 85 424 52 c 128,-1,16
 406 19 406 19 367 -6.5 c 128,-1,17
 328 -32 328 -32 256 -32 c 256,18,19
 184 -32 184 -32 145 -6.5 c 128,-1,20
 106 19 106 19 88 52 c 128,-1,21
 70 85 70 85 67 116.5 c 128,-1,22
 64 148 64 148 64 160 c 2,23,-1
 64 1728 l 1,24,-1
 192 1728 l 1,25,-1
 192 160 l 2,0,1
EndSplineSet
EndChar

StartChar: V
Encoding: 86 86 112
Width: 448
GlyphClass: 2
Flags: W
LayerCount: 2
Fore
SplineSet
193 1184 m 1,0,-1
 224 544 l 1,1,-1
 255 1184 l 1,2,-1
 288 1728 l 1,3,-1
 416 1728 l 1,4,-1
 288 0 l 1,5,-1
 160 0 l 1,6,-1
 32 1728 l 1,7,-1
 160 1728 l 1,8,-1
 193 1184 l 1,0,-1
EndSplineSet
EndChar

StartChar: W
Encoding: 87 87 113
Width: 704
GlyphClass: 2
Flags: W
LayerCount: 2
Fore
SplineSet
352 1472 m 1,0,-1
 320 992 l 1,1,-1
 256 0 l 1,2,-1
 128 0 l 1,3,-1
 32 1728 l 1,4,-1
 160 1728 l 1,5,-1
 192 512 l 1,6,-1
 288 1728 l 1,7,-1
 416 1728 l 1,8,-1
 512 512 l 1,9,-1
 544 1728 l 1,10,-1
 672 1728 l 1,11,-1
 576 0 l 1,12,-1
 448 0 l 1,13,-1
 384 992 l 1,14,-1
 352 1472 l 1,0,-1
EndSplineSet
EndChar

StartChar: X
Encoding: 88 88 114
Width: 416
GlyphClass: 2
Flags: W
LayerCount: 2
Fore
SplineSet
192 1280 m 1,0,-1
 209 1024 l 1,1,-1
 224 1280 l 1,2,-1
 256 1728 l 1,3,-1
 384 1728 l 1,4,-1
 288 864 l 1,5,-1
 384 0 l 1,6,-1
 256 0 l 1,7,-1
 224 448 l 1,8,-1
 208 704 l 1,9,-1
 192 448 l 1,10,-1
 160 0 l 1,11,-1
 32 0 l 1,12,-1
 128 864 l 1,13,-1
 32 1728 l 1,14,-1
 160 1728 l 1,15,-1
 192 1280 l 1,0,-1
EndSplineSet
EndChar

StartChar: Y
Encoding: 89 89 115
Width: 448
GlyphClass: 2
Flags: W
LayerCount: 2
Fore
SplineSet
192 1280 m 1,0,-1
 224 832 l 1,1,-1
 256 1280 l 1,2,-1
 288 1728 l 1,3,-1
 416 1728 l 1,4,-1
 288 608 l 1,5,-1
 288 0 l 1,6,-1
 160 0 l 1,7,-1
 160 608 l 1,8,-1
 32 1728 l 1,9,-1
 160 1728 l 1,10,-1
 192 1280 l 1,0,-1
EndSplineSet
EndChar

StartChar: Z
Encoding: 90 90 116
Width: 352
GlyphClass: 2
Flags: W
LayerCount: 2
Fore
SplineSet
320 1728 m 1,0,-1
 160 96 l 1,1,-1
 320 96 l 1,2,-1
 320 0 l 1,3,-1
 32 0 l 1,4,-1
 192 1632 l 1,5,-1
 32 1632 l 1,6,-1
 32 1728 l 1,7,-1
 320 1728 l 1,0,-1
EndSplineSet
EndChar

StartChar: backslash
Encoding: 92 92 118
Width: 324
GlyphClass: 2
Flags: W
LayerCount: 2
Fore
SplineSet
135 1761 m 1,0,-1
 324 0 l 1,1,-1
 190 0 l 1,2,-1
 1 1761 l 1,3,-1
 135 1761 l 1,0,-1
EndSplineSet
EndChar

StartChar: bracketright
Encoding: 93 93 119
Width: 392
GlyphClass: 2
Flags: W
LayerCount: 2
Fore
SplineSet
288 1856 m 1,0,-1
 288 -96 l 1,1,-1
 32 -96 l 1,2,-1
 32 0 l 1,3,-1
 160 0 l 1,4,-1
 160 1760 l 1,5,-1
 32 1760 l 1,6,-1
 32 1856 l 1,7,-1
 288 1856 l 1,0,-1
EndSplineSet
EndChar

StartChar: asciicircum
Encoding: 94 94 120
Width: 320
GlyphClass: 2
Flags: W
LayerCount: 2
Fore
SplineSet
224 1120 m 1,0,-1
 288 768 l 1,1,-1
 192 768 l 1,2,-1
 160 1024 l 1,3,-1
 128 768 l 1,4,-1
 32 768 l 1,5,-1
 96 1120 l 1,6,-1
 224 1120 l 1,0,-1
EndSplineSet
EndChar

StartChar: underscore
Encoding: 95 95 121
Width: 544
GlyphClass: 2
Flags: W
LayerCount: 2
Fore
SplineSet
544 -96 m 1,0,-1
 0 -96 l 1,1,-1
 0 0 l 1,2,-1
 544 0 l 1,3,-1
 544 -96 l 1,0,-1
EndSplineSet
EndChar

StartChar: grave
Encoding: 96 96 122
Width: 326
GlyphClass: 2
Flags: W
LayerCount: 2
Fore
SplineSet
160 512 m 1,0,-1
 288 96 l 1,1,-1
 192 96 l 1,2,-1
 0 512 l 1,3,-1
 160 512 l 1,0,-1
EndSplineSet
EndChar

StartChar: a
Encoding: 97 97 123
Width: 448
GlyphClass: 2
Flags: W
LayerCount: 2
Fore
SplineSet
416 0 m 1,0,-1
 288 0 l 1,1,-1
 268 332 l 1,2,-1
 179 332 l 1,3,-1
 160 0 l 1,4,-1
 32 0 l 1,5,-1
 160 1536 l 1,6,-1
 288 1536 l 1,7,-1
 416 0 l 1,0,-1
261 436 m 1,8,-1
 224 1216 l 1,9,-1
 186 436 l 1,10,-1
 261 436 l 1,8,-1
EndSplineSet
EndChar

StartChar: b
Encoding: 98 98 124
Width: 512
GlyphClass: 2
Flags: W
LayerCount: 2
Fore
SplineSet
192 832 m 1,0,-1
 288 832 l 2,1,2
 300 832 300 832 306.5 837.5 c 128,-1,3
 313 843 313 843 316 852 c 128,-1,4
 319 861 319 861 319.5 872.5 c 128,-1,5
 320 884 320 884 320 896 c 2,6,-1
 320 1376 l 2,7,8
 320 1400 320 1400 313.5 1413 c 128,-1,9
 307 1426 307 1426 292 1432 c 128,-1,10
 277 1438 277 1438 252.5 1439 c 128,-1,11
 228 1440 228 1440 192 1440 c 1,12,-1
 192 832 l 1,0,-1
320 672 m 2,13,14
 320 684 320 684 319.5 695.5 c 128,-1,15
 319 707 319 707 316 716 c 128,-1,16
 313 725 313 725 306.5 730.5 c 128,-1,17
 300 736 300 736 288 736 c 2,18,-1
 192 736 l 1,19,-1
 192 96 l 1,20,21
 214 96 214 96 237 97 c 128,-1,22
 260 98 260 98 278.5 103.5 c 128,-1,23
 297 109 297 109 308.5 122 c 128,-1,24
 320 135 320 135 320 160 c 2,25,-1
 320 672 l 2,13,14
448 896 m 2,26,27
 448 848 448 848 423 822 c 128,-1,28
 398 796 398 796 343 783 c 1,29,30
 398 772 398 772 423 746 c 128,-1,31
 448 720 448 720 448 672 c 2,32,-1
 448 160 l 2,33,34
 448 100 448 100 426 67.5 c 128,-1,35
 404 35 404 35 368 20 c 128,-1,36
 332 5 332 5 286 2.5 c 128,-1,37
 240 0 240 0 192 0 c 2,38,-1
 64 0 l 1,39,-1
 64 1536 l 1,40,-1
 192 1536 l 2,41,42
 252 1536 252 1536 299.5 1533.5 c 128,-1,43
 347 1531 347 1531 380 1516 c 128,-1,44
 413 1501 413 1501 430.5 1468.5 c 128,-1,45
 448 1436 448 1436 448 1376 c 2,46,-1
 448 896 l 2,26,27
EndSplineSet
EndChar

StartChar: c
Encoding: 99 99 125
Width: 512
GlyphClass: 2
Flags: W
LayerCount: 2
Fore
SplineSet
448 896 m 1,0,-1
 320 896 l 1,1,-1
 320 1392 l 2,2,3
 320 1426 320 1426 303 1440.5 c 128,-1,4
 286 1455 286 1455 264 1455 c 0,5,6
 251 1455 251 1455 238.5 1450.5 c 128,-1,7
 226 1446 226 1446 215.5 1437.5 c 128,-1,8
 205 1429 205 1429 198.5 1417.5 c 128,-1,9
 192 1406 192 1406 192 1392 c 2,10,-1
 192 144 l 2,11,12
 192 130 192 130 198.5 118 c 128,-1,13
 205 106 205 106 215.5 97.5 c 128,-1,14
 226 89 226 89 238.5 84.5 c 128,-1,15
 251 80 251 80 264 80 c 0,16,17
 286 80 286 80 303 95 c 128,-1,18
 320 110 320 110 320 144 c 2,19,-1
 320 704 l 1,20,-1
 448 704 l 1,21,-1
 448 144 l 2,22,23
 448 104 448 104 431 73.5 c 128,-1,24
 414 43 414 43 387 22.5 c 128,-1,25
 360 2 360 2 325 -8.5 c 128,-1,26
 290 -19 290 -19 254 -19 c 256,27,28
 218 -19 218 -19 184 -9 c 128,-1,29
 150 1 150 1 123 21.5 c 128,-1,30
 96 42 96 42 80 72.5 c 128,-1,31
 64 103 64 103 64 144 c 2,32,-1
 64 1392 l 2,33,34
 64 1432 64 1432 80.5 1463 c 128,-1,35
 97 1494 97 1494 124 1514 c 128,-1,36
 151 1534 151 1534 186 1544.5 c 128,-1,37
 221 1555 221 1555 257 1555 c 256,38,39
 293 1555 293 1555 327 1545 c 128,-1,40
 361 1535 361 1535 388 1514.5 c 128,-1,41
 415 1494 415 1494 431.5 1463.5 c 128,-1,42
 448 1433 448 1433 448 1392 c 2,43,-1
 448 896 l 1,0,-1
EndSplineSet
EndChar

StartChar: d
Encoding: 100 100 126
Width: 512
GlyphClass: 2
Flags: W
LayerCount: 2
Fore
SplineSet
320 1410 m 2,0,1
 320 1429 320 1429 302 1434 c 0,2,3
 285 1440 285 1440 192 1440 c 1,4,-1
 192 96 l 1,5,6
 285 96 285 96 302 102 c 0,7,8
 320 108 320 108 320 127 c 2,9,-1
 320 1410 l 2,0,1
448 135 m 2,10,11
 448 84 448 84 426.5 56.5 c 128,-1,12
 405 29 405 29 363 16 c 0,13,14
 343 10 343 10 314 6.5 c 128,-1,15
 285 3 285 3 234 1 c 0,16,17
 183 0 183 0 144 0 c 2,18,-1
 64 0 l 1,19,-1
 64 1536 l 1,20,21
 105 1536 105 1536 146.5 1535.5 c 128,-1,22
 188 1535 188 1535 231 1534 c 0,23,24
 319 1532 319 1532 361 1521 c 0,25,26
 404 1509 404 1509 426 1482.5 c 128,-1,27
 448 1456 448 1456 448 1407 c 2,28,-1
 448 135 l 2,10,11
EndSplineSet
EndChar

StartChar: e
Encoding: 101 101 127
Width: 352
GlyphClass: 2
Flags: W
LayerCount: 2
Fore
SplineSet
320 1440 m 1,0,-1
 192 1440 l 1,1,-1
 192 864 l 1,2,-1
 320 864 l 1,3,-1
 320 768 l 1,4,-1
 192 768 l 1,5,-1
 192 96 l 1,6,-1
 320 96 l 1,7,-1
 320 0 l 1,8,-1
 64 0 l 1,9,-1
 64 1536 l 1,10,-1
 320 1536 l 1,11,-1
 320 1440 l 1,0,-1
EndSplineSet
EndChar

StartChar: f
Encoding: 102 102 128
Width: 368
GlyphClass: 2
Flags: W
LayerCount: 2
Fore
SplineSet
352 1440 m 1,0,-1
 192 1440 l 1,1,-1
 192 864 l 1,2,-1
 320 864 l 1,3,-1
 320 768 l 1,4,-1
 192 768 l 1,5,-1
 192 0 l 1,6,-1
 64 0 l 1,7,-1
 64 1536 l 1,8,-1
 352 1536 l 1,9,-1
 352 1440 l 1,0,-1
EndSplineSet
EndChar

StartChar: g
Encoding: 103 103 129
Width: 480
GlyphClass: 2
Flags: W
LayerCount: 2
Fore
SplineSet
192 144 m 2,0,1
 192 108 192 108 207 94 c 128,-1,2
 222 80 222 80 240 80 c 256,3,4
 258 80 258 80 273 94 c 128,-1,5
 288 108 288 108 288 144 c 2,6,-1
 288 672 l 1,7,-1
 256 672 l 1,8,-1
 256 768 l 1,9,-1
 416 768 l 1,10,-1
 416 144 l 2,11,12
 416 102 416 102 401 71.5 c 128,-1,13
 386 41 386 41 361 21.5 c 128,-1,14
 336 2 336 2 304.5 -7 c 128,-1,15
 273 -16 273 -16 240 -16 c 256,16,17
 207 -16 207 -16 175.5 -7 c 128,-1,18
 144 2 144 2 119 21.5 c 128,-1,19
 94 41 94 41 79 71.5 c 128,-1,20
 64 102 64 102 64 144 c 2,21,-1
 64 1408 l 2,22,23
 64 1450 64 1450 79 1480.5 c 128,-1,24
 94 1511 94 1511 119 1530.5 c 128,-1,25
 144 1550 144 1550 175.5 1559 c 128,-1,26
 207 1568 207 1568 240 1568 c 256,27,28
 273 1568 273 1568 304.5 1559 c 128,-1,29
 336 1550 336 1550 361 1530.5 c 128,-1,30
 386 1511 386 1511 401 1481 c 128,-1,31
 416 1451 416 1451 416 1409 c 2,32,-1
 416 896 l 1,33,-1
 288 896 l 1,34,-1
 288 1409 l 2,35,36
 288 1445 288 1445 273 1458.5 c 128,-1,37
 258 1472 258 1472 240 1472 c 256,38,39
 222 1472 222 1472 207 1458.5 c 128,-1,40
 192 1445 192 1445 192 1409 c 2,41,-1
 192 144 l 2,0,1
EndSplineSet
EndChar

StartChar: h
Encoding: 104 104 130
Width: 512
GlyphClass: 2
Flags: W
LayerCount: 2
Fore
SplineSet
320 1536 m 1,0,-1
 448 1536 l 1,1,-1
 448 0 l 1,2,-1
 320 0 l 1,3,-1
 320 746 l 1,4,-1
 192 746 l 1,5,-1
 192 0 l 1,6,-1
 64 0 l 1,7,-1
 64 1536 l 1,8,-1
 192 1536 l 1,9,-1
 192 846 l 1,10,-1
 320 846 l 1,11,-1
 320 1536 l 1,0,-1
EndSplineSet
EndChar

StartChar: i
Encoding: 105 105 131
Width: 288
GlyphClass: 2
Flags: W
LayerCount: 2
Fore
SplineSet
208 1536 m 1,0,-1
 208 0 l 1,1,-1
 80 0 l 1,2,-1
 80 1536 l 1,3,-1
 208 1536 l 1,0,-1
EndSplineSet
EndChar

StartChar: j
Encoding: 106 106 132
Width: 480
GlyphClass: 2
Flags: W
LayerCount: 2
Fore
SplineSet
416 144 m 2,0,1
 416 102 416 102 401 71.5 c 128,-1,2
 386 41 386 41 361 21.5 c 128,-1,3
 336 2 336 2 304.5 -7 c 128,-1,4
 273 -16 273 -16 240 -16 c 256,5,6
 207 -16 207 -16 175.5 -7 c 128,-1,7
 144 2 144 2 119 21.5 c 128,-1,8
 94 41 94 41 79 71.5 c 128,-1,9
 64 102 64 102 64 144 c 2,10,-1
 64 704 l 1,11,-1
 192 704 l 1,12,-1
 192 144 l 2,13,14
 192 108 192 108 207 94 c 128,-1,15
 222 80 222 80 240 80 c 256,16,17
 258 80 258 80 273 94 c 128,-1,18
 288 108 288 108 288 144 c 2,19,-1
 288 1536 l 1,20,-1
 416 1536 l 1,21,-1
 416 144 l 2,0,1
EndSplineSet
EndChar

StartChar: k
Encoding: 107 107 133
Width: 448
GlyphClass: 2
Flags: W
LayerCount: 2
Fore
SplineSet
416 0 m 1,0,-1
 288 0 l 1,1,-1
 192 704 l 1,2,-1
 192 0 l 1,3,-1
 64 0 l 1,4,-1
 64 1536 l 1,5,-1
 192 1536 l 1,6,-1
 192 832 l 1,7,-1
 288 1536 l 1,8,-1
 416 1536 l 1,9,-1
 305 768 l 1,10,-1
 416 0 l 1,0,-1
EndSplineSet
EndChar

StartChar: l
Encoding: 108 108 134
Width: 320
GlyphClass: 2
Flags: W
LayerCount: 2
Fore
SplineSet
192 1536 m 1,0,-1
 192 96 l 1,1,-1
 320 96 l 1,2,-1
 320 0 l 1,3,-1
 64 0 l 1,4,-1
 64 1536 l 1,5,-1
 192 1536 l 1,0,-1
EndSplineSet
EndChar

StartChar: m
Encoding: 109 109 135
Width: 576
GlyphClass: 2
Flags: W
LayerCount: 2
Fore
SplineSet
399 1536 m 1,0,-1
 512 1536 l 1,1,-1
 512 0 l 1,2,-1
 400 0 l 1,3,-1
 400 928 l 1,4,-1
 313 64 l 1,5,-1
 263 64 l 1,6,-1
 176 928 l 1,7,-1
 176 0 l 1,8,-1
 64 0 l 1,9,-1
 64 1536 l 1,10,-1
 177 1536 l 1,11,-1
 288 608 l 1,12,-1
 399 1536 l 1,0,-1
EndSplineSet
EndChar

StartChar: n
Encoding: 110 110 136
Width: 512
GlyphClass: 2
Flags: W
LayerCount: 2
Fore
SplineSet
448 0 m 1,0,-1
 352 0 l 1,1,-1
 176 896 l 1,2,-1
 176 0 l 1,3,-1
 64 0 l 1,4,-1
 64 1536 l 1,5,-1
 160 1536 l 1,6,-1
 337 608 l 1,7,-1
 337 1536 l 1,8,-1
 448 1536 l 1,9,-1
 448 0 l 1,0,-1
EndSplineSet
EndChar

StartChar: o
Encoding: 111 111 137
Width: 512
GlyphClass: 2
Flags: W
LayerCount: 2
Fore
SplineSet
448 144 m 2,0,1
 448 102 448 102 432.5 71.5 c 128,-1,2
 417 41 417 41 391 21 c 128,-1,3
 365 1 365 1 332 -8.5 c 128,-1,4
 299 -18 299 -18 264 -18 c 0,5,6
 227 -18 227 -18 191 -7.5 c 128,-1,7
 155 3 155 3 127 23.5 c 128,-1,8
 99 44 99 44 81.5 74.5 c 128,-1,9
 64 105 64 105 64 144 c 2,10,-1
 64 1392 l 2,11,12
 64 1430 64 1430 81.5 1459.5 c 128,-1,13
 99 1489 99 1489 127.5 1509 c 128,-1,14
 156 1529 156 1529 192 1539.5 c 128,-1,15
 228 1550 228 1550 265 1550 c 0,16,17
 300 1550 300 1550 333 1540.5 c 128,-1,18
 366 1531 366 1531 391.5 1511.5 c 128,-1,19
 417 1492 417 1492 432.5 1462 c 128,-1,20
 448 1432 448 1432 448 1392 c 2,21,-1
 448 144 l 2,0,1
320 1392 m 2,22,23
 320 1426 320 1426 303.5 1440.5 c 128,-1,24
 287 1455 287 1455 265 1455 c 0,25,26
 252 1455 252 1455 239 1450.5 c 128,-1,27
 226 1446 226 1446 215.5 1437.5 c 128,-1,28
 205 1429 205 1429 198.5 1417.5 c 128,-1,29
 192 1406 192 1406 192 1392 c 2,30,-1
 192 144 l 2,31,32
 192 130 192 130 198.5 118 c 128,-1,33
 205 106 205 106 215.5 98 c 128,-1,34
 226 90 226 90 238.5 85.5 c 128,-1,35
 251 81 251 81 264 81 c 0,36,37
 286 81 286 81 303 95.5 c 128,-1,38
 320 110 320 110 320 144 c 2,39,-1
 320 1392 l 2,22,23
EndSplineSet
EndChar

StartChar: p
Encoding: 112 112 138
Width: 480
GlyphClass: 2
Flags: W
LayerCount: 2
Fore
SplineSet
448 864 m 2,0,1
 448 804 448 804 426 771.5 c 128,-1,2
 404 739 404 739 368 724 c 128,-1,3
 332 709 332 709 286 706.5 c 128,-1,4
 240 704 240 704 192 704 c 1,5,-1
 192 0 l 1,6,-1
 64 0 l 1,7,-1
 64 1536 l 1,8,-1
 224 1536 l 2,9,10
 309 1536 309 1536 354.5 1520 c 128,-1,11
 400 1504 400 1504 421 1480 c 128,-1,12
 442 1456 442 1456 445 1428 c 128,-1,13
 448 1400 448 1400 448 1376 c 2,14,-1
 448 864 l 2,0,1
320 1376 m 2,15,16
 320 1400 320 1400 313.5 1413 c 128,-1,17
 307 1426 307 1426 292 1432 c 128,-1,18
 277 1438 277 1438 252.5 1439 c 128,-1,19
 228 1440 228 1440 192 1440 c 1,20,-1
 192 800 l 1,21,22
 216 800 216 800 239 801.5 c 128,-1,23
 262 803 262 803 280 812 c 128,-1,24
 298 821 298 821 309 840.5 c 128,-1,25
 320 860 320 860 320 896 c 2,26,-1
 320 1376 l 2,15,16
EndSplineSet
EndChar

StartChar: q
Encoding: 113 113 139
Width: 512
GlyphClass: 2
Flags: W
LayerCount: 2
Fore
SplineSet
192 64 m 1,0,-1
 320 64 l 1,1,-1
 384 -192 l 1,2,-1
 256 -192 l 1,3,-1
 192 64 l 1,0,-1
448 144 m 2,4,5
 448 102 448 102 432.5 71.5 c 128,-1,6
 417 41 417 41 391 21 c 128,-1,7
 365 1 365 1 332 -8.5 c 128,-1,8
 299 -18 299 -18 264 -18 c 0,9,10
 227 -18 227 -18 191 -7.5 c 128,-1,11
 155 3 155 3 127 23.5 c 128,-1,12
 99 44 99 44 81.5 74.5 c 128,-1,13
 64 105 64 105 64 144 c 2,14,-1
 64 1392 l 2,15,16
 64 1430 64 1430 81.5 1459.5 c 128,-1,17
 99 1489 99 1489 127.5 1509 c 128,-1,18
 156 1529 156 1529 192 1539.5 c 128,-1,19
 228 1550 228 1550 265 1550 c 0,20,21
 300 1550 300 1550 333 1540.5 c 128,-1,22
 366 1531 366 1531 391.5 1511.5 c 128,-1,23
 417 1492 417 1492 432.5 1462 c 128,-1,24
 448 1432 448 1432 448 1392 c 2,25,-1
 448 144 l 2,4,5
320 1392 m 2,26,27
 320 1426 320 1426 303.5 1440.5 c 128,-1,28
 287 1455 287 1455 265 1455 c 0,29,30
 252 1455 252 1455 239 1450.5 c 128,-1,31
 226 1446 226 1446 215.5 1437.5 c 128,-1,32
 205 1429 205 1429 198.5 1417.5 c 128,-1,33
 192 1406 192 1406 192 1392 c 2,34,-1
 192 144 l 2,35,36
 192 130 192 130 198.5 118 c 128,-1,37
 205 106 205 106 215.5 98 c 128,-1,38
 226 90 226 90 238.5 85.5 c 128,-1,39
 251 81 251 81 264 81 c 0,40,41
 286 81 286 81 303 95.5 c 128,-1,42
 320 110 320 110 320 144 c 2,43,-1
 320 1392 l 2,26,27
EndSplineSet
EndChar

StartChar: r
Encoding: 114 114 140
Width: 480
GlyphClass: 2
Flags: W
LayerCount: 2
Fore
SplineSet
416 896 m 2,0,1
 416 848 416 848 392 822 c 128,-1,2
 368 796 368 796 320 785 c 1,3,4
 368 772 368 772 392 746 c 128,-1,5
 416 720 416 720 416 672 c 2,6,-1
 416 0 l 1,7,-1
 288 0 l 1,8,-1
 288 672 l 2,9,10
 288 696 288 696 282 709 c 128,-1,11
 276 722 276 722 264 728 c 128,-1,12
 252 734 252 734 234 735 c 128,-1,13
 216 736 216 736 192 736 c 1,14,-1
 192 0 l 1,15,-1
 64 0 l 1,16,-1
 64 1536 l 1,17,-1
 208 1536 l 2,18,19
 273 1536 273 1536 319.5 1525.5 c 128,-1,20
 366 1515 366 1515 391 1488.5 c 128,-1,21
 416 1462 416 1462 416 1408 c 2,22,-1
 416 896 l 2,0,1
288 1376 m 2,23,24
 288 1400 288 1400 282 1413 c 128,-1,25
 276 1426 276 1426 264 1432 c 128,-1,26
 252 1438 252 1438 234 1439 c 128,-1,27
 216 1440 216 1440 192 1440 c 1,28,-1
 192 832 l 1,29,30
 216 832 216 832 234 833 c 128,-1,31
 252 834 252 834 264 840 c 128,-1,32
 276 846 276 846 282 859 c 128,-1,33
 288 872 288 872 288 896 c 2,34,-1
 288 1376 l 2,23,24
EndSplineSet
EndChar

StartChar: s
Encoding: 115 115 141
Width: 480
GlyphClass: 2
Flags: W
LayerCount: 2
Fore
SplineSet
416 992 m 1,0,-1
 288 992 l 1,1,-1
 288 1392 l 2,2,3
 288 1428 288 1428 273 1442 c 128,-1,4
 258 1456 258 1456 240 1456 c 256,5,6
 222 1456 222 1456 207 1442 c 128,-1,7
 192 1428 192 1428 192 1392 c 0,8,9
 192 1285 192 1285 202 1195 c 128,-1,10
 212 1105 212 1105 228 1029 c 128,-1,11
 244 953 244 953 264 890.5 c 128,-1,12
 284 828 284 828 304 776 c 0,13,14
 320 735 320 735 339.5 681 c 128,-1,15
 359 627 359 627 376 552 c 128,-1,16
 393 477 393 477 404.5 377 c 128,-1,17
 416 277 416 277 416 144 c 0,18,19
 416 102 416 102 401 71.5 c 128,-1,20
 386 41 386 41 361 21.5 c 128,-1,21
 336 2 336 2 304.5 -7 c 128,-1,22
 273 -16 273 -16 240 -16 c 256,23,24
 207 -16 207 -16 175.5 -7 c 128,-1,25
 144 2 144 2 119 21.5 c 128,-1,26
 94 41 94 41 79 71.5 c 128,-1,27
 64 102 64 102 64 144 c 2,28,-1
 64 544 l 1,29,-1
 192 544 l 1,30,-1
 192 144 l 2,31,32
 192 108 192 108 207 94 c 128,-1,33
 222 80 222 80 240 80 c 256,34,35
 258 80 258 80 273 94 c 128,-1,36
 288 108 288 108 288 144 c 0,37,38
 288 273 288 273 275.5 370.5 c 128,-1,39
 263 468 263 468 244 542.5 c 128,-1,40
 225 617 225 617 202.5 673 c 128,-1,41
 180 729 180 729 161 776 c 0,42,43
 142 822 142 822 124.5 881 c 128,-1,44
 107 940 107 940 93.5 1015 c 128,-1,45
 80 1090 80 1090 72 1183.5 c 128,-1,46
 64 1277 64 1277 64 1392 c 0,47,48
 64 1434 64 1434 79 1464 c 128,-1,49
 94 1494 94 1494 119 1513.5 c 128,-1,50
 144 1533 144 1533 175.5 1542.5 c 128,-1,51
 207 1552 207 1552 240 1552 c 256,52,53
 273 1552 273 1552 304.5 1542.5 c 128,-1,54
 336 1533 336 1533 361 1513.5 c 128,-1,55
 386 1494 386 1494 401 1464 c 128,-1,56
 416 1434 416 1434 416 1392 c 2,57,-1
 416 992 l 1,0,-1
EndSplineSet
EndChar

StartChar: t
Encoding: 116 116 142
Width: 416
GlyphClass: 2
Flags: W
LayerCount: 2
Fore
SplineSet
400 1536 m 1,0,-1
 400 1440 l 1,1,-1
 272 1440 l 1,2,-1
 272 0 l 1,3,-1
 144 0 l 1,4,-1
 144 1440 l 1,5,-1
 16 1440 l 1,6,-1
 16 1536 l 1,7,-1
 400 1536 l 1,0,-1
EndSplineSet
EndChar

StartChar: u
Encoding: 117 117 143
Width: 480
GlyphClass: 2
Flags: W
LayerCount: 2
Fore
SplineSet
288 1536 m 1,0,-1
 416 1536 l 1,1,-1
 416 144 l 2,2,3
 416 102 416 102 401 71.5 c 128,-1,4
 386 41 386 41 361 21.5 c 128,-1,5
 336 2 336 2 304.5 -7 c 128,-1,6
 273 -16 273 -16 240 -16 c 256,7,8
 207 -16 207 -16 175.5 -7 c 128,-1,9
 144 2 144 2 119 21.5 c 128,-1,10
 94 41 94 41 79 71.5 c 128,-1,11
 64 102 64 102 64 144 c 2,12,-1
 64 1536 l 1,13,-1
 192 1536 l 1,14,-1
 192 144 l 2,15,16
 192 108 192 108 207 94 c 128,-1,17
 222 80 222 80 240 80 c 256,18,19
 258 80 258 80 273 94 c 128,-1,20
 288 108 288 108 288 144 c 2,21,-1
 288 1536 l 1,0,-1
EndSplineSet
EndChar

StartChar: v
Encoding: 118 118 144
Width: 416
GlyphClass: 2
Flags: W
LayerCount: 2
Fore
SplineSet
192 832 m 1,0,-1
 209 160 l 1,1,-1
 224 832 l 1,2,-1
 256 1536 l 1,3,-1
 384 1536 l 1,4,-1
 288 0 l 1,5,-1
 128 0 l 1,6,-1
 32 1536 l 1,7,-1
 160 1536 l 1,8,-1
 192 832 l 1,0,-1
EndSplineSet
EndChar

StartChar: w
Encoding: 119 119 145
Width: 640
GlyphClass: 2
Flags: W
LayerCount: 2
Fore
SplineSet
448 191 m 1,0,-1
 448 832 l 1,1,-1
 480 1536 l 1,2,-1
 608 1536 l 1,3,-1
 512 0 l 1,4,-1
 384 0 l 1,5,-1
 352 608 l 1,6,-1
 320 1280 l 1,7,-1
 288 608 l 1,8,-1
 256 0 l 1,9,-1
 128 0 l 1,10,-1
 32 1536 l 1,11,-1
 160 1536 l 1,12,-1
 192 832 l 1,13,-1
 192 191 l 1,14,-1
 224 832 l 1,15,-1
 256 1536 l 1,16,-1
 384 1536 l 1,17,-1
 416 832 l 1,18,-1
 448 191 l 1,0,-1
EndSplineSet
EndChar

StartChar: x
Encoding: 120 120 146
Width: 416
GlyphClass: 2
Flags: W
LayerCount: 2
Fore
SplineSet
224 1088 m 1,0,-1
 256 1536 l 1,1,-1
 384 1536 l 1,2,-1
 288 736 l 1,3,-1
 384 0 l 1,4,-1
 256 0 l 1,5,-1
 224 384 l 1,6,-1
 208 640 l 1,7,-1
 192 384 l 1,8,-1
 160 0 l 1,9,-1
 32 0 l 1,10,-1
 128 736 l 1,11,-1
 32 1536 l 1,12,-1
 160 1536 l 1,13,-1
 192 1088 l 1,14,-1
 208 832 l 1,15,-1
 224 1088 l 1,0,-1
EndSplineSet
EndChar

StartChar: y
Encoding: 121 121 147
Width: 448
GlyphClass: 2
Flags: W
LayerCount: 2
Fore
SplineSet
256 1152 m 1,0,-1
 288 1536 l 1,1,-1
 416 1536 l 1,2,-1
 288 512 l 1,3,-1
 288 0 l 1,4,-1
 160 0 l 1,5,-1
 160 512 l 1,6,-1
 32 1536 l 1,7,-1
 160 1536 l 1,8,-1
 192 1152 l 1,9,-1
 224 736 l 1,10,-1
 256 1152 l 1,0,-1
EndSplineSet
EndChar

StartChar: z
Encoding: 122 122 148
Width: 320
GlyphClass: 2
Flags: W
LayerCount: 2
Fore
SplineSet
288 1536 m 1,0,-1
 168 96 l 1,1,-1
 288 96 l 1,2,-1
 288 0 l 1,3,-1
 32 0 l 1,4,-1
 160 1440 l 1,5,-1
 32 1440 l 1,6,-1
 32 1536 l 1,7,-1
 288 1536 l 1,0,-1
EndSplineSet
EndChar

StartChar: braceleft
Encoding: 123 123 149
Width: 348
GlyphClass: 2
Flags: W
LayerCount: 2
Fore
SplineSet
338 1876 m 1,0,-1
 338 1758 l 1,1,-1
 189 1758 l 1,2,-1
 189 6 l 1,3,-1
 338 6 l 1,4,-1
 338 -109 l 1,5,-1
 55 -109 l 1,6,-1
 55 1876 l 1,7,-1
 338 1876 l 1,0,-1
EndSplineSet
EndChar

StartChar: bar
Encoding: 124 124 150
Width: 247
GlyphClass: 2
Flags: W
LayerCount: 2
Fore
SplineSet
192 1882 m 1,0,-1
 192 -120 l 1,1,-1
 58 -120 l 1,2,-1
 58 1882 l 1,3,-1
 192 1882 l 1,0,-1
EndSplineSet
EndChar

StartChar: braceright
Encoding: 125 125 151
Width: 392
GlyphClass: 2
Flags: W
LayerCount: 2
Fore
SplineSet
282 1876 m 1,0,-1
 282 -109 l 1,1,-1
 -1 -109 l 1,2,-1
 -1 6 l 1,3,-1
 145 6 l 1,4,-1
 145 1758 l 1,5,-1
 -1 1758 l 1,6,-1
 -1 1876 l 1,7,-1
 282 1876 l 1,0,-1
EndSplineSet
EndChar

StartChar: cent
Encoding: 162 162 155
Width: 430
GlyphClass: 2
Flags: W
LayerCount: 2
Fore
SplineSet
250 1686 m 1,0,-1
 250 1542 l 1,1,2
 278 1538 278 1538 302.5 1526.5 c 128,-1,3
 327 1515 327 1515 346 1498.5 c 128,-1,4
 365 1482 365 1482 376.5 1460.5 c 128,-1,5
 388 1439 388 1439 389 1415 c 2,6,-1
 389 888 l 1,7,-1
 258 888 l 1,8,-1
 258 1412 l 2,9,10
 255 1426 255 1426 244.5 1435 c 128,-1,11
 234 1444 234 1444 224 1444 c 0,12,13
 207 1444 207 1444 196.5 1435 c 128,-1,14
 186 1426 186 1426 186 1412 c 2,15,-1
 186 109 l 2,16,17
 186 101 186 101 196.5 92.5 c 128,-1,18
 207 84 207 84 224 84 c 0,19,20
 234 84 234 84 244.5 92.5 c 128,-1,21
 255 101 255 101 258 109 c 2,22,-1
 258 713 l 1,23,-1
 389 713 l 1,24,-1
 389 109 l 2,25,26
 388 86 388 86 376.5 64 c 128,-1,27
 365 42 365 42 346 25 c 128,-1,28
 327 8 327 8 302.5 -3.5 c 128,-1,29
 278 -15 278 -15 250 -18 c 1,30,-1
 250 -155 l 1,31,-1
 193 -155 l 1,32,-1
 193 -18 l 1,33,34
 164 -15 164 -15 138.5 -3.5 c 128,-1,35
 113 8 113 8 94 25 c 128,-1,36
 75 42 75 42 63.5 64 c 128,-1,37
 52 86 52 86 52 109 c 2,38,-1
 52 1412 l 2,39,40
 52 1436 52 1436 63.5 1458 c 128,-1,41
 75 1480 75 1480 94 1497.5 c 128,-1,42
 113 1515 113 1515 138.5 1526.5 c 128,-1,43
 164 1538 164 1538 193 1542 c 1,44,-1
 193 1686 l 1,45,-1
 250 1686 l 1,0,-1
EndSplineSet
EndChar

StartChar: sterling
Encoding: 163 163 156
Width: 548
GlyphClass: 2
Flags: W
LayerCount: 2
Fore
SplineSet
36 968 m 1,0,-1
 145 968 l 1,1,-1
 145 1637 l 2,2,3
 145 1667 145 1667 160 1694 c 128,-1,4
 175 1721 175 1721 199.5 1741 c 128,-1,5
 224 1761 224 1761 256.5 1772.5 c 128,-1,6
 289 1784 289 1784 325 1784 c 0,7,8
 363 1784 363 1784 396.5 1772 c 128,-1,9
 430 1760 430 1760 455 1739.5 c 128,-1,10
 480 1719 480 1719 494.5 1692 c 128,-1,11
 509 1665 509 1665 509 1635 c 2,12,-1
 509 1319 l 1,13,-1
 373 1319 l 1,14,-1
 373 1638 l 2,15,16
 373 1655 373 1655 358.5 1667 c 128,-1,17
 344 1679 344 1679 325 1679 c 0,18,19
 304 1679 304 1679 291.5 1667 c 128,-1,20
 279 1655 279 1655 279 1638 c 2,21,-1
 279 968 l 1,22,-1
 507 968 l 1,23,-1
 507 862 l 1,24,-1
 279 862 l 1,25,-1
 279 383 l 2,26,27
 279 302 279 302 263 249 c 128,-1,28
 247 196 247 196 228 165 c 0,29,30
 205 126 205 126 175 106 c 1,31,-1
 507 106 l 1,32,-1
 507 0 l 1,33,-1
 18 0 l 1,34,-1
 18 106 l 1,35,36
 35 117 35 117 51.5 131.5 c 128,-1,37
 68 146 68 146 82 165 c 0,38,39
 106 196 106 196 125.5 248.5 c 128,-1,40
 145 301 145 301 145 382 c 2,41,-1
 145 862 l 1,42,-1
 36 862 l 1,43,-1
 36 968 l 1,0,-1
EndSplineSet
EndChar

StartChar: currency
Encoding: 164 164 157
Width: 524
GlyphClass: 2
Flags: W
LayerCount: 2
Fore
SplineSet
419 801 m 1,0,-1
 355 869 l 1,1,2
 311 845 311 845 261 845 c 0,3,4
 209 845 209 845 166 869 c 1,5,-1
 102 800 l 1,6,-1
 29 862 l 1,7,-1
 107 952 l 1,8,9
 103 964 103 964 100 976 c 128,-1,10
 97 988 97 988 97 1000 c 2,11,-1
 97 1542 l 2,12,13
 97 1557 97 1557 100.5 1571 c 128,-1,14
 104 1585 104 1585 111 1599 c 1,15,16
 109 1604 109 1604 96 1620.5 c 128,-1,17
 83 1637 83 1637 69 1655 c 2,18,-1
 29 1700 l 1,19,-1
 102 1761 l 1,20,-1
 172 1676 l 1,21,22
 193 1686 193 1686 214.5 1691.5 c 128,-1,23
 236 1697 236 1697 261 1697 c 256,24,25
 286 1697 286 1697 307.5 1691.5 c 128,-1,26
 329 1686 329 1686 350 1676 c 1,27,-1
 421 1764 l 1,28,-1
 494 1700 l 1,29,-1
 409 1598 l 1,30,31
 422 1576 422 1576 422 1545 c 2,32,-1
 422 996 l 2,33,34
 422 976 422 976 413 954 c 1,35,-1
 494 862 l 1,36,-1
 419 801 l 1,0,-1
298 1566 m 2,37,38
 298 1582 298 1582 287.5 1591.5 c 128,-1,39
 277 1601 277 1601 261 1601 c 0,40,41
 246 1601 246 1601 233 1591.5 c 128,-1,42
 220 1582 220 1582 220 1566 c 2,43,-1
 220 975 l 2,44,45
 220 967 220 967 230.5 955.5 c 128,-1,46
 241 944 241 944 261 944 c 0,47,48
 277 944 277 944 287.5 952.5 c 128,-1,49
 298 961 298 961 298 975 c 2,50,-1
 298 1566 l 2,37,38
EndSplineSet
EndChar

StartChar: yen
Encoding: 165 165 158
Width: 445
GlyphClass: 2
Flags: W
LayerCount: 2
Fore
SplineSet
436 636 m 1,0,-1
 288 636 l 1,1,-1
 288 560 l 1,2,-1
 436 560 l 1,3,-1
 436 449 l 1,4,-1
 288 449 l 1,5,-1
 288 0 l 1,6,-1
 154 0 l 1,7,-1
 154 449 l 1,8,-1
 7 449 l 1,9,-1
 7 560 l 1,10,-1
 154 560 l 1,11,-1
 154 636 l 1,12,-1
 7 636 l 1,13,-1
 7 746 l 1,14,-1
 145 746 l 1,15,-1
 15 1761 l 1,16,-1
 156 1761 l 1,17,-1
 222 1023 l 1,18,-1
 288 1761 l 1,19,-1
 422 1761 l 1,20,-1
 295 746 l 1,21,-1
 436 746 l 1,22,-1
 436 636 l 1,0,-1
EndSplineSet
EndChar

StartChar: brokenbar
Encoding: 166 166 159
Width: 254
GlyphClass: 2
Flags: W
LayerCount: 2
Fore
SplineSet
193 806 m 1,0,-1
 193 0 l 1,1,-1
 60 0 l 1,2,-1
 60 806 l 1,3,-1
 193 806 l 1,0,-1
193 1761 m 1,4,-1
 193 888 l 1,5,-1
 60 888 l 1,6,-1
 60 1761 l 1,7,-1
 193 1761 l 1,4,-1
EndSplineSet
EndChar

StartChar: section
Encoding: 167 167 160
Width: 412
GlyphClass: 2
Flags: W
LayerCount: 2
Fore
SplineSet
24 932 m 0,0,1
 24 1005 24 1005 38 1053.5 c 128,-1,2
 52 1102 52 1102 72.5 1131 c 128,-1,3
 93 1160 93 1160 117.5 1174.5 c 128,-1,4
 142 1189 142 1189 163 1195 c 1,5,6
 138 1240 138 1240 113 1286.5 c 128,-1,7
 88 1333 88 1333 68.5 1388.5 c 128,-1,8
 49 1444 49 1444 37 1513 c 128,-1,9
 25 1582 25 1582 25 1673 c 0,10,11
 25 1705 25 1705 41 1730.5 c 128,-1,12
 57 1756 57 1756 82 1773.5 c 128,-1,13
 107 1791 107 1791 138 1800 c 128,-1,14
 169 1809 169 1809 199 1809 c 0,15,16
 230 1809 230 1809 261 1800 c 128,-1,17
 292 1791 292 1791 316.5 1774 c 128,-1,18
 341 1757 341 1757 356 1732 c 128,-1,19
 371 1707 371 1707 371 1674 c 2,20,-1
 371 1390 l 1,21,-1
 241 1390 l 1,22,-1
 241 1673 l 2,23,24
 241 1689 241 1689 229 1698 c 128,-1,25
 217 1707 217 1707 199 1707 c 256,26,27
 181 1707 181 1707 169 1698 c 128,-1,28
 157 1689 157 1689 157 1673 c 0,29,30
 157 1576 157 1576 174 1502.5 c 128,-1,31
 191 1429 191 1429 216.5 1369 c 128,-1,32
 242 1309 242 1309 271.5 1257 c 128,-1,33
 301 1205 301 1205 326.5 1150.5 c 128,-1,34
 352 1096 352 1096 369 1033.5 c 128,-1,35
 386 971 386 971 386 890 c 0,36,37
 386 818 386 818 372.5 770 c 128,-1,38
 359 722 359 722 339 692 c 128,-1,39
 319 662 319 662 294.5 647 c 128,-1,40
 270 632 270 632 248 626 c 1,41,42
 272 581 272 581 296.5 531 c 128,-1,43
 321 481 321 481 341 420.5 c 128,-1,44
 361 360 361 360 373.5 287.5 c 128,-1,45
 386 215 386 215 386 126 c 0,46,47
 386 93 386 93 370 67 c 128,-1,48
 354 41 354 41 329 24 c 128,-1,49
 304 7 304 7 273 -2 c 128,-1,50
 242 -11 242 -11 212 -11 c 0,51,52
 181 -11 181 -11 150.5 -2.5 c 128,-1,53
 120 6 120 6 95.5 23 c 128,-1,54
 71 40 71 40 56 65 c 128,-1,55
 41 90 41 90 41 123 c 2,56,-1
 41 421 l 1,57,-1
 169 421 l 1,58,-1
 169 126 l 2,59,60
 169 108 169 108 181 99 c 128,-1,61
 193 90 193 90 212 90 c 0,62,63
 230 90 230 90 242 99 c 128,-1,64
 254 108 254 108 254 126 c 0,65,66
 254 223 254 223 237 297.5 c 128,-1,67
 220 372 220 372 194.5 435 c 128,-1,68
 169 498 169 498 139 553 c 128,-1,69
 109 608 109 608 83.5 665 c 128,-1,70
 58 722 58 722 41 786.5 c 128,-1,71
 24 851 24 851 24 932 c 0,0,1
145 942 m 0,72,73
 145 873 145 873 160 820 c 128,-1,74
 175 767 175 767 199 717 c 1,75,76
 207 719 207 719 218.5 726.5 c 128,-1,77
 230 734 230 734 240.5 752 c 128,-1,78
 251 770 251 770 258 800.5 c 128,-1,79
 265 831 265 831 265 880 c 0,80,81
 265 949 265 949 250.5 1003.5 c 128,-1,82
 236 1058 236 1058 212 1109 c 1,83,84
 204 1107 204 1107 192.5 1098.5 c 128,-1,85
 181 1090 181 1090 170.5 1071.5 c 128,-1,86
 160 1053 160 1053 152.5 1021.5 c 128,-1,87
 145 990 145 990 145 942 c 0,72,73
EndSplineSet
EndChar

StartChar: dieresis
Encoding: 168 168 161
Width: 587
GlyphClass: 2
Flags: W
LayerCount: 2
Fore
SplineSet
461 235 m 1,0,-1
 461 76 l 1,1,-1
 318 76 l 1,2,-1
 318 235 l 1,3,-1
 461 235 l 1,0,-1
260 235 m 1,4,-1
 260 76 l 1,5,-1
 115 76 l 1,6,-1
 115 235 l 1,7,-1
 260 235 l 1,4,-1
EndSplineSet
EndChar

StartChar: copyright
Encoding: 169 169 162
Width: 1474
GlyphClass: 2
Flags: W
LayerCount: 2
Fore
SplineSet
906 1150 m 1,0,-1
 776 1150 l 1,1,-1
 776 1412 l 2,2,3
 776 1419 776 1419 771 1424.5 c 128,-1,4
 766 1430 766 1430 759 1434.5 c 128,-1,5
 752 1439 752 1439 744.5 1441.5 c 128,-1,6
 737 1444 737 1444 732 1444 c 0,7,8
 716 1444 716 1444 701 1435 c 128,-1,9
 686 1426 686 1426 686 1412 c 2,10,-1
 686 711 l 2,11,12
 686 702 686 702 700 693 c 128,-1,13
 714 684 714 684 732 684 c 0,14,15
 746 684 746 684 761 693 c 128,-1,16
 776 702 776 702 776 711 c 2,17,-1
 776 975 l 1,18,-1
 906 975 l 1,19,-1
 906 711 l 2,20,21
 906 685 906 685 890.5 661.5 c 128,-1,22
 875 638 875 638 850.5 620 c 128,-1,23
 826 602 826 602 794.5 591.5 c 128,-1,24
 763 581 763 581 732 581 c 0,25,26
 697 581 697 581 664.5 591.5 c 128,-1,27
 632 602 632 602 607.5 620 c 128,-1,28
 583 638 583 638 568 661.5 c 128,-1,29
 553 685 553 685 553 711 c 2,30,-1
 553 1412 l 2,31,32
 553 1440 553 1440 568 1464 c 128,-1,33
 583 1488 583 1488 607.5 1506 c 128,-1,34
 632 1524 632 1524 664.5 1534.5 c 128,-1,35
 697 1545 697 1545 732 1545 c 0,36,37
 763 1545 763 1545 794.5 1535 c 128,-1,38
 826 1525 826 1525 850.5 1507 c 128,-1,39
 875 1489 875 1489 890.5 1465.5 c 128,-1,40
 906 1442 906 1442 906 1415 c 2,41,-1
 906 1150 l 1,0,-1
24 1068 m 256,42,43
 24 1166 24 1166 49.5 1257 c 128,-1,44
 75 1348 75 1348 121.5 1427.5 c 128,-1,45
 168 1507 168 1507 233 1572 c 128,-1,46
 298 1637 298 1637 377.5 1683.5 c 128,-1,47
 457 1730 457 1730 548 1755.5 c 128,-1,48
 639 1781 639 1781 737 1781 c 256,49,50
 835 1781 835 1781 926 1755.5 c 128,-1,51
 1017 1730 1017 1730 1096 1683.5 c 128,-1,52
 1175 1637 1175 1637 1240.5 1572 c 128,-1,53
 1306 1507 1306 1507 1352.5 1427.5 c 128,-1,54
 1399 1348 1399 1348 1424.5 1257 c 128,-1,55
 1450 1166 1450 1166 1450 1068 c 256,56,57
 1450 970 1450 970 1424.5 879 c 128,-1,58
 1399 788 1399 788 1352.5 709 c 128,-1,59
 1306 630 1306 630 1240.5 564.5 c 128,-1,60
 1175 499 1175 499 1096 452.5 c 128,-1,61
 1017 406 1017 406 926 380.5 c 128,-1,62
 835 355 835 355 737 355 c 256,63,64
 639 355 639 355 548 380.5 c 128,-1,65
 457 406 457 406 377.5 452.5 c 128,-1,66
 298 499 298 499 233 564.5 c 128,-1,67
 168 630 168 630 121.5 709 c 128,-1,68
 75 788 75 788 49.5 879 c 128,-1,69
 24 970 24 970 24 1068 c 256,42,43
156 1068 m 0,70,71
 156 946 156 946 201 838.5 c 128,-1,72
 246 731 246 731 324.5 651 c 128,-1,73
 403 571 403 571 509 524.5 c 128,-1,74
 615 478 615 478 737 478 c 0,75,76
 818 478 818 478 892.5 499 c 128,-1,77
 967 520 967 520 1031.5 558.5 c 128,-1,78
 1096 597 1096 597 1149 651 c 128,-1,79
 1202 705 1202 705 1239.5 770.5 c 128,-1,80
 1277 836 1277 836 1297.5 911 c 128,-1,81
 1318 986 1318 986 1318 1068 c 0,82,83
 1318 1149 1318 1149 1297.5 1224 c 128,-1,84
 1277 1299 1277 1299 1239.5 1365 c 128,-1,85
 1202 1431 1202 1431 1149 1484.5 c 128,-1,86
 1096 1538 1096 1538 1031.5 1577 c 128,-1,87
 967 1616 967 1616 892.5 1637 c 128,-1,88
 818 1658 818 1658 737 1658 c 0,89,90
 655 1658 655 1658 580.5 1637 c 128,-1,91
 506 1616 506 1616 441.5 1577 c 128,-1,92
 377 1538 377 1538 324.5 1484.5 c 128,-1,93
 272 1431 272 1431 234.5 1365 c 128,-1,94
 197 1299 197 1299 176.5 1224 c 128,-1,95
 156 1149 156 1149 156 1068 c 0,70,71
EndSplineSet
EndChar

StartChar: guillemotleft
Encoding: 171 171 164
Width: 574
GlyphClass: 2
Flags: W
LayerCount: 2
Fore
SplineSet
556 1460 m 1,0,-1
 556 1176 l 1,1,-1
 409 881 l 1,2,-1
 556 608 l 1,3,-1
 556 301 l 1,4,-1
 273 881 l 1,5,-1
 556 1460 l 1,0,-1
324 1460 m 1,6,-1
 324 1176 l 1,7,-1
 177 881 l 1,8,-1
 324 608 l 1,9,-1
 324 301 l 1,10,-1
 41 881 l 1,11,-1
 324 1460 l 1,6,-1
EndSplineSet
EndChar

StartChar: logicalnot
Encoding: 172 172 165
Width: 1006
GlyphClass: 2
Flags: W
LayerCount: 2
Fore
SplineSet
982 1159 m 1,0,-1
 982 1060 l 1,1,-1
 150 1060 l 1,2,-1
 150 722 l 1,3,-1
 24 722 l 1,4,-1
 24 1161 l 1,5,-1
 982 1159 l 1,0,-1
EndSplineSet
EndChar

StartChar: registered
Encoding: 174 174 167
Width: 1474
GlyphClass: 2
Flags: W
LayerCount: 2
Fore
SplineSet
897 1204 m 2,0,1
 897 1165 897 1165 884.5 1140.5 c 128,-1,2
 872 1116 872 1116 857 1102 c 0,3,4
 839 1084 839 1084 819 1075 c 1,5,6
 830 1071 830 1071 839.5 1065.5 c 128,-1,7
 849 1060 849 1060 857 1053 c 0,8,9
 872 1039 872 1039 884.5 1018 c 128,-1,10
 897 997 897 997 897 962 c 2,11,-1
 897 597 l 1,12,-1
 777 597 l 1,13,-1
 777 999 l 2,14,15
 777 1009 777 1009 774 1016 c 128,-1,16
 771 1023 771 1023 761.5 1027 c 128,-1,17
 752 1031 752 1031 735 1033 c 128,-1,18
 718 1035 718 1035 690 1035 c 1,19,-1
 690 597 l 1,20,-1
 567 597 l 1,21,-1
 567 1560 l 1,22,23
 645 1560 645 1560 706.5 1558.5 c 128,-1,24
 768 1557 768 1557 810 1545 c 128,-1,25
 852 1533 852 1533 874.5 1507 c 128,-1,26
 897 1481 897 1481 897 1433 c 2,27,-1
 897 1204 l 2,0,1
765 1433 m 2,28,29
 765 1453 765 1453 746.5 1457.5 c 128,-1,30
 728 1462 728 1462 689 1462 c 1,31,-1
 689 1109 l 1,32,33
 728 1109 728 1109 746.5 1113 c 128,-1,34
 765 1117 765 1117 765 1139 c 2,35,-1
 765 1433 l 2,28,29
24 1068 m 256,36,37
 24 1166 24 1166 49.5 1257 c 128,-1,38
 75 1348 75 1348 121.5 1427.5 c 128,-1,39
 168 1507 168 1507 233 1572 c 128,-1,40
 298 1637 298 1637 377.5 1683.5 c 128,-1,41
 457 1730 457 1730 548 1755.5 c 128,-1,42
 639 1781 639 1781 737 1781 c 256,43,44
 835 1781 835 1781 926 1755.5 c 128,-1,45
 1017 1730 1017 1730 1096 1683.5 c 128,-1,46
 1175 1637 1175 1637 1240.5 1572 c 128,-1,47
 1306 1507 1306 1507 1352.5 1427.5 c 128,-1,48
 1399 1348 1399 1348 1424.5 1257 c 128,-1,49
 1450 1166 1450 1166 1450 1068 c 256,50,51
 1450 970 1450 970 1424.5 879 c 128,-1,52
 1399 788 1399 788 1352.5 709 c 128,-1,53
 1306 630 1306 630 1240.5 564.5 c 128,-1,54
 1175 499 1175 499 1096 452.5 c 128,-1,55
 1017 406 1017 406 926 380.5 c 128,-1,56
 835 355 835 355 737 355 c 256,57,58
 639 355 639 355 548 380.5 c 128,-1,59
 457 406 457 406 377.5 452.5 c 128,-1,60
 298 499 298 499 233 564.5 c 128,-1,61
 168 630 168 630 121.5 709 c 128,-1,62
 75 788 75 788 49.5 879 c 128,-1,63
 24 970 24 970 24 1068 c 256,36,37
156 1068 m 0,64,65
 156 946 156 946 201 838.5 c 128,-1,66
 246 731 246 731 324.5 651 c 128,-1,67
 403 571 403 571 509 524.5 c 128,-1,68
 615 478 615 478 737 478 c 0,69,70
 818 478 818 478 892.5 499 c 128,-1,71
 967 520 967 520 1031.5 558.5 c 128,-1,72
 1096 597 1096 597 1149 651 c 128,-1,73
 1202 705 1202 705 1239.5 770.5 c 128,-1,74
 1277 836 1277 836 1297.5 911 c 128,-1,75
 1318 986 1318 986 1318 1068 c 0,76,77
 1318 1149 1318 1149 1297.5 1224 c 128,-1,78
 1277 1299 1277 1299 1239.5 1365 c 128,-1,79
 1202 1431 1202 1431 1149 1484.5 c 128,-1,80
 1096 1538 1096 1538 1031.5 1577 c 128,-1,81
 967 1616 967 1616 892.5 1637 c 128,-1,82
 818 1658 818 1658 737 1658 c 0,83,84
 655 1658 655 1658 580.5 1637 c 128,-1,85
 506 1616 506 1616 441.5 1577 c 128,-1,86
 377 1538 377 1538 324.5 1484.5 c 128,-1,87
 272 1431 272 1431 234.5 1365 c 128,-1,88
 197 1299 197 1299 176.5 1224 c 128,-1,89
 156 1149 156 1149 156 1068 c 0,64,65
EndSplineSet
EndChar

StartChar: macron
Encoding: 175 175 168
Width: 326
GlyphClass: 2
Flags: W
LayerCount: 2
Fore
SplineSet
327 87 m 1,0,-1
 0 87 l 1,1,-1
 0 192 l 1,2,-1
 327 192 l 1,3,-1
 327 87 l 1,0,-1
EndSplineSet
EndChar

StartChar: uni00B2
Encoding: 178 178 171
Width: 464
GlyphClass: 2
Flags: W
LayerCount: 2
Fore
SplineSet
52 1277 m 2,0,1
 52 1307 52 1307 65 1334 c 128,-1,2
 78 1361 78 1361 102 1380.5 c 128,-1,3
 126 1400 126 1400 159.5 1411.5 c 128,-1,4
 193 1423 193 1423 234 1423 c 0,5,6
 274 1423 274 1423 310.5 1409.5 c 128,-1,7
 347 1396 347 1396 373.5 1372 c 128,-1,8
 400 1348 400 1348 412.5 1315 c 128,-1,9
 425 1282 425 1282 418 1243 c 0,10,11
 361 940 361 940 319.5 727.5 c 128,-1,12
 278 515 278 515 252 380 c 2,13,-1
 200 121 l 1,14,-1
 418 121 l 1,15,-1
 418 0 l 1,16,-1
 53 0 l 1,17,18
 67 69 67 69 83.5 149 c 128,-1,19
 100 229 100 229 118 322 c 0,20,21
 150 482 150 482 192 709.5 c 128,-1,22
 234 937 234 937 284 1237 c 0,23,24
 292 1277 292 1277 273 1291 c 0,25,26
 256 1305 256 1305 234 1305 c 0,27,28
 213 1305 213 1305 199.5 1294 c 128,-1,29
 186 1283 186 1283 186 1267 c 2,30,-1
 186 927 l 1,31,-1
 52 927 l 1,32,-1
 52 1277 l 2,0,1
EndSplineSet
EndChar

StartChar: uni00B3
Encoding: 179 179 172
Width: 439
GlyphClass: 2
Flags: W
LayerCount: 2
Fore
SplineSet
52 1295 m 2,0,1
 52 1322 52 1322 66 1345.5 c 128,-1,2
 80 1369 80 1369 103 1386.5 c 128,-1,3
 126 1404 126 1404 155.5 1414 c 128,-1,4
 185 1424 185 1424 217 1424 c 0,5,6
 251 1424 251 1424 282 1414 c 128,-1,7
 313 1404 313 1404 336.5 1386.5 c 128,-1,8
 360 1369 360 1369 374 1345 c 128,-1,9
 388 1321 388 1321 388 1293 c 2,10,-1
 388 860 l 2,11,12
 388 837 388 837 382 822.5 c 128,-1,13
 376 808 376 808 370 798 c 2,14,-1
 352 780 l 1,15,16
 362 775 362 775 370 765 c 0,17,18
 376 756 376 756 382 740.5 c 128,-1,19
 388 725 388 725 388 701 c 2,20,-1
 388 100 l 2,21,22
 388 72 388 72 374 48 c 128,-1,23
 360 24 360 24 336.5 6.5 c 128,-1,24
 313 -11 313 -11 282 -21 c 128,-1,25
 251 -31 251 -31 217 -31 c 0,26,27
 185 -31 185 -31 155.5 -21 c 128,-1,28
 126 -11 126 -11 103 6 c 128,-1,29
 80 23 80 23 66 46.5 c 128,-1,30
 52 70 52 70 52 97 c 2,31,-1
 52 505 l 1,32,-1
 181 505 l 1,33,-1
 181 120 l 2,34,35
 181 100 181 100 188 85 c 128,-1,36
 195 70 195 70 217 70 c 0,37,38
 233 70 233 70 241 77 c 128,-1,39
 249 84 249 84 252 95 c 128,-1,40
 255 106 255 106 254.5 118.5 c 128,-1,41
 254 131 254 131 254 142 c 2,42,-1
 254 681 l 2,43,44
 254 701 254 701 248.5 714.5 c 128,-1,45
 243 728 243 728 219 728 c 2,46,-1
 150 728 l 1,47,-1
 150 832 l 1,48,-1
 219 832 l 2,49,50
 243 832 243 832 248.5 843 c 128,-1,51
 254 854 254 854 254 873 c 2,52,-1
 254 1249 l 2,53,54
 254 1259 254 1259 254.5 1272 c 128,-1,55
 255 1285 255 1285 252.5 1296.5 c 128,-1,56
 250 1308 250 1308 242 1316 c 128,-1,57
 234 1324 234 1324 217 1324 c 0,58,59
 195 1324 195 1324 188 1308.5 c 128,-1,60
 181 1293 181 1293 181 1274 c 2,61,-1
 181 1009 l 1,62,-1
 52 1009 l 1,63,-1
 52 1295 l 2,0,1
EndSplineSet
EndChar

StartChar: acute
Encoding: 180 180 173
Width: 326
GlyphClass: 2
Flags: W
LayerCount: 2
Fore
SplineSet
288 512 m 1,0,-1
 96 96 l 1,1,-1
 0 96 l 1,2,-1
 128 512 l 1,3,-1
 288 512 l 1,0,-1
EndSplineSet
EndChar

StartChar: uni00B5
Encoding: 181 181 174
AltUni2: 0003bc.ffffffff.0 0003bc.ffffffff.0
Width: 442
GlyphClass: 2
Flags: W
LayerCount: 2
Fore
SplineSet
53 1520 m 1,0,-1
 187 1520 l 1,1,-1
 187 112 l 2,2,3
 187 99 187 99 197 90.5 c 128,-1,4
 207 82 207 82 220 82 c 0,5,6
 234 82 234 82 244.5 90.5 c 128,-1,7
 255 99 255 99 255 112 c 2,8,-1
 255 1520 l 1,9,-1
 389 1520 l 1,10,-1
 389 107 l 2,11,12
 389 80 389 80 376.5 57 c 128,-1,13
 364 34 364 34 344 16.5 c 128,-1,14
 324 -1 324 -1 297.5 -11 c 128,-1,15
 271 -21 271 -21 244 -21 c 0,16,17
 235 -21 235 -21 224.5 -15 c 128,-1,18
 214 -9 214 -9 206 -3 c 0,19,20
 196 3 196 3 187 13 c 1,21,-1
 187 -112 l 1,22,-1
 53 -112 l 1,23,-1
 53 1520 l 1,0,-1
EndSplineSet
EndChar

StartChar: paragraph
Encoding: 182 182 175
Width: 649
GlyphClass: 2
Flags: W
LayerCount: 2
Fore
SplineSet
55 1600 m 2,0,1
 55 1638 55 1638 70 1668 c 128,-1,2
 85 1698 85 1698 110 1718.5 c 128,-1,3
 135 1739 135 1739 168 1750 c 128,-1,4
 201 1761 201 1761 238 1761 c 2,5,-1
 593 1761 l 1,6,-1
 593 0 l 1,7,-1
 457 0 l 1,8,-1
 457 826 l 1,9,-1
 419 826 l 1,10,-1
 419 0 l 1,11,-1
 279 0 l 1,12,-1
 279 825 l 1,13,14
 167 825 167 825 111 858 c 128,-1,15
 55 891 55 891 55 976 c 2,16,-1
 55 1600 l 2,0,1
EndSplineSet
EndChar

StartChar: periodcentered
Encoding: 183 183 176
Width: 238
GlyphClass: 2
Flags: W
LayerCount: 2
Fore
SplineSet
204 961 m 1,0,-1
 204 777 l 1,1,-1
 21 777 l 1,2,-1
 21 961 l 1,3,-1
 204 961 l 1,0,-1
EndSplineSet
EndChar

StartChar: cedilla
Encoding: 184 184 177
Width: 326
GlyphClass: 2
Flags: W
LayerCount: 2
Fore
SplineSet
71 -409 m 1,0,-1
 129 0 l 1,1,-1
 235 0 l 1,2,-1
 235 -409 l 1,3,-1
 71 -409 l 1,0,-1
EndSplineSet
EndChar

StartChar: uni00B9
Encoding: 185 185 178
Width: 402
GlyphClass: 2
Flags: W
LayerCount: 2
Fore
SplineSet
13 115 m 1,0,-1
 141 115 l 1,1,-1
 141 1280 l 1,2,-1
 13 1280 l 1,3,-1
 13 1397 l 1,4,-1
 277 1397 l 1,5,-1
 277 115 l 1,6,-1
 389 115 l 1,7,-1
 389 0 l 1,8,-1
 13 0 l 1,9,-1
 13 115 l 1,0,-1
EndSplineSet
EndChar

StartChar: onequarter
Encoding: 188 188 181
Width: 1122
GlyphClass: 2
Flags: W
LayerCount: 2
Fore
SplineSet
1080 795 m 1,0,-1
 1080 0 l 1,1,-1
 946 0 l 1,2,-1
 946 359 l 1,3,-1
 690 359 l 1,4,-1
 834 1397 l 1,5,-1
 967 1397 l 1,6,-1
 827 470 l 1,7,-1
 946 470 l 1,8,-1
 946 795 l 1,9,-1
 1080 795 l 1,0,-1
740 1761 m 1,10,-1
 550 0 l 1,11,-1
 416 0 l 1,12,-1
 605 1761 l 1,13,-1
 740 1761 l 1,10,-1
33 479 m 1,14,-1
 160 479 l 1,15,-1
 160 1643 l 1,16,-1
 33 1643 l 1,17,-1
 33 1760 l 1,18,-1
 296 1760 l 1,19,-1
 296 479 l 1,20,-1
 408 479 l 1,21,-1
 408 364 l 1,22,-1
 33 364 l 1,23,-1
 33 479 l 1,14,-1
EndSplineSet
EndChar

StartChar: threequarters
Encoding: 190 190 183
Width: 1087
GlyphClass: 2
Flags: W
LayerCount: 2
Fore
SplineSet
39 1632 m 2,0,1
 39 1659 39 1659 52.5 1682.5 c 128,-1,2
 66 1706 66 1706 89 1723.5 c 128,-1,3
 112 1741 112 1741 141.5 1751 c 128,-1,4
 171 1761 171 1761 204 1761 c 0,5,6
 238 1761 238 1761 269 1751 c 128,-1,7
 300 1741 300 1741 323.5 1723.5 c 128,-1,8
 347 1706 347 1706 360.5 1682 c 128,-1,9
 374 1658 374 1658 374 1631 c 2,10,-1
 374 1197 l 2,11,12
 374 1174 374 1174 368 1159.5 c 128,-1,13
 362 1145 362 1145 356 1135 c 0,14,15
 348 1124 348 1124 338 1117 c 1,16,17
 350 1112 350 1112 356 1103 c 0,18,19
 362 1093 362 1093 368 1077.5 c 128,-1,20
 374 1062 374 1062 374 1038 c 2,21,-1
 374 437 l 2,22,23
 374 409 374 409 360.5 385 c 128,-1,24
 347 361 347 361 323.5 343.5 c 128,-1,25
 300 326 300 326 269 316 c 128,-1,26
 238 306 238 306 204 306 c 0,27,28
 171 306 171 306 141.5 316 c 128,-1,29
 112 326 112 326 89 343 c 128,-1,30
 66 360 66 360 52.5 383.5 c 128,-1,31
 39 407 39 407 39 434 c 2,32,-1
 39 842 l 1,33,-1
 169 842 l 1,34,-1
 169 457 l 2,35,36
 169 437 169 437 175.5 422 c 128,-1,37
 182 407 182 407 204 407 c 0,38,39
 220 407 220 407 228 414 c 128,-1,40
 236 421 236 421 239 432 c 128,-1,41
 242 443 242 443 241.5 455.5 c 128,-1,42
 241 468 241 468 241 479 c 2,43,-1
 241 1018 l 2,44,45
 241 1038 241 1038 235.5 1052 c 128,-1,46
 230 1066 230 1066 206 1066 c 2,47,-1
 136 1066 l 1,48,-1
 136 1169 l 1,49,-1
 206 1169 l 2,50,51
 230 1169 230 1169 235.5 1180 c 128,-1,52
 241 1191 241 1191 241 1210 c 2,53,-1
 241 1586 l 2,54,55
 241 1596 241 1596 241.5 1609 c 128,-1,56
 242 1622 242 1622 239.5 1633.5 c 128,-1,57
 237 1645 237 1645 229 1653 c 128,-1,58
 221 1661 221 1661 204 1661 c 0,59,60
 182 1661 182 1661 175.5 1646 c 128,-1,61
 169 1631 169 1631 169 1611 c 2,62,-1
 169 1346 l 1,63,-1
 39 1346 l 1,64,-1
 39 1632 l 2,0,1
1042 795 m 1,65,-1
 1042 0 l 1,66,-1
 909 0 l 1,67,-1
 909 359 l 1,68,-1
 653 359 l 1,69,-1
 797 1397 l 1,70,-1
 930 1397 l 1,71,-1
 789 470 l 1,72,-1
 909 470 l 1,73,-1
 909 795 l 1,74,-1
 1042 795 l 1,65,-1
720 1761 m 1,75,-1
 531 0 l 1,76,-1
 397 0 l 1,77,-1
 587 1761 l 1,78,-1
 720 1761 l 1,75,-1
EndSplineSet
EndChar

StartChar: AE
Encoding: 198 198 185
Width: 590
GlyphClass: 2
Flags: W
LayerCount: 2
Fore
SplineSet
581 1644 m 1,0,-1
 408 1644 l 1,1,-1
 406 996 l 1,2,-1
 537 996 l 1,3,-1
 537 876 l 1,4,-1
 406 876 l 1,5,-1
 406 112 l 1,6,-1
 581 112 l 1,7,-1
 581 0 l 1,8,-1
 274 0 l 1,9,-1
 268 383 l 1,10,-1
 190 383 l 1,11,-1
 144 0 l 1,12,-1
 6 0 l 1,13,-1
 213 1761 l 1,14,-1
 581 1761 l 1,15,-1
 581 1644 l 1,0,-1
267 502 m 1,16,-1
 295 1472 l 1,17,-1
 202 502 l 1,18,-1
 267 502 l 1,16,-1
EndSplineSet
EndChar

StartChar: Eth
Encoding: 208 208 187
Width: 487
GlyphClass: 2
Flags: W
LayerCount: 2
Fore
SplineSet
428 165 m 2,0,1
 428 124 428 124 411.5 93.5 c 128,-1,2
 395 63 395 63 367.5 42 c 128,-1,3
 340 21 340 21 305 10.5 c 128,-1,4
 270 0 270 0 234 0 c 2,5,-1
 59 0 l 1,6,-1
 59 815 l 1,7,-1
 12 815 l 1,8,-1
 12 937 l 1,9,-1
 59 937 l 1,10,-1
 59 1761 l 1,11,-1
 234 1761 l 2,12,13
 267 1761 267 1761 301.5 1751.5 c 128,-1,14
 336 1742 336 1742 364 1721.5 c 128,-1,15
 392 1701 392 1701 410 1668.5 c 128,-1,16
 428 1636 428 1636 428 1590 c 2,17,-1
 428 165 l 2,0,1
248 815 m 1,18,-1
 198 815 l 1,19,-1
 198 120 l 1,20,21
 219 120 219 120 237 120.5 c 128,-1,22
 255 121 255 121 267.5 125.5 c 128,-1,23
 280 130 280 130 287 139.5 c 128,-1,24
 294 149 294 149 294 166 c 2,25,-1
 294 1592 l 2,26,27
 294 1611 294 1611 287 1621.5 c 128,-1,28
 280 1632 280 1632 267.5 1637 c 128,-1,29
 255 1642 255 1642 237 1643 c 128,-1,30
 219 1644 219 1644 198 1644 c 1,31,-1
 198 937 l 1,32,-1
 248 937 l 1,33,-1
 248 815 l 1,18,-1
EndSplineSet
EndChar

StartChar: multiply
Encoding: 215 215 188
Width: 398
GlyphClass: 2
Flags: W
LayerCount: 2
Fore
SplineSet
378 196 m 1,0,-1
 249 196 l 1,1,-1
 200 458 l 1,2,-1
 154 196 l 1,3,-1
 21 196 l 1,4,-1
 138 716 l 1,5,-1
 21 1247 l 1,6,-1
 154 1247 l 1,7,-1
 200 970 l 1,8,-1
 249 1247 l 1,9,-1
 378 1247 l 1,10,-1
 266 716 l 1,11,-1
 378 196 l 1,0,-1
EndSplineSet
EndChar

StartChar: Oslash
Encoding: 216 216 189
Width: 467
GlyphClass: 2
Flags: W
LayerCount: 2
Fore
SplineSet
52 1637 m 2,0,1
 52 1667 52 1667 66.5 1694 c 128,-1,2
 81 1721 81 1721 105.5 1741 c 128,-1,3
 130 1761 130 1761 162.5 1772.5 c 128,-1,4
 195 1784 195 1784 231 1784 c 0,5,6
 269 1784 269 1784 302.5 1772 c 128,-1,7
 336 1760 336 1760 361 1739.5 c 128,-1,8
 386 1719 386 1719 400.5 1692 c 128,-1,9
 415 1665 415 1665 415 1635 c 2,10,-1
 415 130 l 2,11,12
 415 98 415 98 400.5 70.5 c 128,-1,13
 386 43 386 43 361 23 c 128,-1,14
 336 3 336 3 302.5 -9 c 128,-1,15
 269 -21 269 -21 231 -21 c 0,16,17
 195 -21 195 -21 162.5 -9.5 c 128,-1,18
 130 2 130 2 105.5 22 c 128,-1,19
 81 42 81 42 66.5 68.5 c 128,-1,20
 52 95 52 95 52 124 c 2,21,-1
 52 1637 l 2,0,1
186 127 m 2,22,23
 186 112 186 112 198.5 100 c 128,-1,24
 211 88 211 88 231 88 c 0,25,26
 252 88 252 88 265.5 100 c 128,-1,27
 279 112 279 112 279 127 c 2,28,-1
 279 1225 l 1,29,-1
 186 127 l 2,22,23
279 1638 m 2,30,31
 279 1655 279 1655 264.5 1667 c 128,-1,32
 250 1679 250 1679 231 1679 c 0,33,34
 211 1679 211 1679 198.5 1667 c 128,-1,35
 186 1655 186 1655 186 1638 c 2,36,-1
 186 539 l 1,37,-1
 279 1638 l 2,30,31
EndSplineSet
EndChar

StartChar: Thorn
Encoding: 222 222 195
Width: 449
GlyphClass: 2
Flags: W
LayerCount: 2
Fore
SplineSet
413 609 m 2,0,1
 413 525 413 525 355.5 491.5 c 128,-1,2
 298 458 298 458 189 458 c 1,3,-1
 189 0 l 1,4,-1
 55 0 l 1,5,-1
 55 1761 l 1,6,-1
 189 1761 l 1,7,-1
 189 1520 l 1,8,-1
 230 1520 l 2,9,10
 267 1520 267 1520 300.5 1509 c 128,-1,11
 334 1498 334 1498 359 1477.5 c 128,-1,12
 384 1457 384 1457 398.5 1427 c 128,-1,13
 413 1397 413 1397 413 1360 c 2,14,-1
 413 609 l 2,0,1
276 1372 m 2,15,16
 276 1397 276 1397 252 1406 c 128,-1,17
 228 1415 228 1415 189 1415 c 1,18,-1
 189 573 l 1,19,20
 236 573 236 573 256 580 c 128,-1,21
 276 587 276 587 276 617 c 2,22,-1
 276 1372 l 2,15,16
EndSplineSet
EndChar

StartChar: germandbls
Encoding: 223 223 196
Width: 467
GlyphClass: 2
Flags: W
LayerCount: 2
Fore
SplineSet
52 1611 m 2,0,1
 52 1656 52 1656 68.5 1688.5 c 128,-1,2
 85 1721 85 1721 111.5 1742.5 c 128,-1,3
 138 1764 138 1764 169.5 1774 c 128,-1,4
 201 1784 201 1784 231 1784 c 256,5,6
 261 1784 261 1784 293.5 1774.5 c 128,-1,7
 326 1765 326 1765 353 1744 c 128,-1,8
 380 1723 380 1723 397.5 1690.5 c 128,-1,9
 415 1658 415 1658 415 1613 c 2,10,-1
 415 1159 l 2,11,12
 415 1122 415 1122 392 1082 c 0,13,14
 369 1044 369 1044 322 1029 c 1,15,16
 346 1023 346 1023 363.5 1010 c 128,-1,17
 381 997 381 997 392.5 979.5 c 128,-1,18
 404 962 404 962 409.5 942.5 c 128,-1,19
 415 923 415 923 415 904 c 2,20,-1
 415 150 l 2,21,22
 415 120 415 120 400.5 92.5 c 128,-1,23
 386 65 386 65 361.5 44.5 c 128,-1,24
 337 24 337 24 304 12 c 128,-1,25
 271 0 271 0 234 0 c 2,26,-1
 186 0 l 1,27,-1
 186 -204 l 1,28,-1
 52 -204 l 1,29,-1
 52 1611 l 2,0,1
279 921 m 2,30,31
 279 926 279 926 277.5 934.5 c 128,-1,32
 276 943 276 943 271.5 951 c 128,-1,33
 267 959 267 959 258.5 964.5 c 128,-1,34
 250 970 250 970 236 970 c 2,35,-1
 186 970 l 1,36,-1
 186 114 l 1,37,38
 211 114 211 114 228.5 114.5 c 128,-1,39
 246 115 246 115 257.5 118 c 128,-1,40
 269 121 269 121 274 128.5 c 128,-1,41
 279 136 279 136 279 150 c 2,42,-1
 279 921 l 2,30,31
186 1089 m 1,43,-1
 242 1089 l 2,44,45
 267 1089 267 1089 273 1105.5 c 128,-1,46
 279 1122 279 1122 279 1147 c 2,47,-1
 279 1631 l 2,48,49
 279 1655 279 1655 265.5 1667 c 128,-1,50
 252 1679 252 1679 232 1679 c 0,51,52
 186 1679 186 1679 186 1631 c 2,53,-1
 186 1089 l 1,43,-1
EndSplineSet
EndChar

StartChar: ae
Encoding: 230 230 197
Width: 589
GlyphClass: 2
Flags: W
LayerCount: 2
Fore
SplineSet
568 1422 m 1,0,-1
 402 1422 l 1,1,-1
 402 858 l 1,2,-1
 526 858 l 1,3,-1
 526 752 l 1,4,-1
 402 752 l 1,5,-1
 402 101 l 1,6,-1
 568 101 l 1,7,-1
 568 0 l 1,8,-1
 280 0 l 1,9,-1
 283 332 l 1,10,-1
 184 332 l 1,11,-1
 139 0 l 1,12,-1
 11 0 l 1,13,-1
 220 1520 l 1,14,-1
 568 1520 l 1,15,-1
 568 1422 l 1,0,-1
282 436 m 1,16,-1
 289 1259 l 1,17,-1
 198 436 l 1,18,-1
 282 436 l 1,16,-1
EndSplineSet
EndChar

StartChar: eth
Encoding: 240 240 198
Width: 469
GlyphClass: 2
Flags: W
LayerCount: 2
Fore
SplineSet
481 1321 m 1,0,-1
 394 1295 l 1,1,2
 397 1228 397 1228 397.5 1156.5 c 128,-1,3
 398 1085 398 1085 398 1004 c 2,4,-1
 398 141 l 2,5,6
 398 108 398 108 384 80 c 128,-1,7
 370 52 370 52 346 31.5 c 128,-1,8
 322 11 322 11 290 -0.5 c 128,-1,9
 258 -12 258 -12 222 -12 c 0,10,11
 187 -12 187 -12 156 -1.5 c 128,-1,12
 125 9 125 9 102 28.5 c 128,-1,13
 79 48 79 48 65 75.5 c 128,-1,14
 51 103 51 103 51 136 c 2,15,-1
 51 867 l 2,16,17
 52 897 52 897 64.5 924 c 128,-1,18
 77 951 77 951 98.5 971.5 c 128,-1,19
 120 992 120 992 149.5 1004.5 c 128,-1,20
 179 1017 179 1017 214 1017 c 0,21,22
 231 1017 231 1017 246 1011 c 128,-1,23
 261 1005 261 1005 264 1005 c 1,24,-1
 264 1138 l 2,25,26
 264 1200 264 1200 261 1259 c 1,27,-1
 49 1201 l 1,28,-1
 49 1304 l 1,29,-1
 254 1361 l 1,30,31
 248 1430 248 1430 235 1483.5 c 128,-1,32
 222 1537 222 1537 198.5 1573.5 c 128,-1,33
 175 1610 175 1610 138.5 1629.5 c 128,-1,34
 102 1649 102 1649 49 1649 c 1,35,-1
 49 1765 l 1,36,37
 137 1765 137 1765 197 1739.5 c 128,-1,38
 257 1714 257 1714 296 1666.5 c 128,-1,39
 335 1619 335 1619 355.5 1550.5 c 128,-1,40
 376 1482 376 1482 385 1397 c 1,41,-1
 481 1424 l 1,42,-1
 481 1321 l 1,0,-1
222 900 m 0,43,44
 197 900 197 900 190.5 883.5 c 128,-1,45
 184 867 184 867 184 845 c 2,46,-1
 184 141 l 2,47,48
 184 126 184 126 195.5 116 c 128,-1,49
 207 106 207 106 222 106 c 0,50,51
 247 106 247 106 255.5 122 c 128,-1,52
 264 138 264 138 264 157 c 2,53,-1
 264 888 l 1,54,55
 261 888 261 888 249.5 894 c 128,-1,56
 238 900 238 900 222 900 c 0,43,44
EndSplineSet
EndChar

StartChar: divide
Encoding: 247 247 199
Width: 561
GlyphClass: 2
Flags: W
LayerCount: 2
Fore
SplineSet
537 665 m 1,0,-1
 24 665 l 1,1,-1
 24 800 l 1,2,-1
 537 800 l 1,3,-1
 537 665 l 1,0,-1
379 1044 m 1,4,-1
 379 858 l 1,5,-1
 196 858 l 1,6,-1
 196 1044 l 1,7,-1
 379 1044 l 1,4,-1
379 599 m 1,8,-1
 379 415 l 1,9,-1
 196 415 l 1,10,-1
 196 599 l 1,11,-1
 379 599 l 1,8,-1
EndSplineSet
EndChar

StartChar: oslash
Encoding: 248 248 200
Width: 458
GlyphClass: 2
Flags: W
LayerCount: 2
Fore
SplineSet
407 130 m 2,0,1
 407 99 407 99 392.5 71.5 c 128,-1,2
 378 44 378 44 354 23.5 c 128,-1,3
 330 3 330 3 298 -9 c 128,-1,4
 266 -21 266 -21 231 -21 c 0,5,6
 195 -21 195 -21 162.5 -9 c 128,-1,7
 130 3 130 3 105.5 24 c 128,-1,8
 81 45 81 45 67 73.5 c 128,-1,9
 53 102 53 102 53 135 c 2,10,-1
 53 1391 l 2,11,12
 53 1422 53 1422 67 1450 c 128,-1,13
 81 1478 81 1478 105.5 1499 c 128,-1,14
 130 1520 130 1520 162.5 1532.5 c 128,-1,15
 195 1545 195 1545 231 1545 c 0,16,17
 266 1545 266 1545 298 1533.5 c 128,-1,18
 330 1522 330 1522 354 1502 c 128,-1,19
 378 1482 378 1482 392.5 1454 c 128,-1,20
 407 1426 407 1426 407 1393 c 2,21,-1
 407 130 l 2,0,1
268 834 m 1,22,-1
 190 400 l 1,23,-1
 190 109 l 2,24,25
 190 101 190 101 200.5 89.5 c 128,-1,26
 211 78 211 78 231 78 c 0,27,28
 247 78 247 78 257.5 87 c 128,-1,29
 268 96 268 96 268 109 c 2,30,-1
 268 834 l 1,22,-1
268 1178 m 1,31,-1
 268 1415 l 2,32,33
 268 1430 268 1430 257.5 1440 c 128,-1,34
 247 1450 247 1450 231 1450 c 0,35,36
 216 1450 216 1450 203 1440 c 128,-1,37
 190 1430 190 1430 190 1415 c 2,38,-1
 190 728 l 1,39,-1
 268 1178 l 1,31,-1
EndSplineSet
EndChar

StartChar: thorn
Encoding: 254 254 201
Width: 437
GlyphClass: 2
Flags: W
LayerCount: 2
Fore
SplineSet
189 1560 m 1,0,-1
 189 1280 l 1,1,-1
 223 1280 l 2,2,3
 257 1280 257 1280 288 1270.5 c 128,-1,4
 319 1261 319 1261 343 1243 c 128,-1,5
 367 1225 367 1225 381 1199 c 128,-1,6
 395 1173 395 1173 395 1139 c 2,7,-1
 395 602 l 2,8,9
 395 536 395 536 394.5 486 c 128,-1,10
 394 436 394 436 394 404 c 2,11,-1
 394 374 l 2,12,13
 394 332 394 332 376.5 303.5 c 128,-1,14
 359 275 359 275 330 258 c 128,-1,15
 301 241 301 241 263.5 233 c 128,-1,16
 226 225 226 225 186 224 c 1,17,-1
 186 -241 l 1,18,-1
 55 -241 l 1,19,-1
 54 1560 l 1,20,-1
 189 1560 l 1,0,-1
265 1139 m 2,21,22
 265 1161 265 1161 249.5 1171 c 128,-1,23
 234 1181 234 1181 189 1181 c 1,24,-1
 189 330 l 1,25,26
 234 330 234 330 249.5 339.5 c 128,-1,27
 265 349 265 349 265 371 c 2,28,-1
 265 1139 l 2,21,22
EndSplineSet
EndChar

StartChar: Dcroat
Encoding: 272 272 214
Width: 473
GlyphClass: 2
Flags: W
LayerCount: 2
Fore
SplineSet
250 886 m 1,0,-1
 -1 886 l 1,1,-1
 -1 991 l 1,2,-1
 250 991 l 1,3,-1
 250 886 l 1,0,-1
286 1605 m 2,4,5
 286 1635 286 1635 263 1639.5 c 128,-1,6
 240 1644 240 1644 189 1644 c 1,7,-1
 189 114 l 1,8,9
 213 114 213 114 231 114.5 c 128,-1,10
 249 115 249 115 261.5 118 c 128,-1,11
 274 121 274 121 280 128.5 c 128,-1,12
 286 136 286 136 286 150 c 2,13,-1
 286 1605 l 2,4,5
421 150 m 2,14,15
 421 120 421 120 407 92.5 c 128,-1,16
 393 65 393 65 369 44.5 c 128,-1,17
 345 24 345 24 312 12 c 128,-1,18
 279 0 279 0 242 0 c 2,19,-1
 55 0 l 1,20,-1
 55 1761 l 1,21,-1
 242 1761 l 2,22,23
 278 1761 278 1761 310.5 1749.5 c 128,-1,24
 343 1738 343 1738 367.5 1718 c 128,-1,25
 392 1698 392 1698 406.5 1671 c 128,-1,26
 421 1644 421 1644 421 1613 c 2,27,-1
 421 150 l 2,14,15
EndSplineSet
EndChar

StartChar: dcroat
Encoding: 273 273 215
Width: 443
GlyphClass: 2
Flags: W
LayerCount: 2
Fore
SplineSet
227 750 m 1,0,-1
 0 750 l 1,1,-1
 0 859 l 1,2,-1
 227 859 l 1,3,-1
 227 750 l 1,0,-1
258 1399 m 2,4,5
 258 1418 258 1418 240.5 1423.5 c 128,-1,6
 223 1429 223 1429 189 1429 c 1,7,-1
 189 102 l 1,8,9
 223 102 223 102 240.5 108 c 128,-1,10
 258 114 258 114 258 133 c 2,11,-1
 258 1399 l 2,4,5
391 135 m 2,12,13
 391 84 391 84 369 56.5 c 128,-1,14
 347 29 347 29 304 16.5 c 128,-1,15
 261 4 261 4 198.5 2 c 128,-1,16
 136 0 136 0 55 0 c 1,17,-1
 55 1520 l 1,18,19
 136 1520 136 1520 198.5 1518.5 c 128,-1,20
 261 1517 261 1517 304 1505 c 128,-1,21
 347 1493 347 1493 369 1466.5 c 128,-1,22
 391 1440 391 1440 391 1391 c 2,23,-1
 391 135 l 2,12,13
EndSplineSet
EndChar

StartChar: Hbar
Encoding: 294 294 235
Width: 512
GlyphClass: 2
Flags: W
LayerCount: 2
Fore
SplineSet
192 928 m 1,0,-1
 320 928 l 1,1,-1
 320 1310 l 1,2,-1
 192 1310 l 1,3,-1
 192 928 l 1,0,-1
320 1415 m 1,4,-1
 320 1728 l 1,5,-1
 448 1728 l 1,6,-1
 448 0 l 1,7,-1
 320 0 l 1,8,-1
 320 832 l 1,9,-1
 192 832 l 1,10,-1
 192 0 l 1,11,-1
 64 0 l 1,12,-1
 64 1728 l 1,13,-1
 192 1728 l 1,14,-1
 192 1415 l 1,15,-1
 320 1415 l 1,4,-1
EndSplineSet
EndChar

StartChar: hbar
Encoding: 295 295 236
Width: 426
GlyphClass: 2
Flags: W
LayerCount: 2
Fore
SplineSet
320 1536 m 1,0,-1
 448 1536 l 1,1,-1
 448 0 l 1,2,-1
 320 0 l 1,3,-1
 320 746 l 1,4,-1
 192 746 l 1,5,-1
 192 0 l 1,6,-1
 64 0 l 1,7,-1
 64 1536 l 1,8,-1
 192 1536 l 1,9,-1
 192 1302 l 1,10,-1
 320 1302 l 1,11,-1
 320 1536 l 1,0,-1
192 1197 m 1,12,-1
 192 846 l 1,13,-1
 320 846 l 1,14,-1
 320 1197 l 1,15,-1
 192 1197 l 1,12,-1
EndSplineSet
EndChar

StartChar: dotlessi
Encoding: 305 305 246
Width: 292
GlyphClass: 2
Flags: W
LayerCount: 2
Fore
SplineSet
213 1520 m 1,0,-1
 213 0 l 1,1,-1
 79 0 l 1,2,-1
 79 1520 l 1,3,-1
 213 1520 l 1,0,-1
EndSplineSet
EndChar

StartChar: Lslash
Encoding: 321 321 258
Width: 347
GlyphClass: 2
Flags: W
LayerCount: 2
Fore
SplineSet
206 1761 m 1,0,-1
 206 910 l 1,1,-1
 350 939 l 1,2,-1
 350 822 l 1,3,-1
 206 794 l 1,4,-1
 206 111 l 1,5,-1
 350 111 l 1,6,-1
 350 0 l 1,7,-1
 72 0 l 1,8,-1
 72 767 l 1,9,-1
 -15 750 l 1,10,-1
 -15 867 l 1,11,-1
 72 884 l 1,12,-1
 72 1761 l 1,13,-1
 206 1761 l 1,0,-1
EndSplineSet
EndChar

StartChar: lslash
Encoding: 322 322 259
Width: 313
GlyphClass: 2
Flags: W
LayerCount: 2
Fore
SplineSet
186 1520 m 1,0,-1
 186 832 l 1,1,-1
 312 861 l 1,2,-1
 312 744 l 1,3,-1
 186 716 l 1,4,-1
 186 101 l 1,5,-1
 312 101 l 1,6,-1
 312 0 l 1,7,-1
 55 0 l 1,8,-1
 55 686 l 1,9,-1
 -9 672 l 1,10,-1
 -9 789 l 1,11,-1
 55 803 l 1,12,-1
 55 1520 l 1,13,-1
 186 1520 l 1,0,-1
EndSplineSet
EndChar

StartChar: Eng
Encoding: 330 330 266
Width: 479
GlyphClass: 2
Flags: W
LayerCount: 2
Fore
SplineSet
424 -328 m 2,0,1
 424 -360 424 -360 410 -387.5 c 128,-1,2
 396 -415 396 -415 371.5 -435 c 128,-1,3
 347 -455 347 -455 314.5 -466.5 c 128,-1,4
 282 -478 282 -478 245 -478 c 0,5,6
 207 -478 207 -478 173.5 -466.5 c 128,-1,7
 140 -455 140 -455 114.5 -435 c 128,-1,8
 89 -415 89 -415 74.5 -388 c 128,-1,9
 60 -361 60 -361 60 -330 c 2,10,-1
 60 -69 l 1,11,-1
 194 -69 l 1,12,-1
 194 -330 l 2,13,14
 194 -352 194 -352 209 -361 c 128,-1,15
 224 -370 224 -370 245 -370 c 0,16,17
 264 -370 264 -370 276.5 -358.5 c 128,-1,18
 289 -347 289 -347 289 -330 c 2,19,-1
 289 382 l 1,20,-1
 424 382 l 1,21,-1
 424 -328 l 2,0,1
424 0 m 1,22,-1
 289 0 l 1,23,-1
 189 982 l 1,24,-1
 189 0 l 1,25,-1
 55 0 l 1,26,-1
 55 1761 l 1,27,-1
 187 1761 l 1,28,-1
 298 738 l 1,29,-1
 298 1761 l 1,30,-1
 424 1761 l 1,31,-1
 424 0 l 1,22,-1
EndSplineSet
EndChar

StartChar: eng
Encoding: 331 331 267
Width: 451
GlyphClass: 2
Flags: W
LayerCount: 2
Fore
SplineSet
395 0 m 1,0,-1
 274 0 l 1,1,-1
 174 855 l 1,2,-1
 186 0 l 1,3,-1
 55 0 l 1,4,-1
 55 1520 l 1,5,-1
 175 1520 l 1,6,-1
 282 637 l 1,7,-1
 274 1520 l 1,8,-1
 395 1520 l 1,9,-1
 395 0 l 1,0,-1
395 -353 m 2,10,11
 395 -380 395 -380 381 -403.5 c 128,-1,12
 367 -427 367 -427 344 -445 c 128,-1,13
 321 -463 321 -463 290.5 -473 c 128,-1,14
 260 -483 260 -483 226 -483 c 0,15,16
 193 -483 193 -483 162.5 -473 c 128,-1,17
 132 -463 132 -463 108.5 -445 c 128,-1,18
 85 -427 85 -427 71.5 -403.5 c 128,-1,19
 58 -380 58 -380 58 -353 c 2,20,-1
 58 -91 l 1,21,-1
 187 -91 l 1,22,-1
 189 -353 l 2,23,24
 189 -366 189 -366 200.5 -373.5 c 128,-1,25
 212 -381 212 -381 226 -381 c 256,26,27
 240 -381 240 -381 250 -373.5 c 128,-1,28
 260 -366 260 -366 260 -353 c 2,29,-1
 260 364 l 1,30,-1
 395 364 l 1,31,-1
 395 -353 l 2,10,11
EndSplineSet
EndChar

StartChar: OE
Encoding: 338 338 274
Width: 603
GlyphClass: 2
Flags: W
LayerCount: 2
Fore
SplineSet
52 1637 m 2,0,1
 52 1667 52 1667 66.5 1694 c 128,-1,2
 81 1721 81 1721 105.5 1741 c 128,-1,3
 130 1761 130 1761 162.5 1772.5 c 128,-1,4
 195 1784 195 1784 231 1784 c 0,5,6
 284 1784 284 1784 328 1761 c 1,7,-1
 595 1761 l 1,8,-1
 595 1644 l 1,9,-1
 415 1644 l 1,10,-1
 415 996 l 1,11,-1
 548 996 l 1,12,-1
 548 876 l 1,13,-1
 415 876 l 1,14,-1
 415 112 l 1,15,-1
 595 112 l 1,16,-1
 595 0 l 1,17,-1
 324 0 l 1,18,19
 301 -11 301 -11 279 -15 c 0,20,21
 256 -21 256 -21 231 -21 c 0,22,23
 195 -21 195 -21 162.5 -9.5 c 128,-1,24
 130 2 130 2 105.5 22 c 128,-1,25
 81 42 81 42 66.5 68.5 c 128,-1,26
 52 95 52 95 52 124 c 2,27,-1
 52 1637 l 2,0,1
186 127 m 2,28,29
 186 112 186 112 198.5 100 c 128,-1,30
 211 88 211 88 231 88 c 0,31,32
 252 88 252 88 265.5 100 c 128,-1,33
 279 112 279 112 279 127 c 2,34,-1
 279 1638 l 2,35,36
 279 1655 279 1655 264.5 1667 c 128,-1,37
 250 1679 250 1679 231 1679 c 0,38,39
 211 1679 211 1679 198.5 1667 c 128,-1,40
 186 1655 186 1655 186 1638 c 2,41,-1
 186 127 l 2,28,29
EndSplineSet
EndChar

StartChar: oe
Encoding: 339 339 275
Width: 589
GlyphClass: 2
Flags: W
LayerCount: 2
Fore
SplineSet
573 1429 m 1,0,-1
 406 1429 l 1,1,-1
 406 858 l 1,2,-1
 531 858 l 1,3,-1
 531 752 l 1,4,-1
 406 752 l 1,5,-1
 406 101 l 1,6,-1
 573 101 l 1,7,-1
 573 0 l 1,8,-1
 316 0 l 1,9,10
 298 -11 298 -11 274 -15 c 0,11,12
 254 -21 254 -21 230 -21 c 0,13,14
 193 -21 193 -21 160.5 -9 c 128,-1,15
 128 3 128 3 104 24 c 128,-1,16
 80 45 80 45 66 73.5 c 128,-1,17
 52 102 52 102 52 135 c 2,18,-1
 52 1391 l 2,19,20
 52 1422 52 1422 66 1450 c 128,-1,21
 80 1478 80 1478 104 1499 c 128,-1,22
 128 1520 128 1520 160.5 1532.5 c 128,-1,23
 193 1545 193 1545 230 1545 c 0,24,25
 281 1545 281 1545 325 1520 c 1,26,-1
 573 1520 l 1,27,-1
 573 1429 l 1,0,-1
267 1373 m 2,28,29
 267 1388 267 1388 266 1402 c 128,-1,30
 265 1416 265 1416 261 1426.5 c 128,-1,31
 257 1437 257 1437 250 1443.5 c 128,-1,32
 243 1450 243 1450 230 1450 c 0,33,34
 203 1450 203 1450 196 1426.5 c 128,-1,35
 189 1403 189 1403 189 1373 c 2,36,-1
 189 151 l 2,37,38
 189 140 189 140 189.5 127 c 128,-1,39
 190 114 190 114 193.5 103 c 128,-1,40
 197 92 197 92 205.5 85 c 128,-1,41
 214 78 214 78 230 78 c 256,42,43
 246 78 246 78 256.5 87 c 128,-1,44
 267 96 267 96 267 109 c 2,45,-1
 267 1373 l 2,28,29
EndSplineSet
EndChar

StartChar: florin
Encoding: 402 402 318
Width: 439
GlyphClass: 2
Flags: W
LayerCount: 2
Fore
SplineSet
443 1422 m 1,0,-1
 277 1422 l 1,1,-1
 228 864 l 1,2,-1
 348 864 l 1,3,-1
 338 759 l 1,4,-1
 219 759 l 1,5,-1
 153 0 l 1,6,-1
 24 0 l 1,7,-1
 157 1520 l 1,8,-1
 451 1520 l 1,9,-1
 443 1422 l 1,0,-1
EndSplineSet
EndChar

StartChar: circumflex
Encoding: 710 710 327
Width: 326
GlyphClass: 2
Flags: W
LayerCount: 2
Fore
SplineSet
236 430 m 1,0,-1
 295 84 l 1,1,-1
 193 84 l 1,2,-1
 163 322 l 1,3,-1
 132 84 l 1,4,-1
 31 84 l 1,5,-1
 90 430 l 1,6,-1
 236 430 l 1,0,-1
EndSplineSet
EndChar

StartChar: caron
Encoding: 711 711 328
Width: 326
GlyphClass: 2
Flags: W
LayerCount: 2
Fore
SplineSet
91 84 m 1,0,-1
 33 430 l 1,1,-1
 133 430 l 1,2,-1
 163 193 l 1,3,-1
 195 430 l 1,4,-1
 296 430 l 1,5,-1
 236 84 l 1,6,-1
 91 84 l 1,0,-1
EndSplineSet
EndChar

StartChar: breve
Encoding: 728 728 329
Width: 326
GlyphClass: 2
Flags: W
LayerCount: 2
Fore
SplineSet
166 84 m 0,0,1
 63 84 63 84 17.5 136.5 c 128,-1,2
 -28 189 -28 189 -28 308 c 1,3,-1
 73 308 l 1,4,5
 73 272 73 272 80 250.5 c 128,-1,6
 87 229 87 229 99 217.5 c 128,-1,7
 111 206 111 206 127.5 202.5 c 128,-1,8
 144 199 144 199 163 199 c 0,9,10
 184 199 184 199 201 202.5 c 128,-1,11
 218 206 218 206 230 217.5 c 128,-1,12
 242 229 242 229 248.5 250.5 c 128,-1,13
 255 272 255 272 255 308 c 1,14,-1
 356 308 l 1,15,16
 356 189 356 189 311 136.5 c 128,-1,17
 266 84 266 84 166 84 c 0,0,1
EndSplineSet
EndChar

StartChar: dotaccent
Encoding: 729 729 330
Width: 254
GlyphClass: 2
Flags: W
LayerCount: 2
Fore
SplineSet
237 284 m 1,0,-1
 237 99 l 1,1,-1
 55 99 l 1,2,-1
 55 284 l 1,3,-1
 237 284 l 1,0,-1
EndSplineSet
EndChar

StartChar: ring
Encoding: 730 730 331
Width: 326
GlyphClass: 2
Flags: W
LayerCount: 2
Fore
SplineSet
33 206 m 0,0,1
 33 236 33 236 44 262 c 128,-1,2
 55 288 55 288 74 307 c 128,-1,3
 93 326 93 326 119 337 c 128,-1,4
 145 348 145 348 175 348 c 0,5,6
 238 348 238 348 278 308 c 256,7,8
 318 268 318 268 318 206 c 0,9,10
 318 177 318 177 307 151.5 c 128,-1,11
 296 126 296 126 277 107 c 128,-1,12
 258 88 258 88 232 77 c 128,-1,13
 206 66 206 66 175 66 c 0,14,15
 145 66 145 66 119 77 c 128,-1,16
 93 88 93 88 74 107 c 128,-1,17
 55 126 55 126 44 151.5 c 128,-1,18
 33 177 33 177 33 206 c 0,0,1
112 207 m 0,19,20
 112 181 112 181 130 162.5 c 128,-1,21
 148 144 148 144 175 144 c 0,22,23
 204 144 204 144 222 162.5 c 128,-1,24
 240 181 240 181 240 207 c 0,25,26
 240 235 240 235 222 252.5 c 128,-1,27
 204 270 204 270 175 270 c 0,28,29
 148 270 148 270 130 252.5 c 128,-1,30
 112 235 112 235 112 207 c 0,19,20
EndSplineSet
EndChar

StartChar: ogonek
Encoding: 731 731 332
Width: 326
GlyphClass: 2
Flags: W
LayerCount: 2
Fore
SplineSet
223 -283 m 0,0,1
 185 -283 185 -283 155.5 -271 c 128,-1,2
 126 -259 126 -259 105.5 -238.5 c 128,-1,3
 85 -218 85 -218 74 -190 c 128,-1,4
 63 -162 63 -162 63 -130 c 0,5,6
 63 -73 63 -73 136 0 c 1,7,-1
 186 0 l 1,8,9
 173 -20 173 -20 166 -40 c 0,10,11
 159 -57 159 -57 153.5 -78 c 128,-1,12
 148 -99 148 -99 148 -120 c 0,13,14
 148 -158 148 -158 167.5 -178.5 c 128,-1,15
 187 -199 187 -199 230 -199 c 0,16,17
 254 -199 254 -199 274 -193 c 128,-1,18
 294 -187 294 -187 310 -180 c 0,19,20
 320 -175 320 -175 328.5 -170.5 c 128,-1,21
 337 -166 337 -166 346 -160 c 1,22,-1
 346 -232 l 1,23,24
 330 -248 330 -248 314 -258 c 0,25,26
 298 -267 298 -267 276 -275 c 128,-1,27
 254 -283 254 -283 223 -283 c 0,0,1
EndSplineSet
EndChar

StartChar: tilde
Encoding: 732 732 333
Width: 326
GlyphClass: 2
Flags: W
LayerCount: 2
Fore
SplineSet
-15 101 m 1,0,1
 -15 135 -15 135 -9.5 164 c 128,-1,2
 -4 193 -4 193 8.5 214.5 c 128,-1,3
 21 236 21 236 40.5 248 c 128,-1,4
 60 260 60 260 89 260 c 0,5,6
 114 260 114 260 132.5 253.5 c 128,-1,7
 151 247 151 247 169 238.5 c 128,-1,8
 187 230 187 230 207.5 223.5 c 128,-1,9
 228 217 228 217 255 217 c 0,10,11
 265 217 265 217 271 223.5 c 128,-1,12
 277 230 277 230 280 238 c 0,13,14
 285 247 285 247 286 260 c 1,15,-1
 365 260 l 1,16,17
 365 237 365 237 363 217.5 c 128,-1,18
 361 198 361 198 355 181 c 0,19,20
 345 150 345 150 322.5 125.5 c 128,-1,21
 300 101 300 101 255 101 c 0,22,23
 230 101 230 101 208.5 108 c 128,-1,24
 187 115 187 115 167.5 123 c 128,-1,25
 148 131 148 131 129 138 c 128,-1,26
 110 145 110 145 90 145 c 0,27,28
 81 145 81 145 75.5 138.5 c 128,-1,29
 70 132 70 132 67 123 c 0,30,31
 64 115 64 115 64 101 c 1,32,-1
 -15 101 l 1,0,1
EndSplineSet
EndChar

StartChar: hungarumlaut
Encoding: 733 733 334
Width: 652
GlyphClass: 2
Flags: W
LayerCount: 2
Fore
SplineSet
338 494 m 1,0,-1
 148 84 l 1,1,-1
 47 84 l 1,2,-1
 180 494 l 1,3,-1
 338 494 l 1,0,-1
535 494 m 1,4,-1
 294 84 l 1,5,-1
 193 84 l 1,6,-1
 377 494 l 1,7,-1
 535 494 l 1,4,-1
EndSplineSet
EndChar

StartChar: Delta
Encoding: 916 916 335
AltUni2: 002206.ffffffff.0 002206.ffffffff.0
Width: 436
GlyphClass: 2
Flags: W
LayerCount: 2
Fore
SplineSet
412 0 m 1,0,-1
 24 0 l 1,1,-1
 123 1761 l 1,2,-1
 313 1761 l 1,3,-1
 412 0 l 1,0,-1
278 114 m 1,4,-1
 217 1475 l 1,5,-1
 156 114 l 1,6,-1
 278 114 l 1,4,-1
EndSplineSet
EndChar

StartChar: Omega
Encoding: 937 937 336
AltUni2: 002126.ffffffff.0 002126.ffffffff.0
Width: 513
GlyphClass: 2
Flags: W
LayerCount: 2
Fore
SplineSet
259 1680 m 0,0,1
 237 1680 237 1680 226.5 1671 c 128,-1,2
 216 1662 216 1662 211.5 1646.5 c 128,-1,3
 207 1631 207 1631 207 1610 c 2,4,-1
 207 1563 l 1,5,-1
 207 422 l 2,6,7
 207 337 207 337 211.5 278.5 c 128,-1,8
 216 220 216 220 221 181 c 0,9,10
 227 137 227 137 236 107 c 1,11,-1
 236 0 l 1,12,-1
 30 0 l 1,13,-1
 30 107 l 1,14,-1
 130 107 l 1,15,16
 114 136 114 136 100 181 c 0,17,18
 88 220 88 220 79 278.5 c 128,-1,19
 70 337 70 337 70 421 c 2,20,-1
 70 1563 l 2,21,22
 70 1600 70 1600 75.5 1639 c 128,-1,23
 81 1678 81 1678 100.5 1709.5 c 128,-1,24
 120 1741 120 1741 157.5 1761.5 c 128,-1,25
 195 1782 195 1782 259 1782 c 0,26,27
 322 1782 322 1782 359.5 1761.5 c 128,-1,28
 397 1741 397 1741 416.5 1709.5 c 128,-1,29
 436 1678 436 1678 442 1639 c 128,-1,30
 448 1600 448 1600 448 1563 c 2,31,-1
 448 421 l 2,32,33
 448 337 448 337 438.5 278.5 c 128,-1,34
 429 220 429 220 418 181 c 0,35,36
 404 136 404 136 388 107 c 1,37,-1
 484 107 l 1,38,-1
 484 0 l 1,39,-1
 282 0 l 1,40,-1
 282 107 l 1,41,42
 286 122 286 122 289.5 140.5 c 128,-1,43
 293 159 293 159 296 181 c 0,44,45
 301 220 301 220 305.5 278.5 c 128,-1,46
 310 337 310 337 310 422 c 2,47,-1
 310 1563 l 1,48,-1
 310 1610 l 2,49,50
 310 1631 310 1631 306 1646.5 c 128,-1,51
 302 1662 302 1662 291 1671 c 128,-1,52
 280 1680 280 1680 259 1680 c 0,0,1
EndSplineSet
EndChar

StartChar: pi
Encoding: 960 960 337
Width: 292
GlyphClass: 2
Flags: W
LayerCount: 2
Fore
SplineSet
213 1517 m 1,0,-1
 213 0 l 1,1,-1
 79 0 l 1,2,-1
 79 1517 l 1,3,-1
 213 1517 l 1,0,-1
EndSplineSet
EndChar

StartChar: endash
Encoding: 8211 8211 353
Width: 691
GlyphClass: 2
Flags: W
LayerCount: 2
Fore
SplineSet
668 750 m 1,0,-1
 23 750 l 1,1,-1
 23 885 l 1,2,-1
 668 885 l 1,3,-1
 668 750 l 1,0,-1
EndSplineSet
EndChar

StartChar: emdash
Encoding: 8212 8212 354
Width: 691
GlyphClass: 2
Flags: W
LayerCount: 2
Fore
SplineSet
668 750 m 1,0,-1
 23 750 l 1,1,-1
 23 885 l 1,2,-1
 668 885 l 1,3,-1
 668 750 l 1,0,-1
EndSplineSet
EndChar

StartChar: quoteleft
Encoding: 8216 8216 355
Width: 488
GlyphClass: 2
Flags: W
LayerCount: 2
Fore
SplineSet
7 1403 m 1,0,-1
 81 1763 l 1,1,-1
 166 1763 l 1,2,-1
 166 1403 l 1,3,-1
 7 1403 l 1,0,-1
EndSplineSet
EndChar

StartChar: quoteright
Encoding: 8217 8217 356
Width: 488
GlyphClass: 2
Flags: W
LayerCount: 2
Fore
SplineSet
400 1761 m 1,0,-1
 326 1402 l 1,1,-1
 242 1402 l 1,2,-1
 241 1761 l 1,3,-1
 400 1761 l 1,0,-1
EndSplineSet
EndChar

StartChar: quotesinglbase
Encoding: 8218 8218 357
Width: 488
GlyphClass: 2
Flags: W
LayerCount: 2
Fore
SplineSet
7 0 m 1,0,-1
 81 360 l 1,1,-1
 166 360 l 1,2,-1
 166 0 l 1,3,-1
 7 0 l 1,0,-1
EndSplineSet
EndChar

StartChar: quotedblleft
Encoding: 8220 8220 358
Width: 488
GlyphClass: 2
Flags: W
LayerCount: 2
Fore
SplineSet
226 1403 m 1,0,-1
 300 1763 l 1,1,-1
 384 1763 l 1,2,-1
 385 1403 l 1,3,-1
 226 1403 l 1,0,-1
7 1403 m 1,4,-1
 81 1763 l 1,5,-1
 166 1763 l 1,6,-1
 166 1403 l 1,7,-1
 7 1403 l 1,4,-1
EndSplineSet
EndChar

StartChar: quotedblright
Encoding: 8221 8221 359
Width: 488
GlyphClass: 2
Flags: W
LayerCount: 2
Fore
SplineSet
181 1761 m 1,0,-1
 108 1402 l 1,1,-1
 23 1402 l 1,2,-1
 21 1761 l 1,3,-1
 181 1761 l 1,0,-1
400 1761 m 1,4,-1
 326 1402 l 1,5,-1
 242 1402 l 1,6,-1
 241 1761 l 1,7,-1
 400 1761 l 1,4,-1
EndSplineSet
EndChar

StartChar: quotedblbase
Encoding: 8222 8222 360
Width: 488
GlyphClass: 2
Flags: W
LayerCount: 2
Fore
SplineSet
400 360 m 1,0,-1
 326 0 l 1,1,-1
 242 0 l 1,2,-1
 241 360 l 1,3,-1
 400 360 l 1,0,-1
EndSplineSet
EndChar

StartChar: dagger
Encoding: 8224 8224 361
Width: 350
GlyphClass: 2
Flags: W
LayerCount: 2
Fore
SplineSet
114 1104 m 1,0,-1
 114 1324 l 1,1,-1
 240 1324 l 1,2,-1
 240 1104 l 1,3,-1
 348 1104 l 1,4,-1
 348 1005 l 1,5,-1
 238 1005 l 1,6,-1
 238 136 l 1,7,-1
 112 136 l 1,8,-1
 112 1005 l 1,9,-1
 0 1005 l 1,10,-1
 0 1104 l 1,11,-1
 114 1104 l 1,0,-1
EndSplineSet
EndChar

StartChar: daggerdbl
Encoding: 8225 8225 362
Width: 659
GlyphClass: 2
Flags: W
LayerCount: 2
Fore
SplineSet
24 655 m 1,0,-1
 264 655 l 1,1,-1
 264 1252 l 1,2,-1
 24 1252 l 1,3,-1
 24 1382 l 1,4,-1
 264 1382 l 1,5,-1
 264 1761 l 1,6,-1
 397 1761 l 1,7,-1
 397 1382 l 1,8,-1
 635 1382 l 1,9,-1
 635 1252 l 1,10,-1
 397 1252 l 1,11,-1
 397 655 l 1,12,-1
 635 655 l 1,13,-1
 635 525 l 1,14,-1
 397 525 l 1,15,-1
 397 0 l 1,16,-1
 264 0 l 1,17,-1
 264 525 l 1,18,-1
 24 525 l 1,19,-1
 24 655 l 1,0,-1
EndSplineSet
EndChar

StartChar: bullet
Encoding: 8226 8226 363
Width: 458
GlyphClass: 2
Flags: W
LayerCount: 2
Fore
SplineSet
406 683 m 2,0,1
 406 652 406 652 391.5 624.5 c 128,-1,2
 377 597 377 597 353 576.5 c 128,-1,3
 329 556 329 556 297 544 c 128,-1,4
 265 532 265 532 230 532 c 0,5,6
 193 532 193 532 160.5 544 c 128,-1,7
 128 556 128 556 104 577.5 c 128,-1,8
 80 599 80 599 66 627.5 c 128,-1,9
 52 656 52 656 52 689 c 2,10,-1
 52 1159 l 2,11,12
 52 1191 52 1191 66 1219 c 128,-1,13
 80 1247 80 1247 104 1268 c 128,-1,14
 128 1289 128 1289 160.5 1301 c 128,-1,15
 193 1313 193 1313 230 1313 c 0,16,17
 265 1313 265 1313 297 1302 c 128,-1,18
 329 1291 329 1291 353 1270.5 c 128,-1,19
 377 1250 377 1250 391.5 1222.5 c 128,-1,20
 406 1195 406 1195 406 1162 c 2,21,-1
 406 683 l 2,0,1
EndSplineSet
EndChar

StartChar: guilsinglleft
Encoding: 8249 8249 366
Width: 342
GlyphClass: 2
Flags: W
LayerCount: 2
Fore
SplineSet
303 1460 m 1,0,-1
 303 1176 l 1,1,-1
 156 881 l 1,2,-1
 303 608 l 1,3,-1
 303 301 l 1,4,-1
 20 881 l 1,5,-1
 303 1460 l 1,0,-1
EndSplineSet
EndChar

StartChar: fraction
Encoding: 8260 8260 368
Width: 324
GlyphClass: 2
Flags: W
LayerCount: 2
Fore
SplineSet
324 1761 m 1,0,-1
 135 0 l 1,1,-1
 1 0 l 1,2,-1
 190 1761 l 1,3,-1
 324 1761 l 1,0,-1
EndSplineSet
EndChar

StartChar: Euro
Encoding: 8364 8364 369
Width: 538
GlyphClass: 2
Flags: W
LayerCount: 2
Fore
SplineSet
500 1030 m 1,0,-1
 274 1030 l 1,1,-1
 274 976 l 1,2,-1
 485 976 l 1,3,-1
 473 870 l 1,4,-1
 274 870 l 1,5,-1
 274 127 l 2,6,7
 274 111 274 111 289 99.5 c 128,-1,8
 304 88 304 88 324 88 c 0,9,10
 343 88 343 88 357.5 99.5 c 128,-1,11
 372 111 372 111 372 127 c 2,12,-1
 372 621 l 1,13,-1
 507 621 l 1,14,-1
 507 127 l 2,15,16
 507 95 507 95 494 68 c 128,-1,17
 481 41 481 41 457 21.5 c 128,-1,18
 433 2 433 2 399 -9.5 c 128,-1,19
 365 -21 365 -21 324 -21 c 0,20,21
 286 -21 286 -21 252.5 -9 c 128,-1,22
 219 3 219 3 194 23 c 128,-1,23
 169 43 169 43 155 70.5 c 128,-1,24
 141 98 141 98 141 130 c 2,25,-1
 141 870 l 1,26,-1
 -12 870 l 1,27,-1
 -12 976 l 1,28,-1
 141 976 l 1,29,-1
 141 1030 l 1,30,-1
 -9 1030 l 1,31,-1
 -9 1137 l 1,32,-1
 141 1137 l 1,33,-1
 141 1634 l 2,34,35
 141 1666 141 1666 154.5 1693.5 c 128,-1,36
 168 1721 168 1721 192.5 1741 c 128,-1,37
 217 1761 217 1761 250.5 1772.5 c 128,-1,38
 284 1784 284 1784 325 1784 c 0,39,40
 365 1784 365 1784 398.5 1772.5 c 128,-1,41
 432 1761 432 1761 456 1741.5 c 128,-1,42
 480 1722 480 1722 493.5 1695 c 128,-1,43
 507 1668 507 1668 507 1638 c 2,44,-1
 507 1348 l 1,45,-1
 372 1348 l 1,46,-1
 372 1628 l 2,47,48
 372 1644 372 1644 358 1655.5 c 128,-1,49
 344 1667 344 1667 325 1667 c 0,50,51
 302 1667 302 1667 288 1655.5 c 128,-1,52
 274 1644 274 1644 274 1628 c 2,53,-1
 274 1137 l 1,54,-1
 512 1137 l 1,55,-1
 500 1030 l 1,0,-1
EndSplineSet
EndChar

StartChar: afii61352
Encoding: 8470 8470 370
Width: 937
GlyphClass: 2
Flags: W
LayerCount: 2
Fore
SplineSet
424 0 m 1,0,-1
 289 0 l 1,1,-1
 189 982 l 1,2,-1
 189 0 l 1,3,-1
 55 0 l 1,4,-1
 55 1761 l 1,5,-1
 187 1761 l 1,6,-1
 298 738 l 1,7,-1
 298 1761 l 1,8,-1
 424 1761 l 1,9,-1
 424 0 l 1,0,-1
885 130 m 2,10,11
 885 99 885 99 870.5 71.5 c 128,-1,12
 856 44 856 44 832 23.5 c 128,-1,13
 808 3 808 3 776 -9 c 128,-1,14
 744 -21 744 -21 710 -21 c 0,15,16
 674 -21 674 -21 641.5 -9 c 128,-1,17
 609 3 609 3 584.5 24 c 128,-1,18
 560 45 560 45 545.5 73.5 c 128,-1,19
 531 102 531 102 531 135 c 2,20,-1
 531 1391 l 2,21,22
 531 1422 531 1422 545.5 1450 c 128,-1,23
 560 1478 560 1478 584.5 1499 c 128,-1,24
 609 1520 609 1520 641.5 1532.5 c 128,-1,25
 674 1545 674 1545 710 1545 c 0,26,27
 744 1545 744 1545 776 1533.5 c 128,-1,28
 808 1522 808 1522 832 1502 c 128,-1,29
 856 1482 856 1482 870.5 1454 c 128,-1,30
 885 1426 885 1426 885 1393 c 2,31,-1
 885 130 l 2,10,11
746 1415 m 2,32,33
 746 1430 746 1430 735.5 1440 c 128,-1,34
 725 1450 725 1450 710 1450 c 0,35,36
 693 1450 693 1450 681 1440 c 128,-1,37
 669 1430 669 1430 669 1415 c 2,38,-1
 669 109 l 2,39,40
 669 101 669 101 679.5 89.5 c 128,-1,41
 690 78 690 78 710 78 c 0,42,43
 725 78 725 78 735.5 87 c 128,-1,44
 746 96 746 96 746 109 c 2,45,-1
 746 1415 l 2,32,33
EndSplineSet
EndChar

StartChar: trademark
Encoding: 8482 8482 371
Width: 958
GlyphClass: 2
Flags: W
LayerCount: 2
Fore
SplineSet
776 1761 m 1,0,-1
 912 1761 l 1,1,-1
 912 780 l 1,2,-1
 777 780 l 1,3,-1
 777 1306 l 1,4,-1
 697 780 l 1,5,-1
 637 780 l 1,6,-1
 555 1306 l 1,7,-1
 555 780 l 1,8,-1
 419 780 l 1,9,-1
 419 1761 l 1,10,-1
 556 1761 l 1,11,-1
 667 1189 l 1,12,-1
 776 1761 l 1,0,-1
388 1761 m 1,13,-1
 388 1644 l 1,14,-1
 273 1644 l 1,15,-1
 273 780 l 1,16,-1
 138 780 l 1,17,-1
 138 1644 l 1,18,-1
 24 1644 l 1,19,-1
 24 1761 l 1,20,-1
 388 1761 l 1,13,-1
EndSplineSet
EndChar

StartChar: partialdiff
Encoding: 8706 8706 372
Width: 448
GlyphClass: 2
Flags: W
LayerCount: 2
Fore
SplineSet
36 789 m 2,0,1
 36 874 36 874 92.5 908 c 128,-1,2
 149 942 149 942 260 942 c 1,3,-1
 260 1760 l 1,4,-1
 395 1760 l 1,5,-1
 395 160 l 2,6,7
 395 122 395 122 381 92.5 c 128,-1,8
 367 63 367 63 343 42 c 128,-1,9
 319 21 319 21 286 10 c 128,-1,10
 253 -1 253 -1 214 -1 c 0,11,12
 177 -1 177 -1 144.5 10 c 128,-1,13
 112 21 112 21 88 41.5 c 128,-1,14
 64 62 64 62 50 91.5 c 128,-1,15
 36 121 36 121 36 159 c 2,16,-1
 36 789 l 2,0,1
175 148 m 2,17,18
 175 126 175 126 187.5 114.5 c 128,-1,19
 200 103 200 103 217 103 c 256,20,21
 234 103 234 103 247 114.5 c 128,-1,22
 260 126 260 126 260 150 c 2,23,-1
 260 826 l 1,24,25
 214 826 214 826 194.5 818 c 128,-1,26
 175 810 175 810 175 783 c 2,27,-1
 175 148 l 2,17,18
EndSplineSet
EndChar

StartChar: product
Encoding: 8719 8719 373
Width: 1474
GlyphClass: 2
Flags: W
LayerCount: 2
Fore
SplineSet
932 1151 m 2,0,1
 932 1113 932 1113 915.5 1087.5 c 128,-1,2
 899 1062 899 1062 871.5 1045.5 c 128,-1,3
 844 1029 844 1029 807.5 1021.5 c 128,-1,4
 771 1014 771 1014 731 1012 c 1,5,-1
 731 548 l 1,6,-1
 601 548 l 1,7,-1
 601 1581 l 1,8,-1
 768 1581 l 2,9,10
 802 1581 802 1581 832 1571 c 128,-1,11
 862 1561 862 1561 884 1543.5 c 128,-1,12
 906 1526 906 1526 919 1502.5 c 128,-1,13
 932 1479 932 1479 932 1452 c 2,14,-1
 932 1151 l 2,0,1
803 1452 m 2,15,16
 803 1469 803 1469 785.5 1475.5 c 128,-1,17
 768 1482 768 1482 734 1482 c 1,18,-1
 734 1119 l 1,19,20
 771 1119 771 1119 787 1125 c 128,-1,21
 803 1131 803 1131 803 1147 c 2,22,-1
 803 1452 l 2,15,16
24 1068 m 256,23,24
 24 1166 24 1166 49.5 1257 c 128,-1,25
 75 1348 75 1348 121.5 1427.5 c 128,-1,26
 168 1507 168 1507 233 1572 c 128,-1,27
 298 1637 298 1637 377.5 1683.5 c 128,-1,28
 457 1730 457 1730 548 1755.5 c 128,-1,29
 639 1781 639 1781 737 1781 c 256,30,31
 835 1781 835 1781 926 1755.5 c 128,-1,32
 1017 1730 1017 1730 1096 1683.5 c 128,-1,33
 1175 1637 1175 1637 1240.5 1572 c 128,-1,34
 1306 1507 1306 1507 1352.5 1427.5 c 128,-1,35
 1399 1348 1399 1348 1424.5 1257 c 128,-1,36
 1450 1166 1450 1166 1450 1068 c 256,37,38
 1450 970 1450 970 1424.5 879 c 128,-1,39
 1399 788 1399 788 1352.5 709 c 128,-1,40
 1306 630 1306 630 1240.5 564.5 c 128,-1,41
 1175 499 1175 499 1096 452.5 c 128,-1,42
 1017 406 1017 406 926 380.5 c 128,-1,43
 835 355 835 355 737 355 c 256,44,45
 639 355 639 355 548 380.5 c 128,-1,46
 457 406 457 406 377.5 452.5 c 128,-1,47
 298 499 298 499 233 564.5 c 128,-1,48
 168 630 168 630 121.5 709 c 128,-1,49
 75 788 75 788 49.5 879 c 128,-1,50
 24 970 24 970 24 1068 c 256,23,24
156 1068 m 0,51,52
 156 946 156 946 201 838.5 c 128,-1,53
 246 731 246 731 324.5 651 c 128,-1,54
 403 571 403 571 509 524.5 c 128,-1,55
 615 478 615 478 737 478 c 0,56,57
 818 478 818 478 892.5 499 c 128,-1,58
 967 520 967 520 1031.5 558.5 c 128,-1,59
 1096 597 1096 597 1149 651 c 128,-1,60
 1202 705 1202 705 1239.5 770.5 c 128,-1,61
 1277 836 1277 836 1297.5 911 c 128,-1,62
 1318 986 1318 986 1318 1068 c 0,63,64
 1318 1149 1318 1149 1297.5 1224 c 128,-1,65
 1277 1299 1277 1299 1239.5 1365 c 128,-1,66
 1202 1431 1202 1431 1149 1484.5 c 128,-1,67
 1096 1538 1096 1538 1031.5 1577 c 128,-1,68
 967 1616 967 1616 892.5 1637 c 128,-1,69
 818 1658 818 1658 737 1658 c 0,70,71
 655 1658 655 1658 580.5 1637 c 128,-1,72
 506 1616 506 1616 441.5 1577 c 128,-1,73
 377 1538 377 1538 324.5 1484.5 c 128,-1,74
 272 1431 272 1431 234.5 1365 c 128,-1,75
 197 1299 197 1299 176.5 1224 c 128,-1,76
 156 1149 156 1149 156 1068 c 0,51,52
EndSplineSet
EndChar

StartChar: summation
Encoding: 8721 8721 374
Width: 362
GlyphClass: 2
Flags: W
LayerCount: 2
Fore
SplineSet
352 1644 m 1,0,-1
 172 1644 l 1,1,-1
 225 996 l 1,2,-1
 353 996 l 1,3,-1
 353 876 l 1,4,-1
 225 876 l 1,5,-1
 172 112 l 1,6,-1
 352 112 l 1,7,-1
 352 0 l 1,8,-1
 39 0 l 1,9,-1
 101 932 l 1,10,-1
 39 1761 l 1,11,-1
 352 1761 l 1,12,-1
 352 1644 l 1,0,-1
EndSplineSet
EndChar

StartChar: minus
Encoding: 8722 8722 375
Width: 488
GlyphClass: 2
Flags: W
LayerCount: 2
Fore
SplineSet
445 750 m 1,0,-1
 41 750 l 1,1,-1
 41 885 l 1,2,-1
 445 885 l 1,3,-1
 445 750 l 1,0,-1
EndSplineSet
EndChar

StartChar: radical
Encoding: 8730 8730 376
Width: 536
GlyphClass: 2
Flags: W
LayerCount: 2
Fore
SplineSet
256 888 m 1,0,-1
 316 313 l 1,1,-1
 373 1761 l 1,2,-1
 514 1761 l 1,3,-1
 419 0 l 1,4,-1
 225 0 l 1,5,-1
 130 808 l 1,6,-1
 0 808 l 1,7,-1
 0 888 l 1,8,-1
 256 888 l 1,0,-1
EndSplineSet
EndChar

StartChar: infinity
Encoding: 8734 8734 377
Width: 743
GlyphClass: 2
Flags: W
LayerCount: 2
Fore
SplineSet
728 854 m 0,0,1
 728 807 728 807 717.5 764.5 c 128,-1,2
 707 722 707 722 686.5 690 c 128,-1,3
 666 658 666 658 635 638.5 c 128,-1,4
 604 619 604 619 563 619 c 0,5,6
 518 619 518 619 483 645 c 128,-1,7
 448 671 448 671 418 709 c 0,8,9
 406 724 406 724 395 740.5 c 128,-1,10
 384 757 384 757 373 774 c 1,11,12
 362 757 362 757 351 740.5 c 128,-1,13
 340 724 340 724 328 709 c 0,14,15
 298 671 298 671 262 645 c 128,-1,16
 226 619 226 619 180 619 c 0,17,18
 138 619 138 619 106.5 638.5 c 128,-1,19
 75 658 75 658 55 690 c 128,-1,20
 35 722 35 722 25 764.5 c 128,-1,21
 15 807 15 807 15 854 c 0,22,23
 15 900 15 900 25 942 c 128,-1,24
 35 984 35 984 55 1016 c 128,-1,25
 75 1048 75 1048 106.5 1067.5 c 128,-1,26
 138 1087 138 1087 180 1087 c 0,27,28
 226 1087 226 1087 262 1061 c 128,-1,29
 298 1035 298 1035 328 997 c 0,30,31
 340 981 340 981 351 965 c 128,-1,32
 362 949 362 949 373 932 c 1,33,34
 384 949 384 949 395 965 c 128,-1,35
 406 981 406 981 418 997 c 0,36,37
 448 1035 448 1035 483 1061 c 128,-1,38
 518 1087 518 1087 563 1087 c 0,39,40
 604 1087 604 1087 635 1067.5 c 128,-1,41
 666 1048 666 1048 686.5 1016 c 128,-1,42
 707 984 707 984 717.5 942 c 128,-1,43
 728 900 728 900 728 854 c 0,0,1
312 876 m 2,44,45
 286 915 286 915 258 941 c 128,-1,46
 230 967 230 967 193 967 c 0,47,48
 167 967 167 967 150 958 c 128,-1,49
 133 949 133 949 123.5 933.5 c 128,-1,50
 114 918 114 918 110.5 897.5 c 128,-1,51
 107 877 107 877 107 854 c 256,52,53
 107 831 107 831 110.5 810 c 128,-1,54
 114 789 114 789 123.5 773.5 c 128,-1,55
 133 758 133 758 150 749 c 128,-1,56
 167 740 167 740 193 740 c 0,57,58
 230 740 230 740 258 765.5 c 128,-1,59
 286 791 286 791 312 830 c 2,60,-1
 328 852 l 1,61,-1
 312 876 l 2,44,45
408 852 m 1,62,-1
 424 830 l 2,63,64
 450 791 450 791 478.5 765.5 c 128,-1,65
 507 740 507 740 543 740 c 0,66,67
 569 740 569 740 586 749 c 128,-1,68
 603 758 603 758 612.5 773.5 c 128,-1,69
 622 789 622 789 625.5 810 c 128,-1,70
 629 831 629 831 629 854 c 256,71,72
 629 877 629 877 625.5 897.5 c 128,-1,73
 622 918 622 918 612.5 933.5 c 128,-1,74
 603 949 603 949 586 958 c 128,-1,75
 569 967 569 967 543 967 c 0,76,77
 507 967 507 967 478.5 941 c 128,-1,78
 450 915 450 915 424 876 c 2,79,-1
 408 852 l 1,62,-1
EndSplineSet
EndChar

StartChar: integral
Encoding: 8747 8747 378
Width: 433
GlyphClass: 2
Flags: W
LayerCount: 2
Fore
SplineSet
443 1422 m 1,0,-1
 277 1422 l 1,1,-1
 228 864 l 1,2,-1
 348 864 l 1,3,-1
 338 759 l 1,4,-1
 219 759 l 1,5,-1
 153 0 l 1,6,-1
 24 0 l 1,7,-1
 157 1520 l 1,8,-1
 451 1520 l 1,9,-1
 443 1422 l 1,0,-1
EndSplineSet
EndChar

StartChar: approxequal
Encoding: 8776 8776 379
Width: 701
GlyphClass: 2
Flags: W
LayerCount: 2
Fore
SplineSet
24 795 m 1,0,1
 24 828 24 828 29 857 c 128,-1,2
 34 886 34 886 45 907.5 c 128,-1,3
 56 929 56 929 75 941.5 c 128,-1,4
 94 954 94 954 123 954 c 0,5,6
 139 954 139 954 174 950.5 c 128,-1,7
 209 947 209 947 253.5 942.5 c 128,-1,8
 298 938 298 938 347.5 932 c 128,-1,9
 397 926 397 926 442.5 921.5 c 128,-1,10
 488 917 488 917 524.5 913.5 c 128,-1,11
 561 910 561 910 579 910 c 0,12,13
 589 910 589 910 595 917 c 128,-1,14
 601 924 601 924 603 932 c 0,15,16
 607 943 607 943 608 954 c 1,17,-1
 675 954 l 1,18,19
 680 907 680 907 669 874 c 0,20,21
 661 842 661 842 639 818.5 c 128,-1,22
 617 795 617 795 573 795 c 0,23,24
 556 795 556 795 519.5 798.5 c 128,-1,25
 483 802 483 802 437 806.5 c 128,-1,26
 391 811 391 811 340 817 c 128,-1,27
 289 823 289 823 244.5 827.5 c 128,-1,28
 200 832 200 832 166 835.5 c 128,-1,29
 132 839 132 839 120 839 c 0,30,31
 109 839 109 839 104 832 c 128,-1,32
 99 825 99 825 96 816 c 0,33,34
 93 808 93 808 93 795 c 1,35,-1
 24 795 l 1,0,1
24 599 m 1,36,37
 24 633 24 633 29 662 c 128,-1,38
 34 691 34 691 45 712.5 c 128,-1,39
 56 734 56 734 75 746.5 c 128,-1,40
 94 759 94 759 123 759 c 0,41,42
 139 759 139 759 174 756 c 128,-1,43
 209 753 209 753 253.5 748 c 128,-1,44
 298 743 298 743 347.5 737.5 c 128,-1,45
 397 732 397 732 442.5 727 c 128,-1,46
 488 722 488 722 524.5 719 c 128,-1,47
 561 716 561 716 579 716 c 0,48,49
 589 716 589 716 595 722 c 128,-1,50
 601 728 601 728 603 737 c 0,51,52
 607 748 607 748 608 759 c 1,53,-1
 675 759 l 1,54,55
 677 712 677 712 666 679 c 0,56,57
 660 664 660 664 652 650 c 128,-1,58
 644 636 644 636 633 624.5 c 128,-1,59
 622 613 622 613 605.5 606 c 128,-1,60
 589 599 589 599 567 599 c 0,61,62
 550 599 550 599 514 602.5 c 128,-1,63
 478 606 478 606 432.5 611 c 128,-1,64
 387 616 387 616 337.5 621.5 c 128,-1,65
 288 627 288 627 244 632 c 128,-1,66
 200 637 200 637 166.5 640.5 c 128,-1,67
 133 644 133 644 120 644 c 0,68,69
 109 644 109 644 104 637 c 128,-1,70
 99 630 99 630 96 621 c 0,71,72
 93 613 93 613 93 599 c 1,73,-1
 24 599 l 1,36,37
EndSplineSet
EndChar

StartChar: lessequal
Encoding: 8804 8804 381
Width: 425
GlyphClass: 2
Flags: W
LayerCount: 2
Fore
SplineSet
401 1340 m 1,0,-1
 401 1080 l 1,1,-1
 211 881 l 1,2,-1
 401 704 l 1,3,-1
 401 439 l 1,4,-1
 15 881 l 1,5,-1
 401 1340 l 1,0,-1
23 389 m 1,6,-1
 400 389 l 1,7,-1
 400 243 l 1,8,-1
 23 243 l 1,9,-1
 23 389 l 1,6,-1
EndSplineSet
EndChar

StartChar: greaterequal
Encoding: 8805 8805 382
Width: 425
GlyphClass: 2
Flags: W
LayerCount: 2
Fore
SplineSet
409 881 m 1,0,-1
 24 439 l 1,1,-1
 24 704 l 1,2,-1
 214 881 l 1,3,-1
 24 1080 l 1,4,-1
 24 1340 l 1,5,-1
 409 881 l 1,0,-1
402 243 m 1,6,-1
 25 243 l 1,7,-1
 25 389 l 1,8,-1
 402 389 l 1,9,-1
 402 243 l 1,6,-1
EndSplineSet
EndChar

StartChar: lozenge
Encoding: 9674 9674 383
Width: 458
GlyphClass: 2
Flags: W
LayerCount: 2
Fore
SplineSet
406 130 m 2,0,1
 406 99 406 99 391.5 71.5 c 128,-1,2
 377 44 377 44 353 23.5 c 128,-1,3
 329 3 329 3 297 -9 c 128,-1,4
 265 -21 265 -21 230 -21 c 0,5,6
 193 -21 193 -21 160.5 -9 c 128,-1,7
 128 3 128 3 104 24 c 128,-1,8
 80 45 80 45 66 73.5 c 128,-1,9
 52 102 52 102 52 135 c 2,10,-1
 52 1631 l 2,11,12
 52 1663 52 1663 66 1690.5 c 128,-1,13
 80 1718 80 1718 104 1738.5 c 128,-1,14
 128 1759 128 1759 160.5 1771 c 128,-1,15
 193 1783 193 1783 230 1783 c 0,16,17
 265 1783 265 1783 297 1771.5 c 128,-1,18
 329 1760 329 1760 353 1740 c 128,-1,19
 377 1720 377 1720 391.5 1692.5 c 128,-1,20
 406 1665 406 1665 406 1632 c 2,21,-1
 406 130 l 2,0,1
338 994 m 1,22,23
 336 987 336 987 333.5 959 c 128,-1,24
 331 931 331 931 327.5 893.5 c 128,-1,25
 324 856 324 856 320 813.5 c 128,-1,26
 316 771 316 771 311.5 736 c 128,-1,27
 307 701 307 701 301 678.5 c 128,-1,28
 295 656 295 656 289 657 c 1,29,30
 292 719 292 719 292 776.5 c 128,-1,31
 292 834 292 834 289.5 882.5 c 128,-1,32
 287 931 287 931 284 969 c 128,-1,33
 281 1007 281 1007 278 1030 c 2,34,-1
 273 1065 l 1,35,-1
 272 1018 l 2,36,37
 271 972 271 972 268 905 c 128,-1,38
 265 838 265 838 259 757 c 0,39,40
 255 716 255 716 251.5 679.5 c 128,-1,41
 248 643 248 643 243 611 c 1,42,43
 231 644 231 644 224 684.5 c 128,-1,44
 217 725 217 725 212.5 767 c 128,-1,45
 208 809 208 809 206.5 851 c 128,-1,46
 205 893 205 893 205.5 930.5 c 128,-1,47
 206 968 206 968 207 997.5 c 128,-1,48
 208 1027 208 1027 210 1045 c 2,49,-1
 211 1068 l 1,50,51
 196 1039 196 1039 189 992 c 128,-1,52
 182 945 182 945 179.5 882.5 c 128,-1,53
 177 820 177 820 179 744.5 c 128,-1,54
 181 669 181 669 184 585 c 1,55,56
 166 618 166 618 155.5 672 c 128,-1,57
 145 726 145 726 139 785 c 128,-1,58
 133 844 133 844 128.5 898 c 128,-1,59
 124 952 124 952 117 985 c 1,60,-1
 138 148 l 2,61,62
 138 111 138 111 159 84.5 c 128,-1,63
 180 58 180 58 230 58 c 0,64,65
 254 58 254 58 270 65.5 c 128,-1,66
 286 73 286 73 295.5 85 c 128,-1,67
 305 97 305 97 309.5 111 c 128,-1,68
 314 125 314 125 316 139 c 2,69,-1
 338 994 l 1,22,23
EndSplineSet
EndChar

StartChar: uni018F
Encoding: 399 399 386
Width: 2048
LayerCount: 2
Fore
SplineSet
829 957 m 156,-1,1
 1063 927 1063 927 913 765 c 152,-1,2
 763 603 763 603 679 795 c 152,-1,0
 595 987 595 987 829 957 c 156,-1,1
655 1467 m 24,3,4
 842 1501 842 1501 979 1341 c 24,5,6
 1133.57342657 1160.66433566 1133.57342657 1160.66433566 1123 921 c 24,7,8
 1108.61100405 600.60502359 1108.61100405 600.60502359 943 525 c 24,9,10
 769.293628809 445.91966759 769.293628809 445.91966759 571 669 c 24,11,12
 449.620689655 805.551724138 449.620689655 805.551724138 559 957 c 24,13,14
 711 1167 711 1167 883 1101 c 24,15,-1
 913 1209 l 24,16,-1
 715 1293 l 24,17,18
 661 1468 661 1468 655 1467 c 24,3,4
EndSplineSet
EndChar
